STARTFONT 2.1
COMMENT
COMMENT Converted from OpenType font "notosans_regular.ttf" by "otf2bdf 3.0".
COMMENT
FONT -FreeType-Noto Sans-Medium-R-Normal--28-200-100-100-P-139-ISO10646-1
SIZE 20 100 100
FONTBOUNDINGBOX 95 48 -17 -11
STARTPROPERTIES 19
FOUNDRY "FreeType"
FAMILY_NAME "Noto Sans"
WEIGHT_NAME "Medium"
SLANT "R"
SETWIDTH_NAME "Normal"
ADD_STYLE_NAME ""
PIXEL_SIZE 28
POINT_SIZE 200
RESOLUTION_X 100
RESOLUTION_Y 100
SPACING "P"
AVERAGE_WIDTH 139
CHARSET_REGISTRY "ISO10646"
CHARSET_ENCODING "1"
FONT_ASCENT 29
FONT_DESCENT 8
COPYRIGHT "Copyright 2015-2021 Google LLC. All Rights Reserved."
_OTF_FONTFILE "notosans_regular.ttf"
_OTF_PSNAME "NotoSans-Regular"
ENDPROPERTIES
CHARS 3053
STARTCHAR 0000
ENCODING 0
SWIDTH 0 0
DWIDTH 0 0
BBX 0 0 0 0
BITMAP
ENDCHAR
STARTCHAR 000D
ENCODING 13
SWIDTH 252 0
DWIDTH 7 0
BBX 0 0 0 0
BITMAP
ENDCHAR
STARTCHAR 0020
ENCODING 32
SWIDTH 252 0
DWIDTH 7 0
BBX 0 0 0 0
BITMAP
ENDCHAR
STARTCHAR 0021
ENCODING 33
SWIDTH 252 0
DWIDTH 7 0
BBX 3 20 2 0
BITMAP
E0
E0
E0
E0
E0
60
60
60
60
60
60
60
60
60
00
00
00
E0
E0
E0
ENDCHAR
STARTCHAR 0022
ENCODING 34
SWIDTH 396 0
DWIDTH 11 0
BBX 8 7 2 13
BITMAP
C7
C6
C6
C6
C6
C6
C6
ENDCHAR
STARTCHAR 0023
ENCODING 35
SWIDTH 612 0
DWIDTH 17 0
BBX 16 20 1 0
BITMAP
030C
030C
0618
0618
0618
0618
7FFF
7FFF
0C30
0C30
0C30
0C30
FFFE
FFFE
1860
1860
1860
18C0
30C0
30C0
ENDCHAR
STARTCHAR 0024
ENCODING 36
SWIDTH 540 0
DWIDTH 15 0
BBX 12 23 2 -2
BITMAP
0600
0600
0F00
7FF0
FFE0
E600
C600
C600
E600
7E00
3F00
0FC0
07F0
0670
0630
0630
0670
FFE0
FFC0
1E00
0600
0600
0600
ENDCHAR
STARTCHAR 0025
ENCODING 37
SWIDTH 828 0
DWIDTH 23 0
BBX 21 20 1 0
BITMAP
3E0180
7F0300
630300
630600
C30600
C18C00
C19C00
C39800
6333E0
6337F0
776630
3E6630
00C618
00CE18
018618
038618
030630
070630
060770
0C03E0
ENDCHAR
STARTCHAR 0026
ENCODING 38
SWIDTH 720 0
DWIDTH 20 0
BBX 19 20 1 0
BITMAP
0FC000
1FE000
187000
383000
383000
387000
1C7000
0DE000
0FC000
0F0000
1FC1C0
39E1C0
70F180
607B80
E03F00
E01F00
600F00
703F80
3FFBC0
1FE1E0
ENDCHAR
STARTCHAR 0027
ENCODING 39
SWIDTH 216 0
DWIDTH 6 0
BBX 2 7 2 13
BITMAP
C0
C0
C0
C0
C0
C0
C0
ENDCHAR
STARTCHAR 0028
ENCODING 40
SWIDTH 288 0
DWIDTH 8 0
BBX 6 24 1 -4
BITMAP
0C
1C
18
38
30
70
60
60
E0
E0
E0
E0
E0
E0
E0
E0
E0
60
70
70
30
38
18
1C
ENDCHAR
STARTCHAR 0029
ENCODING 41
SWIDTH 288 0
DWIDTH 8 0
BBX 6 24 1 -4
BITMAP
C0
60
70
30
38
18
18
1C
1C
0C
0C
0C
0C
0C
0C
1C
1C
1C
18
38
38
30
70
E0
ENDCHAR
STARTCHAR 002A
ENCODING 42
SWIDTH 540 0
DWIDTH 15 0
BBX 13 12 1 9
BITMAP
0700
0700
0300
0300
E238
FFF8
1FC0
0780
0D80
1CC0
38E0
18E0
ENDCHAR
STARTCHAR 002B
ENCODING 43
SWIDTH 540 0
DWIDTH 15 0
BBX 13 14 1 3
BITMAP
0300
0300
0300
0300
0300
0300
FFF8
FFF8
0300
0300
0300
0300
0300
0300
ENDCHAR
STARTCHAR 002C
ENCODING 44
SWIDTH 252 0
DWIDTH 7 0
BBX 4 7 1 -4
BITMAP
70
70
70
60
60
C0
C0
ENDCHAR
STARTCHAR 002D
ENCODING 45
SWIDTH 288 0
DWIDTH 8 0
BBX 7 3 1 6
BITMAP
FE
FE
FE
ENDCHAR
STARTCHAR 002E
ENCODING 46
SWIDTH 252 0
DWIDTH 7 0
BBX 3 3 2 0
BITMAP
E0
E0
E0
ENDCHAR
STARTCHAR 002F
ENCODING 47
SWIDTH 360 0
DWIDTH 10 0
BBX 10 20 0 0
BITMAP
00C0
01C0
0180
0380
0300
0300
0700
0600
0600
0E00
0C00
1C00
1800
1800
3800
3000
3000
7000
6000
E000
ENDCHAR
STARTCHAR 0030
ENCODING 48
SWIDTH 540 0
DWIDTH 15 0
BBX 14 20 1 0
BITMAP
0FC0
1FE0
3870
7030
7038
6018
6018
E018
E018
E01C
E01C
E01C
E018
6018
6018
6038
7038
3870
1FE0
0FC0
ENDCHAR
STARTCHAR 0031
ENCODING 49
SWIDTH 540 0
DWIDTH 15 0
BBX 7 20 3 0
BITMAP
0E
1E
3E
76
EE
8E
0E
0E
0E
0E
0E
0E
0E
0E
0E
0E
0E
0E
0E
0E
ENDCHAR
STARTCHAR 0032
ENCODING 50
SWIDTH 540 0
DWIDTH 15 0
BBX 13 20 1 0
BITMAP
1FC0
3FE0
7070
0030
0038
0038
0038
0030
0070
0060
00C0
01C0
0380
0700
0E00
1C00
3800
7000
FFF8
FFF8
ENDCHAR
STARTCHAR 0033
ENCODING 51
SWIDTH 540 0
DWIDTH 15 0
BBX 13 20 1 0
BITMAP
1FC0
7FE0
7070
4038
0038
0038
0030
0070
01E0
1F80
1FE0
0070
0038
0018
0018
0018
0038
C070
FFF0
7FC0
ENDCHAR
STARTCHAR 0034
ENCODING 52
SWIDTH 540 0
DWIDTH 15 0
BBX 14 20 1 0
BITMAP
0060
00E0
01E0
03E0
0360
0660
0E60
0C60
1860
3860
3060
6060
E060
FFFC
FFFC
FFFC
0060
0060
0060
0060
ENDCHAR
STARTCHAR 0035
ENCODING 53
SWIDTH 540 0
DWIDTH 15 0
BBX 12 20 2 0
BITMAP
7FE0
7FE0
6000
6000
6000
6000
E000
E000
FF80
FFE0
00E0
0070
0030
0030
0030
0030
0070
80E0
FFC0
FF80
ENDCHAR
STARTCHAR 0036
ENCODING 54
SWIDTH 540 0
DWIDTH 15 0
BBX 13 20 2 0
BITMAP
07E0
1FE0
3C00
7000
6000
E000
E000
C000
CFC0
FFE0
E070
E030
C030
C038
C038
C030
E030
7070
3FE0
1FC0
ENDCHAR
STARTCHAR 0037
ENCODING 55
SWIDTH 540 0
DWIDTH 15 0
BBX 14 20 1 0
BITMAP
FFFC
FFFC
0018
0038
0030
0070
0070
0060
00E0
00C0
01C0
0180
0380
0300
0700
0700
0E00
0E00
1C00
1C00
ENDCHAR
STARTCHAR 0038
ENCODING 56
SWIDTH 540 0
DWIDTH 15 0
BBX 13 20 1 0
BITMAP
0FC0
3FF0
7870
7038
6038
6038
7030
3870
1FE0
0F80
1FE0
38F0
7038
6018
E018
E018
6018
7038
3FF0
1FE0
ENDCHAR
STARTCHAR 0039
ENCODING 57
SWIDTH 540 0
DWIDTH 15 0
BBX 13 20 1 0
BITMAP
0FC0
3FE0
7870
7030
6038
E018
E018
E018
6018
7038
3CF8
1FD8
0218
0018
0038
0030
0070
00E0
3FC0
3F00
ENDCHAR
STARTCHAR 003A
ENCODING 58
SWIDTH 252 0
DWIDTH 7 0
BBX 3 15 2 0
BITMAP
E0
E0
E0
40
00
00
00
00
00
00
00
00
E0
E0
E0
ENDCHAR
STARTCHAR 003B
ENCODING 59
SWIDTH 252 0
DWIDTH 7 0
BBX 4 19 1 -4
BITMAP
70
70
70
20
00
00
00
00
00
00
00
00
70
70
60
60
E0
C0
C0
ENDCHAR
STARTCHAR 003C
ENCODING 60
SWIDTH 540 0
DWIDTH 15 0
BBX 13 12 1 4
BITMAP
0018
0078
01E0
0780
1E00
7800
F000
7C00
0F00
03E0
00F8
0018
ENDCHAR
STARTCHAR 003D
ENCODING 61
SWIDTH 540 0
DWIDTH 15 0
BBX 12 8 2 6
BITMAP
FFF0
FFF0
0000
0000
0000
0000
FFF0
FFF0
ENDCHAR
STARTCHAR 003E
ENCODING 62
SWIDTH 540 0
DWIDTH 15 0
BBX 13 14 1 3
BITMAP
8000
E000
7800
1E00
0780
01E0
0078
0038
00F0
07C0
1F00
7C00
E000
8000
ENDCHAR
STARTCHAR 003F
ENCODING 63
SWIDTH 432 0
DWIDTH 12 0
BBX 11 20 0 0
BITMAP
3F80
FFC0
60E0
0060
0060
0060
0060
00E0
01C0
0380
0700
0E00
0C00
0C00
0000
0000
0000
1C00
1E00
1C00
ENDCHAR
STARTCHAR 0040
ENCODING 64
SWIDTH 864 0
DWIDTH 24 0
BBX 21 22 2 -2
BITMAP
00FC00
03FF80
0F03C0
1C00E0
300070
700030
60FE18
C1C618
C30618
C70618
C60618
C60618
C60618
C70E18
C30E30
C3FBF0
C1F1C0
600000
700000
380000
1F1F00
07FF00
ENDCHAR
STARTCHAR 0041
ENCODING 65
SWIDTH 612 0
DWIDTH 17 0
BBX 18 20 0 0
BITMAP
00C000
01E000
01E000
03E000
037000
033000
073000
063800
0E1800
0E1C00
0C0C00
1C0C00
1FFE00
1FFE00
380700
300700
700300
700380
600180
E001C0
ENDCHAR
STARTCHAR 0042
ENCODING 66
SWIDTH 648 0
DWIDTH 18 0
BBX 14 20 3 0
BITMAP
FF80
FFE0
C0F0
C038
C038
C038
C038
C030
C1E0
FF80
FFF0
C038
C038
C01C
C01C
C018
C038
C078
FFF0
FFC0
ENDCHAR
STARTCHAR 0043
ENCODING 67
SWIDTH 612 0
DWIDTH 17 0
BBX 14 20 2 0
BITMAP
07F8
0FFC
3E0C
3800
7000
E000
E000
E000
C000
C000
C000
C000
E000
E000
E000
7000
7800
3C04
1FFC
07FC
ENDCHAR
STARTCHAR 0044
ENCODING 68
SWIDTH 720 0
DWIDTH 20 0
BBX 16 20 3 0
BITMAP
FF80
FFE0
C1F8
C03C
C01C
C00E
C00E
C006
C007
C007
C007
C007
C006
C00E
C00E
C01C
C03C
C1F8
FFE0
FF80
ENDCHAR
STARTCHAR 0045
ENCODING 69
SWIDTH 540 0
DWIDTH 15 0
BBX 11 20 3 0
BITMAP
FFE0
FFE0
C000
C000
C000
C000
C000
C000
C000
FFC0
FFC0
C000
C000
C000
C000
C000
C000
C000
FFE0
FFE0
ENDCHAR
STARTCHAR 0046
ENCODING 70
SWIDTH 504 0
DWIDTH 14 0
BBX 11 20 3 0
BITMAP
FFE0
FFE0
C000
C000
C000
C000
C000
C000
C000
FFC0
FFC0
FFC0
C000
C000
C000
C000
C000
C000
C000
C000
ENDCHAR
STARTCHAR 0047
ENCODING 71
SWIDTH 720 0
DWIDTH 20 0
BBX 16 20 2 0
BITMAP
03FC
0FFF
1E06
3800
7000
6000
E000
E000
C000
C000
C07F
C07F
E003
E003
E003
7003
7803
3C03
1FFF
07FE
ENDCHAR
STARTCHAR 0048
ENCODING 72
SWIDTH 720 0
DWIDTH 20 0
BBX 15 20 3 0
BITMAP
C00E
C00E
C00E
C00E
C00E
C00E
C00E
C00E
C00E
FFFE
FFFE
C00E
C00E
C00E
C00E
C00E
C00E
C00E
C00E
C00E
ENDCHAR
STARTCHAR 0049
ENCODING 73
SWIDTH 324 0
DWIDTH 9 0
BBX 7 20 1 0
BITMAP
FE
FE
38
38
38
38
38
38
38
38
38
38
38
38
38
38
38
38
FE
FE
ENDCHAR
STARTCHAR 004A
ENCODING 74
SWIDTH 252 0
DWIDTH 7 0
BBX 7 25 -2 -5
BITMAP
06
06
06
06
06
06
06
06
06
06
06
06
06
06
06
06
06
06
06
06
06
0E
0E
FC
F8
ENDCHAR
STARTCHAR 004B
ENCODING 75
SWIDTH 612 0
DWIDTH 17 0
BBX 14 20 3 0
BITMAP
C01C
C038
C070
C0E0
C1C0
C380
C700
CE00
DC00
DE00
FE00
E700
C380
C380
C1C0
C0E0
C070
C070
C038
C01C
ENDCHAR
STARTCHAR 004C
ENCODING 76
SWIDTH 504 0
DWIDTH 14 0
BBX 11 20 3 0
BITMAP
C000
C000
C000
C000
C000
C000
C000
C000
C000
C000
C000
C000
C000
C000
C000
C000
C000
C000
FFE0
FFE0
ENDCHAR
STARTCHAR 004D
ENCODING 77
SWIDTH 900 0
DWIDTH 25 0
BBX 20 20 3 0
BITMAP
F000F0
F001F0
F001F0
F801F0
D80370
D80370
DC0770
CC0670
CE0670
C60E70
C60C70
C71C70
C31870
C31870
C3B870
C1B070
C1F070
C0E070
C0E070
C0E070
ENDCHAR
STARTCHAR 004E
ENCODING 78
SWIDTH 756 0
DWIDTH 21 0
BBX 15 20 3 0
BITMAP
E006
E006
F006
F806
D806
DC06
CE06
CE06
C706
C386
C386
C1C6
C0E6
C0E6
C076
C036
C03E
C01E
C00E
C00E
ENDCHAR
STARTCHAR 004F
ENCODING 79
SWIDTH 756 0
DWIDTH 21 0
BBX 18 20 2 0
BITMAP
07F800
1FFC00
3C0F00
780700
700380
E00180
E001C0
E001C0
C001C0
C001C0
C001C0
C001C0
E001C0
E001C0
E00180
700380
700700
3C0F00
1FFE00
07F800
ENDCHAR
STARTCHAR 0050
ENCODING 80
SWIDTH 576 0
DWIDTH 16 0
BBX 12 20 3 0
BITMAP
FF00
FFC0
C1E0
C070
C030
C030
C030
C030
C070
C0E0
FFE0
FF80
C000
C000
C000
C000
C000
C000
C000
C000
ENDCHAR
STARTCHAR 0051
ENCODING 81
SWIDTH 756 0
DWIDTH 21 0
BBX 18 25 2 -5
BITMAP
07F800
1FFC00
3C0F00
780700
700380
E00180
E001C0
E001C0
C001C0
C001C0
C001C0
C001C0
E001C0
E001C0
E00180
700380
700700
3C0F00
1FFE00
07F800
003800
001C00
001E00
000F00
000780
ENDCHAR
STARTCHAR 0052
ENCODING 82
SWIDTH 612 0
DWIDTH 17 0
BBX 14 20 3 0
BITMAP
FF00
FFE0
C1E0
C070
C030
C030
C030
C030
C070
C1E0
FFC0
FF80
C180
C1C0
C0E0
C0E0
C070
C070
C038
C01C
ENDCHAR
STARTCHAR 0053
ENCODING 83
SWIDTH 540 0
DWIDTH 15 0
BBX 13 20 1 0
BITMAP
0FE0
3FF0
7830
7000
6000
6000
7000
7000
3C00
1F80
07E0
01F0
0078
0038
0038
0038
0038
C070
FFE0
7FC0
ENDCHAR
STARTCHAR 0054
ENCODING 84
SWIDTH 540 0
DWIDTH 15 0
BBX 15 20 0 0
BITMAP
FFFE
FFFE
0380
0380
0380
0380
0380
0380
0380
0380
0380
0380
0380
0380
0380
0380
0380
0380
0380
0380
ENDCHAR
STARTCHAR 0055
ENCODING 85
SWIDTH 720 0
DWIDTH 20 0
BBX 16 20 2 0
BITMAP
E007
E007
E007
E007
E007
E007
E007
E007
E007
E007
E007
E007
E007
6007
6007
6006
700E
381C
1FFC
0FF0
ENDCHAR
STARTCHAR 0056
ENCODING 86
SWIDTH 576 0
DWIDTH 16 0
BBX 17 20 0 0
BITMAP
E00380
E00300
600700
700600
300E00
300E00
380C00
181C00
1C1C00
1C1800
0C3800
0E3800
0E3000
067000
077000
076000
03E000
03C000
01C000
01C000
ENDCHAR
STARTCHAR 0057
ENCODING 87
SWIDTH 900 0
DWIDTH 25 0
BBX 25 20 0 0
BITMAP
E01C0180
601E0180
701E0380
701E0380
703E0300
30370700
38330700
38730700
18638600
18618E00
1CE18E00
1CE1CC00
0CC1CC00
0CC0DC00
0FC0DC00
0F80F800
07807800
07807800
07807800
07003000
ENDCHAR
STARTCHAR 0058
ENCODING 88
SWIDTH 576 0
DWIDTH 16 0
BBX 16 20 0 0
BITMAP
7006
700E
380C
181C
1C38
0E30
0670
07E0
03C0
01C0
03C0
03E0
0660
0E70
0C38
1C18
381C
300E
700E
E007
ENDCHAR
STARTCHAR 0059
ENCODING 89
SWIDTH 540 0
DWIDTH 15 0
BBX 16 20 0 0
BITMAP
E007
600E
700C
301C
3818
1C38
1C30
0E70
0E60
07E0
03C0
03C0
0180
0180
0180
0180
0180
0180
0180
0180
ENDCHAR
STARTCHAR 005A
ENCODING 90
SWIDTH 540 0
DWIDTH 15 0
BBX 14 20 1 0
BITMAP
FFFC
FFFC
0038
0038
0070
00E0
00E0
01C0
0380
0380
0700
0E00
0E00
1C00
3800
3800
7000
E000
FFFC
FFFC
ENDCHAR
STARTCHAR 005B
ENCODING 91
SWIDTH 324 0
DWIDTH 9 0
BBX 6 24 2 -4
BITMAP
FC
FC
E0
E0
E0
E0
E0
E0
E0
E0
E0
E0
E0
E0
E0
E0
E0
E0
E0
E0
E0
E0
FC
FC
ENDCHAR
STARTCHAR 005C
ENCODING 92
SWIDTH 360 0
DWIDTH 10 0
BBX 10 20 0 0
BITMAP
E000
6000
7000
3000
3000
3800
1800
1800
1C00
0C00
0E00
0600
0600
0700
0300
0300
0380
0180
01C0
01C0
ENDCHAR
STARTCHAR 005D
ENCODING 93
SWIDTH 324 0
DWIDTH 9 0
BBX 6 24 1 -4
BITMAP
FC
FC
0C
0C
0C
0C
0C
0C
0C
0C
0C
0C
0C
0C
0C
0C
0C
0C
0C
0C
0C
0C
FC
FC
ENDCHAR
STARTCHAR 005E
ENCODING 94
SWIDTH 540 0
DWIDTH 15 0
BBX 14 13 1 7
BITMAP
0300
0700
0780
0D80
0CC0
18C0
1860
3860
3030
7030
6018
6018
C00C
ENDCHAR
STARTCHAR 005F
ENCODING 95
SWIDTH 432 0
DWIDTH 12 0
BBX 12 2 0 -4
BITMAP
FFF0
FFF0
ENDCHAR
STARTCHAR 0060
ENCODING 96
SWIDTH 252 0
DWIDTH 7 0
BBX 5 4 1 17
BITMAP
E0
70
38
18
ENDCHAR
STARTCHAR 0061
ENCODING 97
SWIDTH 540 0
DWIDTH 15 0
BBX 12 15 1 0
BITMAP
1FC0
3FE0
3070
0030
0030
0030
0FF0
3FF0
7030
E030
E030
E070
E0F0
7FB0
3F30
ENDCHAR
STARTCHAR 0062
ENCODING 98
SWIDTH 612 0
DWIDTH 17 0
BBX 14 21 2 0
BITMAP
E000
E000
E000
E000
E000
E000
E7C0
FFF0
F870
F038
E018
E018
E01C
E01C
E01C
E018
E018
F038
F070
FFF0
CFE0
ENDCHAR
STARTCHAR 0063
ENCODING 99
SWIDTH 468 0
DWIDTH 13 0
BBX 10 15 2 0
BITMAP
1FC0
3FC0
7040
E000
E000
C000
C000
C000
C000
C000
C000
E000
7000
7FC0
1FC0
ENDCHAR
STARTCHAR 0064
ENCODING 100
SWIDTH 612 0
DWIDTH 17 0
BBX 13 21 2 0
BITMAP
0038
0038
0038
0038
0038
0038
1FB8
7FF8
7078
E078
E038
C038
C038
C038
C038
C038
C038
E038
7078
7FF8
3F98
ENDCHAR
STARTCHAR 0065
ENCODING 101
SWIDTH 540 0
DWIDTH 15 0
BBX 12 15 2 0
BITMAP
1F80
3FC0
70E0
E070
C070
C030
FFF0
FFF0
C000
C000
E000
E000
7010
3FF0
1FE0
ENDCHAR
STARTCHAR 0066
ENCODING 102
SWIDTH 324 0
DWIDTH 9 0
BBX 11 21 0 0
BITMAP
07E0
0FC0
1C00
1C00
1C00
1800
3F80
FF80
1800
1800
1800
1800
1800
1800
1800
1800
1800
1800
1800
1800
1800
ENDCHAR
STARTCHAR 0067
ENCODING 103
SWIDTH 612 0
DWIDTH 17 0
BBX 13 22 2 -7
BITMAP
1F98
3FD8
70F8
E078
E038
C038
C038
C038
C038
C038
C038
E038
7078
7FF8
1FB8
0038
0038
0030
0070
79F0
7FE0
0E00
ENDCHAR
STARTCHAR 0068
ENCODING 104
SWIDTH 612 0
DWIDTH 17 0
BBX 13 21 2 0
BITMAP
E000
E000
E000
E000
E000
E000
E7E0
FFF0
F870
F038
E038
E038
E038
E038
E038
E038
E038
E038
E038
E038
E038
ENDCHAR
STARTCHAR 0069
ENCODING 105
SWIDTH 252 0
DWIDTH 7 0
BBX 3 20 2 0
BITMAP
E0
E0
40
00
00
E0
E0
E0
E0
E0
E0
E0
E0
E0
E0
E0
E0
E0
E0
E0
ENDCHAR
STARTCHAR 006A
ENCODING 106
SWIDTH 252 0
DWIDTH 7 0
BBX 7 27 -2 -7
BITMAP
0E
0E
04
00
00
0E
0E
0E
0E
0E
0E
0E
0E
0E
0E
0E
0E
0E
0E
0E
0E
0E
0E
0E
9C
FC
70
ENDCHAR
STARTCHAR 006B
ENCODING 107
SWIDTH 504 0
DWIDTH 14 0
BBX 12 21 2 0
BITMAP
E000
E000
E000
E000
E000
E000
E070
E0E0
E1C0
E380
E700
EE00
FC00
FE00
F700
E300
E380
E1C0
E0E0
E060
E070
ENDCHAR
STARTCHAR 006C
ENCODING 108
SWIDTH 252 0
DWIDTH 7 0
BBX 3 21 2 0
BITMAP
E0
E0
E0
E0
E0
E0
E0
E0
E0
E0
E0
E0
E0
E0
E0
E0
E0
E0
E0
E0
E0
ENDCHAR
STARTCHAR 006D
ENCODING 109
SWIDTH 900 0
DWIDTH 25 0
BBX 22 15 2 0
BITMAP
C7C3F0
FFE7F8
F07C38
F0781C
E0381C
E0301C
E0301C
E0301C
E0301C
E0301C
E0301C
E0301C
E0301C
E0301C
E0301C
ENDCHAR
STARTCHAR 006E
ENCODING 110
SWIDTH 612 0
DWIDTH 17 0
BBX 13 15 2 0
BITMAP
C7E0
FFF0
F870
F038
E038
E038
E038
E038
E038
E038
E038
E038
E038
E038
E038
ENDCHAR
STARTCHAR 006F
ENCODING 111
SWIDTH 576 0
DWIDTH 16 0
BBX 13 15 2 0
BITMAP
1FC0
3FE0
7070
E038
E038
C018
C018
C018
C018
C018
C038
E038
7070
3FE0
1FC0
ENDCHAR
STARTCHAR 0070
ENCODING 112
SWIDTH 612 0
DWIDTH 17 0
BBX 14 22 2 -7
BITMAP
C7C0
FFF0
F870
F038
E018
E018
E01C
E01C
E01C
E018
E018
F038
F070
FFF0
EFC0
E000
E000
E000
E000
E000
E000
E000
ENDCHAR
STARTCHAR 0071
ENCODING 113
SWIDTH 612 0
DWIDTH 17 0
BBX 13 22 2 -7
BITMAP
1F98
3FD8
70F8
E078
E038
C038
C038
C038
C038
C038
C038
E038
7078
7FF8
3FB8
0038
0038
0038
0038
0038
0038
0038
ENDCHAR
STARTCHAR 0072
ENCODING 114
SWIDTH 396 0
DWIDTH 11 0
BBX 9 15 2 0
BITMAP
C780
EF80
F800
F000
E000
E000
E000
E000
E000
E000
E000
E000
E000
E000
E000
ENDCHAR
STARTCHAR 0073
ENCODING 115
SWIDTH 468 0
DWIDTH 13 0
BBX 11 15 1 0
BITMAP
1FC0
7FC0
6040
E000
E000
7000
3E00
1F80
03C0
00E0
0060
0060
80E0
FFC0
7F80
ENDCHAR
STARTCHAR 0074
ENCODING 116
SWIDTH 360 0
DWIDTH 10 0
BBX 9 18 0 0
BITMAP
1800
1800
1800
7F80
FF80
1800
1800
1800
1800
1800
1800
1800
1800
1800
1800
1C00
1F80
0F80
ENDCHAR
STARTCHAR 0075
ENCODING 117
SWIDTH 612 0
DWIDTH 17 0
BBX 13 15 2 0
BITMAP
E038
E038
E038
E038
E038
E038
E038
E038
E038
E038
E038
E038
7078
7FD8
3F98
ENDCHAR
STARTCHAR 0076
ENCODING 118
SWIDTH 504 0
DWIDTH 14 0
BBX 14 15 0 0
BITMAP
E01C
601C
6018
7038
3030
3830
3870
1860
1CE0
0CE0
0CC0
0FC0
0780
0780
0780
ENDCHAR
STARTCHAR 0077
ENCODING 119
SWIDTH 756 0
DWIDTH 21 0
BBX 21 15 0 0
BITMAP
E07018
607818
607838
707838
30DC30
30CC30
30CC70
39CE60
198660
198660
1B86E0
1F07C0
0F03C0
0F03C0
0E03C0
ENDCHAR
STARTCHAR 0078
ENCODING 120
SWIDTH 504 0
DWIDTH 14 0
BBX 13 15 1 0
BITMAP
E038
6070
7060
38E0
1DC0
0D80
0F00
0700
0F80
1D80
19C0
38E0
7060
6070
E038
ENDCHAR
STARTCHAR 0079
ENCODING 121
SWIDTH 504 0
DWIDTH 14 0
BBX 14 22 0 -7
BITMAP
E01C
601C
7018
7038
3038
3830
1870
1860
1C60
0CE0
0EC0
06C0
07C0
0780
0380
0300
0700
0700
0E00
1C00
FC00
6000
ENDCHAR
STARTCHAR 007A
ENCODING 122
SWIDTH 468 0
DWIDTH 13 0
BBX 11 15 1 0
BITMAP
7FE0
7FE0
00C0
01C0
0380
0300
0700
0E00
1C00
1800
3800
7000
6000
FFE0
FFE0
ENDCHAR
STARTCHAR 007B
ENCODING 123
SWIDTH 360 0
DWIDTH 10 0
BBX 9 24 1 -4
BITMAP
0380
0F80
0E00
1C00
1C00
1C00
1C00
1C00
1C00
1C00
3800
F000
E000
7800
1800
1C00
1C00
1C00
1C00
1C00
1C00
1C00
0F80
0780
ENDCHAR
STARTCHAR 007C
ENCODING 124
SWIDTH 540 0
DWIDTH 15 0
BBX 2 28 7 -7
BITMAP
C0
C0
C0
C0
C0
C0
C0
C0
C0
C0
C0
C0
C0
C0
C0
C0
C0
C0
C0
C0
C0
C0
C0
C0
C0
C0
C0
C0
ENDCHAR
STARTCHAR 007D
ENCODING 125
SWIDTH 360 0
DWIDTH 10 0
BBX 9 24 1 -4
BITMAP
C000
F000
3800
1800
1800
1800
1800
1800
1800
1800
1C00
0F80
0780
0E00
1C00
1800
1800
1800
1800
1800
1800
3800
F800
F000
ENDCHAR
STARTCHAR 007E
ENCODING 126
SWIDTH 540 0
DWIDTH 15 0
BBX 13 4 1 8
BITMAP
1800
7F08
EFF8
81F0
ENDCHAR
STARTCHAR 00A0
ENCODING 160
SWIDTH 252 0
DWIDTH 7 0
BBX 0 0 0 0
BITMAP
ENDCHAR
STARTCHAR 00A1
ENCODING 161
SWIDTH 252 0
DWIDTH 7 0
BBX 3 20 2 -5
BITMAP
E0
E0
E0
40
00
00
60
60
60
60
60
60
60
E0
E0
E0
E0
E0
E0
E0
ENDCHAR
STARTCHAR 00A2
ENCODING 162
SWIDTH 540 0
DWIDTH 15 0
BBX 10 20 3 0
BITMAP
0600
0600
0F80
3FC0
78C0
E000
E000
C000
C000
C000
C000
C000
C000
E000
F000
7FC0
3FC0
0600
0600
0600
ENDCHAR
STARTCHAR 00A3
ENCODING 163
SWIDTH 540 0
DWIDTH 15 0
BBX 14 20 1 0
BITMAP
07F0
0FF8
1C18
1800
1800
1800
1800
1800
1800
FFE0
FFE0
1800
1800
1800
1800
3800
3800
7000
FFFC
FFFC
ENDCHAR
STARTCHAR 00A4
ENCODING 164
SWIDTH 540 0
DWIDTH 15 0
BBX 12 12 2 4
BITMAP
C020
FFF0
7FE0
70E0
6060
4060
4020
6060
6060
79E0
FFF0
C630
ENDCHAR
STARTCHAR 00A5
ENCODING 165
SWIDTH 540 0
DWIDTH 15 0
BBX 14 20 1 0
BITMAP
C00C
E01C
6018
7038
3030
3870
1860
1CE0
0CC0
0F80
0780
3FF0
0300
0300
0300
3FF0
0300
0300
0300
0300
ENDCHAR
STARTCHAR 00A6
ENCODING 166
SWIDTH 540 0
DWIDTH 15 0
BBX 2 28 7 -7
BITMAP
C0
C0
C0
C0
C0
C0
C0
C0
C0
C0
00
00
00
00
00
00
00
C0
C0
C0
C0
C0
C0
C0
C0
C0
C0
C0
ENDCHAR
STARTCHAR 00A7
ENCODING 167
SWIDTH 504 0
DWIDTH 14 0
BBX 10 21 2 0
BITMAP
3FC0
FFC0
C000
C000
E000
7800
3E00
7F80
C1C0
C0C0
C0C0
E0C0
79C0
3F80
0F80
01C0
00C0
00C0
81C0
FF80
FF00
ENDCHAR
STARTCHAR 00A8
ENCODING 168
SWIDTH 576 0
DWIDTH 16 0
BBX 8 2 4 18
BITMAP
E7
E7
ENDCHAR
STARTCHAR 00A9
ENCODING 169
SWIDTH 828 0
DWIDTH 23 0
BBX 21 20 1 0
BITMAP
01FC00
078F00
1C0180
1800C0
30FC60
61FC30
638030
430010
C30018
C70018
C30018
C30018
430018
638010
61FC30
30FC60
3800E0
1C01C0
070780
03FE00
ENDCHAR
STARTCHAR 00AA
ENCODING 170
SWIDTH 324 0
DWIDTH 9 0
BBX 8 9 1 11
BITMAP
7C
6E
03
03
7F
C3
C3
C7
FB
ENDCHAR
STARTCHAR 00AB
ENCODING 171
SWIDTH 504 0
DWIDTH 14 0
BBX 12 11 1 2
BITMAP
0C20
1C70
18E0
31C0
7380
E300
6380
71C0
38C0
1C60
0C30
ENDCHAR
STARTCHAR 00AC
ENCODING 172
SWIDTH 540 0
DWIDTH 15 0
BBX 13 7 1 4
BITMAP
FFF8
FFF8
0018
0018
0018
0018
0018
ENDCHAR
STARTCHAR 00AD
ENCODING 173
SWIDTH 288 0
DWIDTH 8 0
BBX 7 3 1 6
BITMAP
FE
FE
FE
ENDCHAR
STARTCHAR 00AE
ENCODING 174
SWIDTH 828 0
DWIDTH 23 0
BBX 21 20 1 0
BITMAP
01FC00
078F00
1C0180
1800C0
31F860
61FC30
618E30
418610
C18E18
C19C18
C1F818
C19818
419C18
618C10
618E30
318660
3800E0
1C01C0
070780
03FE00
ENDCHAR
STARTCHAR 00AF
ENCODING 175
SWIDTH 468 0
DWIDTH 13 0
BBX 14 2 0 21
BITMAP
FFFC
FFFC
ENDCHAR
STARTCHAR 00B0
ENCODING 176
SWIDTH 396 0
DWIDTH 11 0
BBX 8 8 2 12
BITMAP
7C
FF
C3
83
81
C3
E7
7E
ENDCHAR
STARTCHAR 00B1
ENCODING 177
SWIDTH 540 0
DWIDTH 15 0
BBX 13 17 1 0
BITMAP
0300
0300
0300
0300
0300
0300
FFF8
FFF8
0300
0300
0300
0300
0300
0300
0000
FFF8
FFF8
ENDCHAR
STARTCHAR 00B2
ENCODING 178
SWIDTH 324 0
DWIDTH 9 0
BBX 8 12 1 12
BITMAP
18
FE
C6
03
06
06
0C
18
30
60
C0
FF
ENDCHAR
STARTCHAR 00B3
ENCODING 179
SWIDTH 324 0
DWIDTH 9 0
BBX 9 13 0 11
BITMAP
1C00
7F00
4300
0180
0300
0F00
3E00
0380
0180
0180
8380
FF00
3C00
ENDCHAR
STARTCHAR 00B4
ENCODING 180
SWIDTH 252 0
DWIDTH 7 0
BBX 5 4 1 17
BITMAP
38
30
70
E0
ENDCHAR
STARTCHAR 00B5
ENCODING 181
SWIDTH 612 0
DWIDTH 17 0
BBX 13 22 2 -7
BITMAP
E038
E038
E038
E038
E038
E038
E038
E038
E038
E038
E038
E038
F078
FFD8
FF98
E000
E000
E000
E000
E000
E000
E000
ENDCHAR
STARTCHAR 00B6
ENCODING 182
SWIDTH 648 0
DWIDTH 18 0
BBX 13 25 2 -4
BITMAP
1FF8
7F88
FF88
FF88
FF88
FF88
FF88
FF88
FF88
FF88
FF88
7F88
7F88
1F88
0188
0188
0188
0188
0188
0188
0188
0188
0188
0188
0188
ENDCHAR
STARTCHAR 00B7
ENCODING 183
SWIDTH 252 0
DWIDTH 7 0
BBX 3 4 2 8
BITMAP
60
E0
E0
E0
ENDCHAR
STARTCHAR 00B8
ENCODING 184
SWIDTH 216 0
DWIDTH 6 0
BBX 6 7 0 -7
BITMAP
30
30
38
0C
0C
F8
E0
ENDCHAR
STARTCHAR 00B9
ENCODING 185
SWIDTH 324 0
DWIDTH 9 0
BBX 6 11 1 12
BITMAP
3C
7C
CC
0C
0C
0C
0C
0C
0C
0C
0C
ENDCHAR
STARTCHAR 00BA
ENCODING 186
SWIDTH 360 0
DWIDTH 10 0
BBX 9 9 1 11
BITMAP
3E00
7700
C300
C100
C180
C180
C300
6300
7E00
ENDCHAR
STARTCHAR 00BB
ENCODING 187
SWIDTH 504 0
DWIDTH 14 0
BBX 12 11 1 2
BITMAP
4300
6380
71C0
38C0
1C60
0E70
1C60
38E0
31C0
6380
E300
ENDCHAR
STARTCHAR 00BC
ENCODING 188
SWIDTH 720 0
DWIDTH 20 0
BBX 19 20 1 0
BITMAP
1C0380
3C0300
EC0600
CC0600
0C0C00
0C1800
0C1800
0C3000
0C31C0
0C61C0
0CC3C0
0CC6C0
0184C0
038CC0
0318C0
0610C0
063FE0
0C00C0
1C00C0
1800C0
ENDCHAR
STARTCHAR 00BD
ENCODING 189
SWIDTH 756 0
DWIDTH 21 0
BBX 19 20 1 0
BITMAP
180300
780600
F80C00
980C00
181800
181800
183000
186000
1867C0
18CFE0
19C860
198060
030060
0300C0
0601C0
0E0380
0C0700
180E00
181FE0
301FE0
ENDCHAR
STARTCHAR 00BE
ENCODING 190
SWIDTH 756 0
DWIDTH 21 0
BBX 21 20 0 0
BITMAP
3E0060
7F00C0
4301C0
030180
030300
3E0300
3F0600
038C00
018C70
019870
E718F0
FE31B0
006130
006330
00C630
01C430
018FF8
030030
030030
060030
ENDCHAR
STARTCHAR 00BF
ENCODING 191
SWIDTH 432 0
DWIDTH 12 0
BBX 10 20 1 -5
BITMAP
0600
0F00
0F00
0000
0000
0000
0600
0600
0600
0C00
1C00
7800
6000
E000
C000
C000
C000
E040
7FC0
3FC0
ENDCHAR
STARTCHAR 00C0
ENCODING 192
SWIDTH 612 0
DWIDTH 17 0
BBX 18 26 0 0
BITMAP
038000
038000
01C000
00C000
000000
000000
00C000
01E000
01E000
03E000
037000
033000
073000
063800
0E1800
0E1C00
0C0C00
1C0C00
1FFE00
1FFE00
380700
300700
700300
700380
600180
E001C0
ENDCHAR
STARTCHAR 00C1
ENCODING 193
SWIDTH 612 0
DWIDTH 17 0
BBX 18 26 0 0
BITMAP
003800
007000
00E000
00C000
000000
000000
00C000
01E000
01E000
03E000
037000
033000
073000
063800
0E1800
0E1C00
0C0C00
1C0C00
1FFE00
1FFE00
380700
300700
700300
700380
600180
E001C0
ENDCHAR
STARTCHAR 00C2
ENCODING 194
SWIDTH 612 0
DWIDTH 17 0
BBX 18 26 0 0
BITMAP
01E000
03E000
073000
061800
000000
000000
00C000
01E000
01E000
03E000
037000
033000
073000
063800
0E1800
0E1C00
0C0C00
1C0C00
1FFE00
1FFE00
380700
300700
700300
700380
600180
E001C0
ENDCHAR
STARTCHAR 00C3
ENCODING 195
SWIDTH 612 0
DWIDTH 17 0
BBX 18 25 0 0
BITMAP
078C00
0FF800
087800
000000
000000
00C000
01E000
01E000
03E000
037000
033000
073000
063800
0E1800
0E1C00
0C0C00
1C0C00
1FFE00
1FFE00
380700
300700
700300
700380
600180
E001C0
ENDCHAR
STARTCHAR 00C4
ENCODING 196
SWIDTH 612 0
DWIDTH 17 0
BBX 18 25 0 0
BITMAP
063800
073800
001000
000000
000000
00C000
01E000
01E000
03E000
037000
033000
073000
063800
0E1800
0E1C00
0C0C00
1C0C00
1FFE00
1FFE00
380700
300700
700300
700380
600180
E001C0
ENDCHAR
STARTCHAR 00C5
ENCODING 197
SWIDTH 612 0
DWIDTH 17 0
BBX 18 24 0 0
BITMAP
03E000
033000
023000
033000
03E000
01E000
01E000
03E000
037000
033000
073000
063800
0E1800
0E1C00
0C0C00
1C0C00
1FFE00
1FFE00
380700
300700
700300
700380
600180
E001C0
ENDCHAR
STARTCHAR 00C6
ENCODING 198
SWIDTH 864 0
DWIDTH 24 0
BBX 23 20 0 0
BITMAP
007FFE
007FFE
00EE00
00CE00
01CE00
018E00
038E00
030E00
070E00
070FFC
0E0FFC
0E0E00
0FFE00
1FFE00
180E00
380E00
300E00
700E00
600FFE
E00FFE
ENDCHAR
STARTCHAR 00C7
ENCODING 199
SWIDTH 612 0
DWIDTH 17 0
BBX 14 27 2 -7
BITMAP
07F8
0FFC
3E0C
3800
7000
E000
E000
E000
C000
C000
C000
C000
E000
E000
E000
7000
7800
3C04
1FFC
07FC
0080
0180
01E0
0060
0060
03E0
0380
ENDCHAR
STARTCHAR 00C8
ENCODING 200
SWIDTH 540 0
DWIDTH 15 0
BBX 11 26 3 0
BITMAP
3800
1C00
0C00
0600
0000
0000
FFE0
FFE0
C000
C000
C000
C000
C000
C000
C000
FFC0
FFC0
C000
C000
C000
C000
C000
C000
C000
FFE0
FFE0
ENDCHAR
STARTCHAR 00C9
ENCODING 201
SWIDTH 540 0
DWIDTH 15 0
BBX 11 26 3 0
BITMAP
0380
0300
0700
0E00
0000
0000
FFE0
FFE0
C000
C000
C000
C000
C000
C000
C000
FFC0
FFC0
C000
C000
C000
C000
C000
C000
C000
FFE0
FFE0
ENDCHAR
STARTCHAR 00CA
ENCODING 202
SWIDTH 540 0
DWIDTH 15 0
BBX 11 26 3 0
BITMAP
0E00
1F00
3B80
61C0
0000
0000
FFE0
FFE0
C000
C000
C000
C000
C000
C000
C000
FFC0
FFC0
C000
C000
C000
C000
C000
C000
C000
FFE0
FFE0
ENDCHAR
STARTCHAR 00CB
ENCODING 203
SWIDTH 540 0
DWIDTH 15 0
BBX 11 25 3 0
BITMAP
3180
3180
0000
0000
0000
FFE0
FFE0
C000
C000
C000
C000
C000
C000
C000
FFC0
FFC0
C000
C000
C000
C000
C000
C000
C000
FFE0
FFE0
ENDCHAR
STARTCHAR 00CC
ENCODING 204
SWIDTH 324 0
DWIDTH 9 0
BBX 7 26 1 0
BITMAP
E0
70
38
18
00
00
FE
FE
38
38
38
38
38
38
38
38
38
38
38
38
38
38
38
38
FE
FE
ENDCHAR
STARTCHAR 00CD
ENCODING 205
SWIDTH 324 0
DWIDTH 9 0
BBX 8 26 1 0
BITMAP
0F
0E
1C
18
00
00
FE
FE
38
38
38
38
38
38
38
38
38
38
38
38
38
38
38
38
FE
FE
ENDCHAR
STARTCHAR 00CE
ENCODING 206
SWIDTH 324 0
DWIDTH 9 0
BBX 9 26 0 0
BITMAP
1C00
3E00
7700
E180
0000
0000
7F00
7F00
1C00
1C00
1C00
1C00
1C00
1C00
1C00
1C00
1C00
1C00
1C00
1C00
1C00
1C00
1C00
1C00
7F00
7F00
ENDCHAR
STARTCHAR 00CF
ENCODING 207
SWIDTH 324 0
DWIDTH 9 0
BBX 8 25 1 0
BITMAP
C7
C7
00
00
00
FE
FE
38
38
38
38
38
38
38
38
38
38
38
38
38
38
38
38
FE
FE
ENDCHAR
STARTCHAR 00D0
ENCODING 208
SWIDTH 720 0
DWIDTH 20 0
BBX 18 20 1 0
BITMAP
3FE000
3FF800
307E00
300F00
300700
300380
300380
300180
3001C0
FF81C0
FF81C0
3001C0
300180
300380
300380
300700
300F00
307E00
3FF800
3FE000
ENDCHAR
STARTCHAR 00D1
ENCODING 209
SWIDTH 756 0
DWIDTH 21 0
BBX 15 25 3 0
BITMAP
0F18
1FF0
10E0
0000
0000
E006
E006
F006
F806
D806
DC06
CE06
CE06
C706
C386
C386
C1C6
C0E6
C0E6
C076
C036
C03E
C01E
C00E
C00E
ENDCHAR
STARTCHAR 00D2
ENCODING 210
SWIDTH 756 0
DWIDTH 21 0
BBX 18 26 2 0
BITMAP
038000
038000
01C000
00E000
000000
000000
07F800
1FFC00
3C0F00
780700
700380
E00180
E001C0
E001C0
C001C0
C001C0
C001C0
C001C0
E001C0
E001C0
E00180
700380
700700
3C0F00
1FFE00
07F800
ENDCHAR
STARTCHAR 00D3
ENCODING 211
SWIDTH 756 0
DWIDTH 21 0
BBX 18 26 2 0
BITMAP
003800
007000
00E000
00C000
000000
000000
07F800
1FFC00
3C0F00
780700
700380
E00180
E001C0
E001C0
C001C0
C001C0
C001C0
C001C0
E001C0
E001C0
E00180
700380
700700
3C0F00
1FFE00
07F800
ENDCHAR
STARTCHAR 00D4
ENCODING 212
SWIDTH 756 0
DWIDTH 21 0
BBX 18 26 2 0
BITMAP
01E000
03E000
073000
061800
000000
000000
07F800
1FFC00
3C0F00
780700
700380
E00180
E001C0
E001C0
C001C0
C001C0
C001C0
C001C0
E001C0
E001C0
E00180
700380
700700
3C0F00
1FFE00
07F800
ENDCHAR
STARTCHAR 00D5
ENCODING 213
SWIDTH 756 0
DWIDTH 21 0
BBX 18 25 2 0
BITMAP
078C00
0FF800
087800
000000
000000
07F800
1FFC00
3C0F00
780700
700380
E00180
E001C0
E001C0
C001C0
C001C0
C001C0
C001C0
E001C0
E001C0
E00180
700380
700700
3C0F00
1FFE00
07F800
ENDCHAR
STARTCHAR 00D6
ENCODING 214
SWIDTH 756 0
DWIDTH 21 0
BBX 18 25 2 0
BITMAP
063800
073800
001000
000000
000000
07F800
1FFC00
3C0F00
780700
700380
E00180
E001C0
E001C0
C001C0
C001C0
C001C0
C001C0
E001C0
E001C0
E00180
700380
700700
3C0F00
1FFE00
07F800
ENDCHAR
STARTCHAR 00D7
ENCODING 215
SWIDTH 540 0
DWIDTH 15 0
BBX 12 12 2 4
BITMAP
4020
E070
70E0
39C0
1F80
0F00
0F00
1F80
39C0
70E0
E070
C020
ENDCHAR
STARTCHAR 00D8
ENCODING 216
SWIDTH 756 0
DWIDTH 21 0
BBX 18 21 2 0
BITMAP
07FB80
1FFF00
3C1E00
780F00
701F80
E01980
E039C0
E071C0
C061C0
C0C1C0
C1C1C0
C381C0
E301C0
E701C0
EE0180
7C0380
780700
3C0F00
3FFE00
67F800
200000
ENDCHAR
STARTCHAR 00D9
ENCODING 217
SWIDTH 720 0
DWIDTH 20 0
BBX 16 26 2 0
BITMAP
0700
0300
0180
00C0
0000
0000
E007
E007
E007
E007
E007
E007
E007
E007
E007
E007
E007
E007
E007
6007
6007
6006
700E
381C
1FFC
0FF0
ENDCHAR
STARTCHAR 00DA
ENCODING 218
SWIDTH 720 0
DWIDTH 20 0
BBX 16 26 2 0
BITMAP
0070
00E0
00C0
0180
0000
0000
E007
E007
E007
E007
E007
E007
E007
E007
E007
E007
E007
E007
E007
6007
6007
6006
700E
381C
1FFC
0FF0
ENDCHAR
STARTCHAR 00DB
ENCODING 219
SWIDTH 720 0
DWIDTH 20 0
BBX 16 26 2 0
BITMAP
03C0
03E0
0670
0C30
0000
0000
E007
E007
E007
E007
E007
E007
E007
E007
E007
E007
E007
E007
E007
6007
6007
6006
700E
381C
1FFC
0FF0
ENDCHAR
STARTCHAR 00DC
ENCODING 220
SWIDTH 720 0
DWIDTH 20 0
BBX 16 25 2 0
BITMAP
0E30
0E30
0420
0000
0000
E007
E007
E007
E007
E007
E007
E007
E007
E007
E007
E007
E007
E007
6007
6007
6006
700E
381C
1FFC
0FF0
ENDCHAR
STARTCHAR 00DD
ENCODING 221
SWIDTH 540 0
DWIDTH 15 0
BBX 16 26 0 0
BITMAP
0070
00E0
01C0
0180
0000
0000
E007
600E
700C
301C
3818
1C38
1C30
0E70
0E60
07E0
03C0
03C0
0180
0180
0180
0180
0180
0180
0180
0180
ENDCHAR
STARTCHAR 00DE
ENCODING 222
SWIDTH 576 0
DWIDTH 16 0
BBX 12 20 3 0
BITMAP
C000
C000
C000
C000
FFC0
FFE0
C0F0
C070
C030
C030
C030
C070
C070
C7E0
FFC0
FE00
C000
C000
C000
C000
ENDCHAR
STARTCHAR 00DF
ENCODING 223
SWIDTH 612 0
DWIDTH 17 0
BBX 14 21 2 0
BITMAP
1FC0
7FF0
7070
E030
E030
E070
E0E0
E1C0
E380
E380
E380
E1C0
E0F0
E078
E01C
E01C
E00C
E00C
E41C
E7FC
E7F0
ENDCHAR
STARTCHAR 00E0
ENCODING 224
SWIDTH 540 0
DWIDTH 15 0
BBX 12 21 1 0
BITMAP
0E00
0E00
0700
0380
0000
0000
1FC0
3FE0
3070
0030
0030
0030
0FF0
3FF0
7030
E030
E030
E070
E0F0
7FB0
3F30
ENDCHAR
STARTCHAR 00E1
ENCODING 225
SWIDTH 540 0
DWIDTH 15 0
BBX 12 21 1 0
BITMAP
00E0
01C0
0380
0300
0000
0000
1FC0
3FE0
3070
0030
0030
0030
0FF0
3FF0
7030
E030
E030
E070
E0F0
7FB0
3F30
ENDCHAR
STARTCHAR 00E2
ENCODING 226
SWIDTH 540 0
DWIDTH 15 0
BBX 12 21 1 0
BITMAP
0780
0F80
1CC0
3860
0000
0000
1FC0
3FE0
3070
0030
0030
0030
0FF0
3FF0
7030
E030
E030
E070
E0F0
7FB0
3F30
ENDCHAR
STARTCHAR 00E3
ENCODING 227
SWIDTH 540 0
DWIDTH 15 0
BBX 12 20 1 0
BITMAP
1E30
3FE0
21E0
0000
0000
1FC0
3FE0
3070
0030
0030
0030
0FF0
3FF0
7030
E030
E030
E070
E0F0
7FB0
3F30
ENDCHAR
STARTCHAR 00E4
ENCODING 228
SWIDTH 540 0
DWIDTH 15 0
BBX 12 20 1 0
BITMAP
18E0
18E0
0000
0000
0000
1FC0
3FE0
3070
0030
0030
0030
0FF0
3FF0
7030
E030
E030
E070
E0F0
7FB0
3F30
ENDCHAR
STARTCHAR 00E5
ENCODING 229
SWIDTH 540 0
DWIDTH 15 0
BBX 12 23 1 0
BITMAP
0300
0F80
08C0
08C0
0CC0
0780
0000
0000
1FC0
3FE0
3070
0030
0030
0030
0FF0
3FF0
7030
E030
E030
E070
E0F0
7FB0
3F30
ENDCHAR
STARTCHAR 00E6
ENCODING 230
SWIDTH 864 0
DWIDTH 24 0
BBX 22 15 1 0
BITMAP
1FC7E0
3FEFF0
207C38
007838
003018
00301C
0FFFFC
3FFFFC
707000
E07000
E07000
E07800
E0DC08
7FCFF8
3F07F0
ENDCHAR
STARTCHAR 00E7
ENCODING 231
SWIDTH 468 0
DWIDTH 13 0
BBX 10 22 2 -7
BITMAP
1FC0
3FC0
7040
E000
E000
C000
C000
C000
C000
C000
C000
E000
7000
7FC0
1FC0
0600
0400
0700
0180
0380
1F00
1C00
ENDCHAR
STARTCHAR 00E8
ENCODING 232
SWIDTH 540 0
DWIDTH 15 0
BBX 12 21 2 0
BITMAP
1C00
1C00
0E00
0700
0000
0000
1F80
3FC0
70E0
E070
C070
C030
FFF0
FFF0
C000
C000
E000
E000
7010
3FF0
1FE0
ENDCHAR
STARTCHAR 00E9
ENCODING 233
SWIDTH 540 0
DWIDTH 15 0
BBX 12 21 2 0
BITMAP
01C0
0380
0700
0600
0000
0000
1F80
3FC0
70E0
E070
C070
C030
FFF0
FFF0
C000
C000
E000
E000
7010
3FF0
1FE0
ENDCHAR
STARTCHAR 00EA
ENCODING 234
SWIDTH 540 0
DWIDTH 15 0
BBX 12 21 2 0
BITMAP
0F00
1F00
3980
30C0
0000
0000
1F80
3FC0
70E0
E070
C070
C030
FFF0
FFF0
C000
C000
E000
E000
7010
3FF0
1FE0
ENDCHAR
STARTCHAR 00EB
ENCODING 235
SWIDTH 540 0
DWIDTH 15 0
BBX 12 20 2 0
BITMAP
39C0
39C0
0000
0000
0000
1F80
3FC0
70E0
E070
C070
C030
FFF0
FFF0
C000
C000
E000
E000
7010
3FF0
1FE0
ENDCHAR
STARTCHAR 00EC
ENCODING 236
SWIDTH 252 0
DWIDTH 7 0
BBX 5 21 0 0
BITMAP
E0
70
38
18
00
00
38
38
38
38
38
38
38
38
38
38
38
38
38
38
38
ENDCHAR
STARTCHAR 00ED
ENCODING 237
SWIDTH 252 0
DWIDTH 7 0
BBX 5 21 2 0
BITMAP
38
30
70
E0
00
00
E0
E0
E0
E0
E0
E0
E0
E0
E0
E0
E0
E0
E0
E0
E0
ENDCHAR
STARTCHAR 00EE
ENCODING 238
SWIDTH 252 0
DWIDTH 7 0
BBX 9 21 -1 0
BITMAP
1C00
3E00
7700
E180
0000
0000
1C00
1C00
1C00
1C00
1C00
1C00
1C00
1C00
1C00
1C00
1C00
1C00
1C00
1C00
1C00
ENDCHAR
STARTCHAR 00EF
ENCODING 239
SWIDTH 252 0
DWIDTH 7 0
BBX 7 20 0 0
BITMAP
C6
C6
00
00
00
38
38
38
38
38
38
38
38
38
38
38
38
38
38
38
ENDCHAR
STARTCHAR 00F0
ENCODING 240
SWIDTH 576 0
DWIDTH 16 0
BBX 13 21 2 0
BITMAP
0820
1EF0
07C0
0FC0
1DC0
18E0
0070
0030
1FB8
7FF8
7078
E038
C018
C018
C018
C018
C038
E038
7070
7FE0
1FC0
ENDCHAR
STARTCHAR 00F1
ENCODING 241
SWIDTH 612 0
DWIDTH 17 0
BBX 13 20 2 0
BITMAP
1E30
3FE0
21C0
0000
0000
C7E0
FFF0
F870
F038
E038
E038
E038
E038
E038
E038
E038
E038
E038
E038
E038
ENDCHAR
STARTCHAR 00F2
ENCODING 242
SWIDTH 576 0
DWIDTH 16 0
BBX 13 21 2 0
BITMAP
1C00
0E00
0600
0300
0000
0000
1FC0
3FE0
7070
E038
E038
C018
C018
C018
C018
C018
C038
E038
7070
3FE0
1FC0
ENDCHAR
STARTCHAR 00F3
ENCODING 243
SWIDTH 576 0
DWIDTH 16 0
BBX 13 21 2 0
BITMAP
01C0
0180
0300
0600
0000
0000
1FC0
3FE0
7070
E038
E038
C018
C018
C018
C018
C018
C038
E038
7070
3FE0
1FC0
ENDCHAR
STARTCHAR 00F4
ENCODING 244
SWIDTH 576 0
DWIDTH 16 0
BBX 13 21 2 0
BITMAP
0700
0F80
1DC0
30E0
0000
0000
1FC0
3FE0
7070
E038
E038
C018
C018
C018
C018
C018
C038
E038
7070
3FE0
1FC0
ENDCHAR
STARTCHAR 00F5
ENCODING 245
SWIDTH 576 0
DWIDTH 16 0
BBX 13 20 2 0
BITMAP
3E20
3FE0
63C0
0000
0000
1FC0
3FE0
7070
E038
E038
C018
C018
C018
C018
C018
C038
E038
7070
3FE0
1FC0
ENDCHAR
STARTCHAR 00F6
ENCODING 246
SWIDTH 576 0
DWIDTH 16 0
BBX 13 20 2 0
BITMAP
18C0
18C0
0000
0000
0000
1FC0
3FE0
7070
E038
E038
C018
C018
C018
C018
C018
C038
E038
7070
3FE0
1FC0
ENDCHAR
STARTCHAR 00F7
ENCODING 247
SWIDTH 540 0
DWIDTH 15 0
BBX 13 12 1 3
BITMAP
0300
0700
0300
0000
0000
FFF8
FFF8
0000
0000
0300
0700
0700
ENDCHAR
STARTCHAR 00F8
ENCODING 248
SWIDTH 576 0
DWIDTH 16 0
BBX 13 17 2 -1
BITMAP
0010
1FB8
3FF0
7070
E0F0
E1F8
C198
C318
C718
C618
CC18
DC38
F838
7070
7FE0
FFC0
4000
ENDCHAR
STARTCHAR 00F9
ENCODING 249
SWIDTH 612 0
DWIDTH 17 0
BBX 13 21 2 0
BITMAP
1C00
0E00
0700
0300
0000
0000
E038
E038
E038
E038
E038
E038
E038
E038
E038
E038
E038
E038
7078
7FD8
3F98
ENDCHAR
STARTCHAR 00FA
ENCODING 250
SWIDTH 612 0
DWIDTH 17 0
BBX 13 21 2 0
BITMAP
01C0
0180
0380
0700
0000
0000
E038
E038
E038
E038
E038
E038
E038
E038
E038
E038
E038
E038
7078
7FD8
3F98
ENDCHAR
STARTCHAR 00FB
ENCODING 251
SWIDTH 612 0
DWIDTH 17 0
BBX 13 21 2 0
BITMAP
0700
0F80
1DC0
3860
0000
0000
E038
E038
E038
E038
E038
E038
E038
E038
E038
E038
E038
E038
7078
7FD8
3F98
ENDCHAR
STARTCHAR 00FC
ENCODING 252
SWIDTH 612 0
DWIDTH 17 0
BBX 13 20 2 0
BITMAP
18C0
18C0
0000
0000
0000
E038
E038
E038
E038
E038
E038
E038
E038
E038
E038
E038
E038
7078
7FD8
3F98
ENDCHAR
STARTCHAR 00FD
ENCODING 253
SWIDTH 504 0
DWIDTH 14 0
BBX 14 28 0 -7
BITMAP
00E0
01C0
0180
0300
0000
0000
E01C
601C
7018
7038
3038
3830
1870
1860
1C60
0CE0
0EC0
06C0
07C0
0780
0380
0300
0700
0700
0E00
1C00
FC00
6000
ENDCHAR
STARTCHAR 00FE
ENCODING 254
SWIDTH 612 0
DWIDTH 17 0
BBX 14 28 2 -7
BITMAP
E000
E000
E000
E000
E000
E000
E7C0
FFF0
F870
F038
E018
E018
E01C
E01C
E01C
E018
E018
F038
F070
FFF0
EFC0
E000
E000
E000
E000
E000
E000
E000
ENDCHAR
STARTCHAR 00FF
ENCODING 255
SWIDTH 504 0
DWIDTH 14 0
BBX 14 27 0 -7
BITMAP
1CE0
1CE0
0000
0000
0000
E01C
601C
7018
7038
3038
3830
1870
1860
1C60
0CE0
0EC0
06C0
07C0
0780
0380
0300
0700
0700
0E00
1C00
FC00
6000
ENDCHAR
STARTCHAR 0100
ENCODING 256
SWIDTH 612 0
DWIDTH 17 0
BBX 18 24 0 0
BITMAP
07F800
07F800
000000
000000
00C000
01E000
01E000
03E000
037000
033000
073000
063800
0E1800
0E1C00
0C0C00
1C0C00
1FFE00
1FFE00
380700
300700
700300
700380
600180
E001C0
ENDCHAR
STARTCHAR 0101
ENCODING 257
SWIDTH 540 0
DWIDTH 15 0
BBX 12 19 1 0
BITMAP
1FE0
1FE0
0000
0000
1FC0
3FE0
3070
0030
0030
0030
0FF0
3FF0
7030
E030
E030
E070
E0F0
7FB0
3F30
ENDCHAR
STARTCHAR 0102
ENCODING 258
SWIDTH 612 0
DWIDTH 17 0
BBX 18 26 0 0
BITMAP
0C0800
041800
07F000
03F000
000000
000000
00C000
01E000
01E000
03E000
037000
033000
073000
063800
0E1800
0E1C00
0C0C00
1C0C00
1FFE00
1FFE00
380700
300700
700300
700380
600180
E001C0
ENDCHAR
STARTCHAR 0103
ENCODING 259
SWIDTH 540 0
DWIDTH 15 0
BBX 12 21 1 0
BITMAP
3020
1060
1FC0
0F80
0000
0000
1FC0
3FE0
3070
0030
0030
0030
0FF0
3FF0
7030
E030
E030
E070
E0F0
7FB0
3F30
ENDCHAR
STARTCHAR 0104
ENCODING 260
SWIDTH 612 0
DWIDTH 17 0
BBX 18 26 0 -6
BITMAP
00C000
01E000
01E000
03E000
037000
033000
073000
063800
0E1800
0E1C00
0C0C00
1C0C00
1FFE00
1FFE00
380700
300700
700300
700380
600180
E001C0
000180
000300
000600
000600
0007C0
0003C0
ENDCHAR
STARTCHAR 0105
ENCODING 261
SWIDTH 540 0
DWIDTH 15 0
BBX 13 21 1 -6
BITMAP
1FC0
3FE0
3070
0030
0030
0030
0FF0
3FF0
7030
E030
E030
E070
E0F0
7FB0
3F30
0030
0060
0060
00C0
0078
0078
ENDCHAR
STARTCHAR 0106
ENCODING 262
SWIDTH 612 0
DWIDTH 17 0
BBX 14 26 2 0
BITMAP
0070
0070
00E0
01C0
0000
0000
07F8
0FFC
3E0C
3800
7000
E000
E000
E000
C000
C000
C000
C000
E000
E000
E000
7000
7800
3C04
1FFC
07FC
ENDCHAR
STARTCHAR 0107
ENCODING 263
SWIDTH 468 0
DWIDTH 13 0
BBX 10 21 2 0
BITMAP
01C0
0380
0700
0600
0000
0000
1FC0
3FC0
7040
E000
E000
C000
C000
C000
C000
C000
C000
E000
7000
7FC0
1FC0
ENDCHAR
STARTCHAR 0108
ENCODING 264
SWIDTH 612 0
DWIDTH 17 0
BBX 14 26 2 0
BITMAP
01C0
03E0
0770
0E38
0000
0000
07F8
0FFC
3E0C
3800
7000
E000
E000
E000
C000
C000
C000
C000
E000
E000
E000
7000
7800
3C04
1FFC
07FC
ENDCHAR
STARTCHAR 0109
ENCODING 265
SWIDTH 468 0
DWIDTH 13 0
BBX 10 21 2 0
BITMAP
0F00
1F00
3980
30C0
0000
0000
1FC0
3FC0
7040
E000
E000
C000
C000
C000
C000
C000
C000
E000
7000
7FC0
1FC0
ENDCHAR
STARTCHAR 010A
ENCODING 266
SWIDTH 612 0
DWIDTH 17 0
BBX 14 25 2 0
BITMAP
01C0
01C0
0080
0000
0000
07F8
0FFC
3E0C
3800
7000
E000
E000
E000
C000
C000
C000
C000
E000
E000
E000
7000
7800
3C04
1FFC
07FC
ENDCHAR
STARTCHAR 010B
ENCODING 267
SWIDTH 468 0
DWIDTH 13 0
BBX 10 20 2 0
BITMAP
0600
0E00
0200
0000
0000
1FC0
3FC0
7040
E000
E000
C000
C000
C000
C000
C000
C000
E000
7000
7FC0
1FC0
ENDCHAR
STARTCHAR 010C
ENCODING 268
SWIDTH 612 0
DWIDTH 17 0
BBX 14 26 2 0
BITMAP
0E18
0770
03E0
01C0
0000
0000
07F8
0FFC
3E0C
3800
7000
E000
E000
E000
C000
C000
C000
C000
E000
E000
E000
7000
7800
3C04
1FFC
07FC
ENDCHAR
STARTCHAR 010D
ENCODING 269
SWIDTH 468 0
DWIDTH 13 0
BBX 10 21 2 0
BITMAP
30C0
3980
1F00
0F00
0000
0000
1FC0
3FC0
7040
E000
E000
C000
C000
C000
C000
C000
C000
E000
7000
7FC0
1FC0
ENDCHAR
STARTCHAR 010E
ENCODING 270
SWIDTH 720 0
DWIDTH 20 0
BBX 16 26 3 0
BITMAP
1860
0CC0
0FC0
0780
0000
0000
FF80
FFE0
C1F8
C03C
C01C
C00E
C00E
C006
C007
C007
C007
C007
C006
C00E
C00E
C01C
C03C
C1F8
FFE0
FF80
ENDCHAR
STARTCHAR 010F
ENCODING 271
SWIDTH 612 0
DWIDTH 17 0
BBX 17 21 2 0
BITMAP
003980
003B80
003B00
003B00
003800
003800
1FB800
7FF800
707800
E07800
E03800
C03800
C03800
C03800
C03800
C03800
C03800
E03800
707800
7FF800
3F9800
ENDCHAR
STARTCHAR 0110
ENCODING 272
SWIDTH 720 0
DWIDTH 20 0
BBX 18 20 1 0
BITMAP
3FE000
3FF800
307E00
300F00
300700
300380
300380
300180
3001C0
FF81C0
FF81C0
3001C0
300180
300380
300380
300700
300F00
307E00
3FF800
3FE000
ENDCHAR
STARTCHAR 0111
ENCODING 273
SWIDTH 612 0
DWIDTH 17 0
BBX 15 21 2 0
BITMAP
0038
0038
0FFE
0FFE
0038
0038
1F38
3FF8
70F8
E078
E038
C038
C038
C038
C038
C038
C038
E038
7078
7FF8
3F98
ENDCHAR
STARTCHAR 0112
ENCODING 274
SWIDTH 540 0
DWIDTH 15 0
BBX 11 24 3 0
BITMAP
7FC0
7FC0
0000
0000
FFE0
FFE0
C000
C000
C000
C000
C000
C000
C000
FFC0
FFC0
C000
C000
C000
C000
C000
C000
C000
FFE0
FFE0
ENDCHAR
STARTCHAR 0113
ENCODING 275
SWIDTH 540 0
DWIDTH 15 0
BBX 12 19 2 0
BITMAP
3FC0
3FC0
0000
0000
1F80
3FC0
70E0
E070
C070
C030
FFF0
FFF0
C000
C000
E000
E000
7010
3FF0
1FE0
ENDCHAR
STARTCHAR 0114
ENCODING 276
SWIDTH 540 0
DWIDTH 15 0
BBX 11 26 3 0
BITMAP
60C0
60C0
3F80
1F00
0000
0000
FFE0
FFE0
C000
C000
C000
C000
C000
C000
C000
FFC0
FFC0
C000
C000
C000
C000
C000
C000
C000
FFE0
FFE0
ENDCHAR
STARTCHAR 0115
ENCODING 277
SWIDTH 540 0
DWIDTH 15 0
BBX 12 21 2 0
BITMAP
2040
20C0
3FC0
1F00
0000
0000
1F80
3FC0
70E0
E070
C070
C030
FFF0
FFF0
C000
C000
E000
E000
7010
3FF0
1FE0
ENDCHAR
STARTCHAR 0116
ENCODING 278
SWIDTH 540 0
DWIDTH 15 0
BBX 11 25 3 0
BITMAP
0E00
0E00
0400
0000
0000
FFE0
FFE0
C000
C000
C000
C000
C000
C000
C000
FFC0
FFC0
C000
C000
C000
C000
C000
C000
C000
FFE0
FFE0
ENDCHAR
STARTCHAR 0117
ENCODING 279
SWIDTH 540 0
DWIDTH 15 0
BBX 12 20 2 0
BITMAP
0600
0600
0000
0000
0000
1F80
3FC0
70E0
E070
C070
C030
FFF0
FFF0
C000
C000
E000
E000
7010
3FF0
1FE0
ENDCHAR
STARTCHAR 0118
ENCODING 280
SWIDTH 540 0
DWIDTH 15 0
BBX 11 26 3 -6
BITMAP
FFE0
FFE0
C000
C000
C000
C000
C000
C000
C000
FFC0
FFC0
C000
C000
C000
C000
C000
C000
C000
FFE0
FFE0
0080
0180
0300
0300
03E0
01E0
ENDCHAR
STARTCHAR 0119
ENCODING 281
SWIDTH 540 0
DWIDTH 15 0
BBX 12 21 2 -6
BITMAP
1F80
3FC0
70E0
E070
C070
C030
FFF0
FFF0
C000
C000
E000
E000
7010
3FF0
1FE0
00C0
0180
0180
0180
01E0
00E0
ENDCHAR
STARTCHAR 011A
ENCODING 282
SWIDTH 540 0
DWIDTH 15 0
BBX 11 26 3 0
BITMAP
61C0
3B80
1F00
0E00
0000
0000
FFE0
FFE0
C000
C000
C000
C000
C000
C000
C000
FFC0
FFC0
C000
C000
C000
C000
C000
C000
C000
FFE0
FFE0
ENDCHAR
STARTCHAR 011B
ENCODING 283
SWIDTH 540 0
DWIDTH 15 0
BBX 12 21 2 0
BITMAP
30C0
1980
1F00
0F00
0000
0000
1F80
3FC0
70E0
E070
C070
C030
FFF0
FFF0
C000
C000
E000
E000
7010
3FF0
1FE0
ENDCHAR
STARTCHAR 011C
ENCODING 284
SWIDTH 720 0
DWIDTH 20 0
BBX 16 26 2 0
BITMAP
01E0
01F0
0338
061C
0000
0000
03FC
0FFF
1E06
3800
7000
6000
E000
E000
C000
C000
C07F
C07F
E003
E003
E003
7003
7803
3C03
1FFF
07FE
ENDCHAR
STARTCHAR 011D
ENCODING 285
SWIDTH 612 0
DWIDTH 17 0
BBX 13 28 2 -7
BITMAP
0F00
0F80
19C0
30E0
0000
0000
1F98
3FD8
70F8
E078
E038
C038
C038
C038
C038
C038
C038
E038
7078
7FF8
1FB8
0038
0038
0030
0070
79F0
7FE0
0E00
ENDCHAR
STARTCHAR 011E
ENCODING 286
SWIDTH 720 0
DWIDTH 20 0
BBX 16 26 2 0
BITMAP
040C
0608
03F8
03F0
0000
0000
03FC
0FFF
1E06
3800
7000
6000
E000
E000
C000
C000
C07F
C07F
E003
E003
E003
7003
7803
3C03
1FFF
07FE
ENDCHAR
STARTCHAR 011F
ENCODING 287
SWIDTH 612 0
DWIDTH 17 0
BBX 13 28 2 -7
BITMAP
2060
3040
1FC0
1F80
0000
0000
1F98
3FD8
70F8
E078
E038
C038
C038
C038
C038
C038
C038
E038
7078
7FF8
1FB8
0038
0038
0030
0070
79F0
7FE0
0E00
ENDCHAR
STARTCHAR 0120
ENCODING 288
SWIDTH 720 0
DWIDTH 20 0
BBX 16 25 2 0
BITMAP
00E0
00E0
0040
0000
0000
03FC
0FFF
1E06
3800
7000
6000
E000
E000
C000
C000
C07F
C07F
E003
E003
E003
7003
7803
3C03
1FFF
07FE
ENDCHAR
STARTCHAR 0121
ENCODING 289
SWIDTH 612 0
DWIDTH 17 0
BBX 13 27 2 -7
BITMAP
0700
0700
0200
0000
0000
1F98
3FD8
70F8
E078
E038
C038
C038
C038
C038
C038
C038
E038
7078
7FF8
1FB8
0038
0038
0030
0070
79F0
7FE0
0E00
ENDCHAR
STARTCHAR 0122
ENCODING 290
SWIDTH 720 0
DWIDTH 20 0
BBX 16 26 2 -6
BITMAP
03FC
0FFF
1E06
3800
7000
6000
E000
E000
C000
C000
C07F
C07F
E003
E003
E003
7003
7803
3C03
1FFF
07FE
0000
0000
00E0
00C0
00C0
0080
ENDCHAR
STARTCHAR 0123
ENCODING 291
SWIDTH 612 0
DWIDTH 17 0
BBX 13 28 2 -7
BITMAP
0300
0300
0600
0600
0000
0000
1F98
3FD8
70F8
E078
E038
C038
C038
C038
C038
C038
C038
E038
7078
7FF8
1FB8
0038
0038
0030
0070
79F0
7FE0
0E00
ENDCHAR
STARTCHAR 0124
ENCODING 292
SWIDTH 720 0
DWIDTH 20 0
BBX 15 26 3 0
BITMAP
0380
07C0
0CE0
1870
0000
0000
C00E
C00E
C00E
C00E
C00E
C00E
C00E
C00E
C00E
FFFE
FFFE
C00E
C00E
C00E
C00E
C00E
C00E
C00E
C00E
C00E
ENDCHAR
STARTCHAR 0125
ENCODING 293
SWIDTH 612 0
DWIDTH 17 0
BBX 16 28 -1 0
BITMAP
1C00
1E00
3E00
6300
C180
0000
0000
1C00
1C00
1C00
1C00
1C00
1C00
1CFC
1FFE
1F0E
1E07
1C07
1C07
1C07
1C07
1C07
1C07
1C07
1C07
1C07
1C07
1C07
ENDCHAR
STARTCHAR 0126
ENCODING 294
SWIDTH 720 0
DWIDTH 20 0
BBX 21 20 0 0
BITMAP
1801C0
1801C0
1801C0
FFFFF8
FFFFF8
1801C0
1801C0
1801C0
1801C0
1FFFC0
1FFFC0
1801C0
1801C0
1801C0
1801C0
1801C0
1801C0
1801C0
1801C0
1801C0
ENDCHAR
STARTCHAR 0127
ENCODING 295
SWIDTH 612 0
DWIDTH 17 0
BBX 15 21 0 0
BITMAP
3800
3800
FFE0
FFE0
3800
3800
3840
3BF8
3FBC
3C0E
380E
380E
380E
380E
380E
380E
380E
380E
380E
380E
380E
ENDCHAR
STARTCHAR 0128
ENCODING 296
SWIDTH 324 0
DWIDTH 9 0
BBX 10 25 0 0
BITMAP
78C0
FF80
8780
0000
0000
7F00
7F00
1C00
1C00
1C00
1C00
1C00
1C00
1C00
1C00
1C00
1C00
1C00
1C00
1C00
1C00
1C00
1C00
7F00
7F00
ENDCHAR
STARTCHAR 0129
ENCODING 297
SWIDTH 252 0
DWIDTH 7 0
BBX 10 20 -1 0
BITMAP
78C0
FF80
8700
0000
0000
1C00
1C00
1C00
1C00
1C00
1C00
1C00
1C00
1C00
1C00
1C00
1C00
1C00
1C00
1C00
ENDCHAR
STARTCHAR 012A
ENCODING 298
SWIDTH 324 0
DWIDTH 9 0
BBX 8 24 1 0
BITMAP
FF
FF
00
00
FE
FE
38
38
38
38
38
38
38
38
38
38
38
38
38
38
38
38
FE
FE
ENDCHAR
STARTCHAR 012B
ENCODING 299
SWIDTH 252 0
DWIDTH 7 0
BBX 9 19 -1 0
BITMAP
FF80
FF80
0000
0000
1C00
1C00
1C00
1C00
1C00
1C00
1C00
1C00
1C00
1C00
1C00
1C00
1C00
1C00
1C00
ENDCHAR
STARTCHAR 012C
ENCODING 300
SWIDTH 324 0
DWIDTH 9 0
BBX 9 26 0 0
BITMAP
C180
4180
7F00
3E00
0000
0000
7F00
7F00
1C00
1C00
1C00
1C00
1C00
1C00
1C00
1C00
1C00
1C00
1C00
1C00
1C00
1C00
1C00
1C00
7F00
7F00
ENDCHAR
STARTCHAR 012D
ENCODING 301
SWIDTH 252 0
DWIDTH 7 0
BBX 9 21 -1 0
BITMAP
C180
C180
7F00
3E00
0000
0000
1C00
1C00
1C00
1C00
1C00
1C00
1C00
1C00
1C00
1C00
1C00
1C00
1C00
1C00
1C00
ENDCHAR
STARTCHAR 012E
ENCODING 302
SWIDTH 324 0
DWIDTH 9 0
BBX 7 26 1 -6
BITMAP
FE
FE
38
38
38
38
38
38
38
38
38
38
38
38
38
38
38
38
FE
FE
0C
18
18
18
1E
1E
ENDCHAR
STARTCHAR 012F
ENCODING 303
SWIDTH 252 0
DWIDTH 7 0
BBX 4 26 1 -6
BITMAP
70
70
20
00
00
70
70
70
70
70
70
70
70
70
70
70
70
70
70
70
60
C0
C0
C0
F0
70
ENDCHAR
STARTCHAR 0130
ENCODING 304
SWIDTH 324 0
DWIDTH 9 0
BBX 7 25 1 0
BITMAP
38
38
10
00
00
FE
FE
38
38
38
38
38
38
38
38
38
38
38
38
38
38
38
38
FE
FE
ENDCHAR
STARTCHAR 0131
ENCODING 305
SWIDTH 252 0
DWIDTH 7 0
BBX 3 15 2 0
BITMAP
E0
E0
E0
E0
E0
E0
E0
E0
E0
E0
E0
E0
E0
E0
E0
ENDCHAR
STARTCHAR 0132
ENCODING 306
SWIDTH 612 0
DWIDTH 17 0
BBX 13 25 1 -5
BITMAP
FE18
FE18
3818
3818
3818
3818
3818
3818
3818
3818
3818
3818
3818
3818
3818
3818
3818
3818
FE18
FE18
0018
0018
0038
03F0
03E0
ENDCHAR
STARTCHAR 0133
ENCODING 307
SWIDTH 504 0
DWIDTH 14 0
BBX 10 27 2 -7
BITMAP
E1C0
E1C0
4080
0000
0000
E0C0
E0C0
E0C0
E0C0
E0C0
E0C0
E0C0
E0C0
E0C0
E0C0
E0C0
E0C0
E0C0
E0C0
E0C0
00C0
00C0
00C0
01C0
03C0
0F80
0E00
ENDCHAR
STARTCHAR 0134
ENCODING 308
SWIDTH 252 0
DWIDTH 7 0
BBX 10 31 -2 -5
BITMAP
0E00
1F00
3980
70C0
0000
0000
0600
0600
0600
0600
0600
0600
0600
0600
0600
0600
0600
0600
0600
0600
0600
0600
0600
0600
0600
0600
0600
0E00
0E00
FC00
F800
ENDCHAR
STARTCHAR 0135
ENCODING 309
SWIDTH 252 0
DWIDTH 7 0
BBX 10 28 -2 -7
BITMAP
0E00
1F00
3B80
70C0
0000
0000
0E00
0E00
0E00
0E00
0E00
0E00
0E00
0E00
0E00
0E00
0E00
0E00
0E00
0E00
0E00
0E00
0E00
0E00
0E00
9C00
FC00
7000
ENDCHAR
STARTCHAR 0136
ENCODING 310
SWIDTH 612 0
DWIDTH 17 0
BBX 14 26 3 -6
BITMAP
C01C
C038
C070
C0E0
C1C0
C380
C700
CE00
DC00
DE00
FE00
E700
C380
C380
C1C0
C0E0
C070
C070
C038
C01C
0000
0000
0700
0600
0600
0400
ENDCHAR
STARTCHAR 0137
ENCODING 311
SWIDTH 504 0
DWIDTH 14 0
BBX 12 27 2 -6
BITMAP
E000
E000
E000
E000
E000
E000
E070
E0E0
E1C0
E380
E700
EE00
FC00
FE00
F700
E300
E380
E1C0
E0E0
E060
E070
0000
0000
0600
0E00
0C00
0800
ENDCHAR
STARTCHAR 0138
ENCODING 312
SWIDTH 504 0
DWIDTH 14 0
BBX 12 15 2 0
BITMAP
E070
E0E0
E1C0
E380
E700
E700
EE00
FE00
FF00
E380
E380
E1C0
E0E0
E060
E070
ENDCHAR
STARTCHAR 0139
ENCODING 313
SWIDTH 504 0
DWIDTH 14 0
BBX 11 26 3 0
BITMAP
3800
7000
E000
C000
0000
0000
C000
C000
C000
C000
C000
C000
C000
C000
C000
C000
C000
C000
C000
C000
C000
C000
C000
C000
FFE0
FFE0
ENDCHAR
STARTCHAR 013A
ENCODING 314
SWIDTH 252 0
DWIDTH 7 0
BBX 6 28 2 0
BITMAP
1C
38
30
60
C0
00
00
E0
E0
E0
E0
E0
E0
E0
E0
E0
E0
E0
E0
E0
E0
E0
E0
E0
E0
E0
E0
E0
ENDCHAR
STARTCHAR 013B
ENCODING 315
SWIDTH 504 0
DWIDTH 14 0
BBX 11 26 3 -6
BITMAP
C000
C000
C000
C000
C000
C000
C000
C000
C000
C000
C000
C000
C000
C000
C000
C000
C000
C000
FFE0
FFE0
0000
0000
0600
0E00
0C00
0800
ENDCHAR
STARTCHAR 013C
ENCODING 316
SWIDTH 252 0
DWIDTH 7 0
BBX 3 27 2 -6
BITMAP
E0
E0
E0
E0
E0
E0
E0
E0
E0
E0
E0
E0
E0
E0
E0
E0
E0
E0
E0
E0
E0
00
00
60
60
C0
C0
ENDCHAR
STARTCHAR 013D
ENCODING 317
SWIDTH 504 0
DWIDTH 14 0
BBX 11 20 3 0
BITMAP
C0E0
C0E0
C0C0
C0C0
C080
C000
C000
C000
C000
C000
C000
C000
C000
C000
C000
C000
C000
C000
FFE0
FFE0
ENDCHAR
STARTCHAR 013E
ENCODING 318
SWIDTH 252 0
DWIDTH 7 0
BBX 7 21 2 0
BITMAP
E6
E6
EC
EC
E0
E0
E0
E0
E0
E0
E0
E0
E0
E0
E0
E0
E0
E0
E0
E0
E0
ENDCHAR
STARTCHAR 013F
ENCODING 319
SWIDTH 504 0
DWIDTH 14 0
BBX 11 20 3 0
BITMAP
C000
C000
C000
C000
C000
C000
C000
C000
C000
C380
C380
C100
C000
C000
C000
C000
C000
C000
FFE0
FFE0
ENDCHAR
STARTCHAR 0140
ENCODING 320
SWIDTH 252 0
DWIDTH 7 0
BBX 7 21 2 0
BITMAP
E0
E0
E0
E0
E0
E0
E0
E0
E0
EC
EE
EC
E0
E0
E0
E0
E0
E0
E0
E0
E0
ENDCHAR
STARTCHAR 0141
ENCODING 321
SWIDTH 504 0
DWIDTH 14 0
BBX 14 20 0 0
BITMAP
1800
1800
1800
1800
1800
1800
1800
1880
19C0
1F80
1E00
3C00
F800
5800
1800
1800
1800
1800
1FFC
1FFC
ENDCHAR
STARTCHAR 0142
ENCODING 322
SWIDTH 252 0
DWIDTH 7 0
BBX 7 21 0 0
BITMAP
38
38
38
38
38
38
38
38
3A
3E
3C
78
F8
F8
38
38
38
38
38
38
38
ENDCHAR
STARTCHAR 0143
ENCODING 323
SWIDTH 756 0
DWIDTH 21 0
BBX 15 26 3 0
BITMAP
00E0
00E0
01C0
0380
0000
0000
E006
E006
F006
F806
D806
DC06
CE06
CE06
C706
C386
C386
C1C6
C0E6
C0E6
C076
C036
C03E
C01E
C00E
C00E
ENDCHAR
STARTCHAR 0144
ENCODING 324
SWIDTH 612 0
DWIDTH 17 0
BBX 13 21 2 0
BITMAP
01C0
0180
0380
0700
0000
0000
C7E0
FFF0
F870
F038
E038
E038
E038
E038
E038
E038
E038
E038
E038
E038
E038
ENDCHAR
STARTCHAR 0145
ENCODING 325
SWIDTH 756 0
DWIDTH 21 0
BBX 15 26 3 -6
BITMAP
E006
E006
F006
F806
D806
DC06
CE06
CE06
C706
C386
C386
C1C6
C0E6
C0E6
C076
C036
C03E
C01E
C00E
C00E
0000
0000
0180
0180
0300
0300
ENDCHAR
STARTCHAR 0146
ENCODING 326
SWIDTH 612 0
DWIDTH 17 0
BBX 13 21 2 -6
BITMAP
C7E0
FFF0
F870
F038
E038
E038
E038
E038
E038
E038
E038
E038
E038
E038
E038
0000
0000
0300
0300
0600
0600
ENDCHAR
STARTCHAR 0147
ENCODING 327
SWIDTH 756 0
DWIDTH 21 0
BBX 15 26 3 0
BITMAP
1C30
0EE0
07C0
0380
0000
0000
E006
E006
F006
F806
D806
DC06
CE06
CE06
C706
C386
C386
C1C6
C0E6
C0E6
C076
C036
C03E
C01E
C00E
C00E
ENDCHAR
STARTCHAR 0148
ENCODING 328
SWIDTH 612 0
DWIDTH 17 0
BBX 13 21 2 0
BITMAP
38E0
1DC0
0F80
0700
0000
0000
C7E0
FFF0
F870
F038
E038
E038
E038
E038
E038
E038
E038
E038
E038
E038
E038
ENDCHAR
STARTCHAR 0149
ENCODING 329
SWIDTH 684 0
DWIDTH 19 0
BBX 17 20 0 0
BITMAP
700000
700000
700000
600000
600000
CC7E00
CFFF00
0F8700
0F0380
0E0380
0E0380
0E0380
0E0380
0E0380
0E0380
0E0380
0E0380
0E0380
0E0380
0E0380
ENDCHAR
STARTCHAR 014A
ENCODING 330
SWIDTH 756 0
DWIDTH 21 0
BBX 15 25 3 -5
BITMAP
E006
E006
F006
F806
D806
DC06
CE06
C606
C706
C386
C186
C1C6
C0E6
C066
C076
C03E
C01E
C01E
C00E
C006
0006
0006
000E
00FC
00F8
ENDCHAR
STARTCHAR 014B
ENCODING 331
SWIDTH 612 0
DWIDTH 17 0
BBX 13 22 2 -7
BITMAP
C7E0
FFF0
F870
F038
E038
E038
E038
E038
E038
E038
E038
E038
E038
E038
E038
0038
0038
0038
0038
0178
01F0
01C0
ENDCHAR
STARTCHAR 014C
ENCODING 332
SWIDTH 756 0
DWIDTH 21 0
BBX 18 24 2 0
BITMAP
07F800
07F800
000000
000000
07F800
1FFC00
3C0F00
780700
700380
E00180
E001C0
E001C0
C001C0
C001C0
C001C0
C001C0
E001C0
E001C0
E00180
700380
700700
3C0F00
1FFE00
07F800
ENDCHAR
STARTCHAR 014D
ENCODING 333
SWIDTH 576 0
DWIDTH 16 0
BBX 13 19 2 0
BITMAP
3FE0
3FE0
0000
0000
1FC0
3FE0
7070
E038
E038
C018
C018
C018
C018
C018
C038
E038
7070
3FE0
1FC0
ENDCHAR
STARTCHAR 014E
ENCODING 334
SWIDTH 756 0
DWIDTH 21 0
BBX 18 26 2 0
BITMAP
040800
041800
07F800
03E000
000000
000000
07F800
1FFC00
3C0F00
780700
700380
E00180
E001C0
E001C0
C001C0
C001C0
C001C0
C001C0
E001C0
E001C0
E00180
700380
700700
3C0F00
1FFE00
07F800
ENDCHAR
STARTCHAR 014F
ENCODING 335
SWIDTH 576 0
DWIDTH 16 0
BBX 13 21 2 0
BITMAP
3060
3060
1FC0
0F80
0000
0000
1FC0
3FE0
7070
E038
E038
C018
C018
C018
C018
C018
C038
E038
7070
3FE0
1FC0
ENDCHAR
STARTCHAR 0150
ENCODING 336
SWIDTH 756 0
DWIDTH 21 0
BBX 18 26 2 0
BITMAP
039C00
073800
063000
0C6000
000000
000000
07F800
1FFC00
3C0F00
780700
700380
E00180
E001C0
E001C0
C001C0
C001C0
C001C0
C001C0
E001C0
E001C0
E00180
700380
700700
3C0F00
1FFE00
07F800
ENDCHAR
STARTCHAR 0151
ENCODING 337
SWIDTH 576 0
DWIDTH 16 0
BBX 13 21 2 0
BITMAP
1CE0
18C0
3980
3100
0000
0000
1FC0
3FE0
7070
E038
E038
C018
C018
C018
C018
C018
C038
E038
7070
3FE0
1FC0
ENDCHAR
STARTCHAR 0152
ENCODING 338
SWIDTH 900 0
DWIDTH 25 0
BBX 22 20 2 0
BITMAP
07FFFC
1FFFFC
3C0C00
780C00
700C00
E00C00
E00C00
E00C00
E00C00
C00FFC
C00FFC
C00C00
C00C00
E00C00
E00C00
700C00
700C00
3C0C00
1FFFFC
07FFFC
ENDCHAR
STARTCHAR 0153
ENCODING 339
SWIDTH 936 0
DWIDTH 26 0
BBX 24 15 1 0
BITMAP
0FC1F8
1FF3FC
38770E
703E06
601C07
601C07
601FFF
E01FFF
601C00
601C00
601C00
701E00
383F02
1FF3FE
0FC1FE
ENDCHAR
STARTCHAR 0154
ENCODING 340
SWIDTH 612 0
DWIDTH 17 0
BBX 14 26 3 0
BITMAP
0380
0380
0700
0E00
0000
0000
FF00
FFE0
C1E0
C070
C030
C030
C030
C030
C070
C1E0
FFC0
FF80
C180
C1C0
C0E0
C0E0
C070
C070
C038
C01C
ENDCHAR
STARTCHAR 0155
ENCODING 341
SWIDTH 396 0
DWIDTH 11 0
BBX 9 21 2 0
BITMAP
0700
0700
0E00
1C00
0000
0000
C780
EF80
F800
F000
E000
E000
E000
E000
E000
E000
E000
E000
E000
E000
E000
ENDCHAR
STARTCHAR 0156
ENCODING 342
SWIDTH 612 0
DWIDTH 17 0
BBX 14 26 3 -6
BITMAP
FF00
FFE0
C1E0
C070
C030
C030
C030
C030
C070
C1E0
FFC0
FF80
C180
C1C0
C0E0
C0E0
C070
C070
C038
C01C
0000
0000
0700
0600
0600
0C00
ENDCHAR
STARTCHAR 0157
ENCODING 343
SWIDTH 396 0
DWIDTH 11 0
BBX 9 21 2 -6
BITMAP
C780
EF80
F800
F000
E000
E000
E000
E000
E000
E000
E000
E000
E000
E000
E000
0000
0000
6000
E000
C000
C000
ENDCHAR
STARTCHAR 0158
ENCODING 344
SWIDTH 612 0
DWIDTH 17 0
BBX 14 26 3 0
BITMAP
70C0
3B80
1F00
0E00
0000
0000
FF00
FFE0
C1E0
C070
C030
C030
C030
C030
C070
C1E0
FFC0
FF80
C180
C1C0
C0E0
C0E0
C070
C070
C038
C01C
ENDCHAR
STARTCHAR 0159
ENCODING 345
SWIDTH 396 0
DWIDTH 11 0
BBX 9 21 2 0
BITMAP
E180
7700
3E00
1C00
0000
0000
C780
EF80
F800
F000
E000
E000
E000
E000
E000
E000
E000
E000
E000
E000
E000
ENDCHAR
STARTCHAR 015A
ENCODING 346
SWIDTH 540 0
DWIDTH 15 0
BBX 13 26 1 0
BITMAP
00E0
01C0
0380
0300
0000
0000
0FE0
3FF0
7830
7000
6000
6000
7000
7000
3C00
1F80
07E0
01F0
0078
0038
0038
0038
0038
C070
FFE0
7FC0
ENDCHAR
STARTCHAR 015B
ENCODING 347
SWIDTH 468 0
DWIDTH 13 0
BBX 11 21 1 0
BITMAP
0380
0380
0700
0E00
0000
0000
1FC0
7FC0
6040
E000
E000
7000
3E00
1F80
03C0
00E0
0060
0060
80E0
FFC0
7F80
ENDCHAR
STARTCHAR 015C
ENCODING 348
SWIDTH 540 0
DWIDTH 15 0
BBX 13 26 1 0
BITMAP
0780
0F80
1CC0
1860
0000
0000
0FE0
3FF0
7830
7000
6000
6000
7000
7000
3C00
1F80
07E0
01F0
0078
0038
0038
0038
0038
C070
FFE0
7FC0
ENDCHAR
STARTCHAR 015D
ENCODING 349
SWIDTH 468 0
DWIDTH 13 0
BBX 11 21 1 0
BITMAP
0E00
1F00
3B80
70C0
0000
0000
1FC0
7FC0
6040
E000
E000
7000
3E00
1F80
03C0
00E0
0060
0060
80E0
FFC0
7F80
ENDCHAR
STARTCHAR 015E
ENCODING 350
SWIDTH 540 0
DWIDTH 15 0
BBX 13 27 1 -7
BITMAP
0FE0
3FF0
7830
7000
6000
6000
7000
7000
3C00
1F80
07E0
01F0
0078
0038
0038
0038
0038
C070
FFE0
7FC0
0600
0600
0700
0180
0180
1F00
1C00
ENDCHAR
STARTCHAR 015F
ENCODING 351
SWIDTH 468 0
DWIDTH 13 0
BBX 11 22 1 -7
BITMAP
1FC0
7FC0
6040
E000
E000
7000
3E00
1F80
03C0
00E0
0060
0060
80E0
FFC0
7F80
0400
0C00
0F00
0300
0300
1F00
1C00
ENDCHAR
STARTCHAR 0160
ENCODING 352
SWIDTH 540 0
DWIDTH 15 0
BBX 13 26 1 0
BITMAP
1860
1CC0
0F80
0780
0000
0000
0FE0
3FF0
7830
7000
6000
6000
7000
7000
3C00
1F80
07E0
01F0
0078
0038
0038
0038
0038
C070
FFE0
7FC0
ENDCHAR
STARTCHAR 0161
ENCODING 353
SWIDTH 468 0
DWIDTH 13 0
BBX 11 21 1 0
BITMAP
70C0
3B80
1F00
0E00
0000
0000
1FC0
7FC0
6040
E000
E000
7000
3E00
1F80
03C0
00E0
0060
0060
80E0
FFC0
7F80
ENDCHAR
STARTCHAR 0162
ENCODING 354
SWIDTH 540 0
DWIDTH 15 0
BBX 15 27 0 -7
BITMAP
FFFE
FFFE
0380
0380
0380
0380
0380
0380
0380
0380
0380
0380
0380
0380
0380
0380
0380
0380
0380
0380
0180
0300
03C0
00E0
00C0
07C0
0700
ENDCHAR
STARTCHAR 0163
ENCODING 355
SWIDTH 360 0
DWIDTH 10 0
BBX 9 25 0 -7
BITMAP
1800
1800
1800
7F80
FF80
1800
1800
1800
1800
1800
1800
1800
1800
1800
1800
1C00
1F80
0F80
0600
0400
0700
0180
0180
1F00
1C00
ENDCHAR
STARTCHAR 0164
ENCODING 356
SWIDTH 540 0
DWIDTH 15 0
BBX 15 26 0 0
BITMAP
1C30
0E60
07C0
0380
0000
0000
FFFE
FFFE
0380
0380
0380
0380
0380
0380
0380
0380
0380
0380
0380
0380
0380
0380
0380
0380
0380
0380
ENDCHAR
STARTCHAR 0165
ENCODING 357
SWIDTH 360 0
DWIDTH 10 0
BBX 13 21 0 0
BITMAP
0018
0038
0030
1830
1800
1800
7F80
FF80
1800
1800
1800
1800
1800
1800
1800
1800
1800
1800
1C00
1F80
0F80
ENDCHAR
STARTCHAR 0166
ENCODING 358
SWIDTH 540 0
DWIDTH 15 0
BBX 15 20 0 0
BITMAP
FFFE
FFFE
0380
0380
0380
0380
0380
0380
0380
3FF8
3FF8
0380
0380
0380
0380
0380
0380
0380
0380
0380
ENDCHAR
STARTCHAR 0167
ENCODING 359
SWIDTH 360 0
DWIDTH 10 0
BBX 9 18 0 0
BITMAP
1800
1800
1800
7F80
FF80
1800
1800
1800
7F80
7F80
1800
1800
1800
1800
1800
1C00
1F80
0F80
ENDCHAR
STARTCHAR 0168
ENCODING 360
SWIDTH 720 0
DWIDTH 20 0
BBX 16 25 2 0
BITMAP
0F08
1FF8
18F0
0000
0000
E007
E007
E007
E007
E007
E007
E007
E007
E007
E007
E007
E007
E007
6007
6007
6006
700E
381C
1FFC
0FF0
ENDCHAR
STARTCHAR 0169
ENCODING 361
SWIDTH 612 0
DWIDTH 17 0
BBX 13 20 2 0
BITMAP
1E30
3FE0
21C0
0000
0000
E038
E038
E038
E038
E038
E038
E038
E038
E038
E038
E038
E038
7078
7FD8
3F98
ENDCHAR
STARTCHAR 016A
ENCODING 362
SWIDTH 720 0
DWIDTH 20 0
BBX 16 24 2 0
BITMAP
0FF0
0FF0
0000
0000
E007
E007
E007
E007
E007
E007
E007
E007
E007
E007
E007
E007
E007
6007
6007
6006
700E
381C
1FFC
0FF0
ENDCHAR
STARTCHAR 016B
ENCODING 363
SWIDTH 612 0
DWIDTH 17 0
BBX 13 19 2 0
BITMAP
3FE0
3FE0
0000
0000
E038
E038
E038
E038
E038
E038
E038
E038
E038
E038
E038
E038
7078
7FD8
3F98
ENDCHAR
STARTCHAR 016C
ENCODING 364
SWIDTH 720 0
DWIDTH 20 0
BBX 16 26 2 0
BITMAP
0810
0C10
0FF0
07E0
0000
0000
E007
E007
E007
E007
E007
E007
E007
E007
E007
E007
E007
E007
E007
6007
6007
6006
700E
381C
1FFC
0FF0
ENDCHAR
STARTCHAR 016D
ENCODING 365
SWIDTH 612 0
DWIDTH 17 0
BBX 13 21 2 0
BITMAP
3060
3060
1FC0
0F80
0000
0000
E038
E038
E038
E038
E038
E038
E038
E038
E038
E038
E038
E038
7078
7FD8
3F98
ENDCHAR
STARTCHAR 016E
ENCODING 366
SWIDTH 720 0
DWIDTH 20 0
BBX 16 28 2 0
BITMAP
0180
03E0
0620
0620
0660
03C0
0000
0000
E007
E007
E007
E007
E007
E007
E007
E007
E007
E007
E007
E007
E007
6007
6007
6006
700E
381C
1FFC
0FF0
ENDCHAR
STARTCHAR 016F
ENCODING 367
SWIDTH 612 0
DWIDTH 17 0
BBX 13 23 2 0
BITMAP
0700
0F80
08C0
08C0
0D80
0F80
0000
0000
E038
E038
E038
E038
E038
E038
E038
E038
E038
E038
E038
E038
7078
7FD8
3F98
ENDCHAR
STARTCHAR 0170
ENCODING 368
SWIDTH 720 0
DWIDTH 20 0
BBX 16 26 2 0
BITMAP
0738
0630
0C60
18C0
0000
0000
E007
E007
E007
E007
E007
E007
E007
E007
E007
E007
E007
E007
E007
6007
6007
6006
700E
381C
1FFC
0FF0
ENDCHAR
STARTCHAR 0171
ENCODING 369
SWIDTH 612 0
DWIDTH 17 0
BBX 13 21 2 0
BITMAP
0CE0
1CC0
39C0
3180
0000
0000
E038
E038
E038
E038
E038
E038
E038
E038
E038
E038
E038
E038
7078
7FD8
3F98
ENDCHAR
STARTCHAR 0172
ENCODING 370
SWIDTH 720 0
DWIDTH 20 0
BBX 16 26 2 -6
BITMAP
E007
E007
E007
E007
E007
E007
E007
E007
E007
E007
E007
E007
E007
6007
6007
6006
700E
381C
1FFC
0FF8
0030
0060
0060
0060
007C
003C
ENDCHAR
STARTCHAR 0173
ENCODING 371
SWIDTH 612 0
DWIDTH 17 0
BBX 13 21 2 -6
BITMAP
E038
E038
E038
E038
E038
E038
E038
E038
E038
E038
E038
E038
7078
7FD8
3F98
0030
0060
0060
00C0
0078
0078
ENDCHAR
STARTCHAR 0174
ENCODING 372
SWIDTH 900 0
DWIDTH 25 0
BBX 25 26 0 0
BITMAP
001E0000
003E0000
00730000
00618000
00000000
00000000
E01C0180
601E0180
701E0380
701E0380
703E0300
30370700
38330700
38730700
18638600
18618E00
1CE18E00
1CE1CC00
0CC1CC00
0CC0DC00
0FC0DC00
0F80F800
07807800
07807800
07807800
07003000
ENDCHAR
STARTCHAR 0175
ENCODING 373
SWIDTH 756 0
DWIDTH 21 0
BBX 21 21 0 0
BITMAP
007800
00F800
01CC00
018600
000000
000000
E07018
607818
607838
707838
30DC30
30CC30
30CC70
39CE60
198660
198660
1B86E0
1F07C0
0F03C0
0F03C0
0E03C0
ENDCHAR
STARTCHAR 0176
ENCODING 374
SWIDTH 540 0
DWIDTH 15 0
BBX 16 26 0 0
BITMAP
03C0
07C0
0E60
0C30
0000
0000
E007
600E
700C
301C
3818
1C38
1C30
0E70
0E60
07E0
03C0
03C0
0180
0180
0180
0180
0180
0180
0180
0180
ENDCHAR
STARTCHAR 0177
ENCODING 375
SWIDTH 504 0
DWIDTH 14 0
BBX 14 28 0 -7
BITMAP
0780
0FC0
0CC0
1860
0000
0000
E01C
601C
7018
7038
3038
3830
1870
1860
1C60
0CE0
0EC0
06C0
07C0
0780
0380
0300
0700
0700
0E00
1C00
FC00
6000
ENDCHAR
STARTCHAR 0178
ENCODING 376
SWIDTH 540 0
DWIDTH 15 0
BBX 16 25 0 0
BITMAP
0C70
0E70
0020
0000
0000
E007
600E
700C
301C
3818
1C38
1C30
0E70
0E60
07E0
03C0
03C0
0180
0180
0180
0180
0180
0180
0180
0180
ENDCHAR
STARTCHAR 0179
ENCODING 377
SWIDTH 540 0
DWIDTH 15 0
BBX 14 26 1 0
BITMAP
00E0
01C0
0180
0300
0000
0000
FFFC
FFFC
0038
0038
0070
00E0
00E0
01C0
0380
0380
0700
0E00
0E00
1C00
3800
3800
7000
E000
FFFC
FFFC
ENDCHAR
STARTCHAR 017A
ENCODING 378
SWIDTH 468 0
DWIDTH 13 0
BBX 11 21 1 0
BITMAP
0380
0300
0600
0C00
0000
0000
7FE0
7FE0
00C0
01C0
0380
0300
0700
0E00
1C00
1800
3800
7000
6000
FFE0
FFE0
ENDCHAR
STARTCHAR 017B
ENCODING 379
SWIDTH 540 0
DWIDTH 15 0
BBX 14 25 1 0
BITMAP
0300
0300
0100
0000
0000
FFFC
FFFC
0038
0038
0070
00E0
00E0
01C0
0380
0380
0700
0E00
0E00
1C00
3800
3800
7000
E000
FFFC
FFFC
ENDCHAR
STARTCHAR 017C
ENCODING 380
SWIDTH 468 0
DWIDTH 13 0
BBX 11 20 1 0
BITMAP
0E00
0E00
0400
0000
0000
7FE0
7FE0
00C0
01C0
0380
0300
0700
0E00
1C00
1800
3800
7000
6000
FFE0
FFE0
ENDCHAR
STARTCHAR 017D
ENCODING 381
SWIDTH 540 0
DWIDTH 15 0
BBX 14 26 1 0
BITMAP
1860
0CC0
0FC0
0780
0000
0000
FFFC
FFFC
0038
0038
0070
00E0
00E0
01C0
0380
0380
0700
0E00
0E00
1C00
3800
3800
7000
E000
FFFC
FFFC
ENDCHAR
STARTCHAR 017E
ENCODING 382
SWIDTH 468 0
DWIDTH 13 0
BBX 11 21 1 0
BITMAP
71C0
3B80
1F00
0E00
0000
0000
7FE0
7FE0
00C0
01C0
0380
0300
0700
0E00
1C00
1800
3800
7000
6000
FFE0
FFE0
ENDCHAR
STARTCHAR 017F
ENCODING 383
SWIDTH 324 0
DWIDTH 9 0
BBX 8 21 2 0
BITMAP
3F
7F
60
E0
E0
E0
E0
E0
E0
E0
E0
E0
E0
E0
E0
E0
E0
E0
E0
E0
E0
ENDCHAR
STARTCHAR 0180
ENCODING 384
SWIDTH 612 0
DWIDTH 17 0
BBX 16 21 0 0
BITMAP
3800
3800
FFE0
FFE0
3800
3800
39F0
3FFC
3E1C
3C0E
3806
3806
3807
3807
3807
3806
3806
3C0E
3C1C
3FFC
33F8
ENDCHAR
STARTCHAR 0181
ENCODING 385
SWIDTH 720 0
DWIDTH 20 0
BBX 19 20 0 0
BITMAP
3FFC00
7FFF80
F60780
E601C0
E601C0
0600C0
0601C0
060180
060F80
07FC00
07FF80
0601C0
0600C0
0600E0
0600E0
0600E0
0601C0
0603C0
07FF80
07FE00
ENDCHAR
STARTCHAR 0182
ENCODING 386
SWIDTH 612 0
DWIDTH 17 0
BBX 13 20 3 0
BITMAP
FFE0
FFE0
C000
C000
C000
C000
C000
C000
C000
FFC0
FFE0
C070
C030
C038
C038
C038
C070
C0F0
FFE0
FF80
ENDCHAR
STARTCHAR 0183
ENCODING 387
SWIDTH 612 0
DWIDTH 17 0
BBX 14 21 2 0
BITMAP
FFF0
FFF0
E000
E000
E000
E000
E7C0
FFF0
F870
F038
E018
E018
E01C
E01C
E01C
E018
E018
F038
F070
FFF0
CFE0
ENDCHAR
STARTCHAR 0184
ENCODING 388
SWIDTH 612 0
DWIDTH 17 0
BBX 14 20 2 0
BITMAP
E000
E000
E000
E000
E000
E000
E000
E000
E000
FFE0
FFF8
E03C
E01C
E00C
E00C
600C
601C
7038
3FF8
1FE0
ENDCHAR
STARTCHAR 0185
ENCODING 389
SWIDTH 612 0
DWIDTH 17 0
BBX 13 21 2 0
BITMAP
E000
E000
E000
E000
E000
E000
EFC0
FFE0
F070
E038
E018
E018
E018
E018
E018
E018
6018
7038
7870
3FF0
0FC0
ENDCHAR
STARTCHAR 0186
ENCODING 390
SWIDTH 612 0
DWIDTH 17 0
BBX 15 20 1 0
BITMAP
7F80
FFE0
60F0
0038
001C
001C
000C
000E
000E
000E
000E
000E
000E
000C
001C
001C
0038
00F0
7FE0
7FC0
ENDCHAR
STARTCHAR 0187
ENCODING 391
SWIDTH 612 0
DWIDTH 17 0
BBX 17 24 2 0
BITMAP
000380
000780
000600
000E00
07FE00
0FFC00
3E0C00
380000
700000
E00000
E00000
E00000
C00000
C00000
C00000
C00000
E00000
E00000
E00000
700000
780000
3C0400
1FFC00
07FC00
ENDCHAR
STARTCHAR 0188
ENCODING 392
SWIDTH 468 0
DWIDTH 13 0
BBX 13 21 2 0
BITMAP
0078
0078
00E0
00C0
00C0
00C0
1FC0
3FC0
7040
E000
E000
C000
C000
C000
C000
C000
C000
E000
7000
7FC0
1FC0
ENDCHAR
STARTCHAR 0189
ENCODING 393
SWIDTH 720 0
DWIDTH 20 0
BBX 18 20 1 0
BITMAP
3FE000
3FF800
307E00
300F00
300700
300380
300380
300180
3001C0
FF81C0
FF81C0
3001C0
300180
300380
300380
300700
300F00
307E00
3FF800
3FE000
ENDCHAR
STARTCHAR 018A
ENCODING 394
SWIDTH 792 0
DWIDTH 22 0
BBX 21 20 0 0
BITMAP
3FFC00
7FFF80
F60FC0
E601E0
E60070
060070
060030
060038
060038
060038
060038
060038
060038
060030
060070
060070
0601E0
0607C0
07FF80
07FC00
ENDCHAR
STARTCHAR 018B
ENCODING 395
SWIDTH 612 0
DWIDTH 17 0
BBX 13 20 1 0
BITMAP
3FF8
3FF8
0018
0018
0018
0018
0018
0018
0018
1FF8
3FF8
7018
6018
E018
E018
E018
7018
7818
3FF8
0FF8
ENDCHAR
STARTCHAR 018C
ENCODING 396
SWIDTH 612 0
DWIDTH 17 0
BBX 13 21 2 0
BITMAP
7FF8
7FF8
0038
0038
0038
0038
1FB8
7FF8
7078
E078
E038
C038
C038
C038
C038
C038
C038
E038
7078
7FF8
3F98
ENDCHAR
STARTCHAR 018D
ENCODING 397
SWIDTH 576 0
DWIDTH 16 0
BBX 14 21 2 -6
BITMAP
0FC0
3FF0
7070
E038
E018
C018
C01C
C018
E018
6038
7070
38E0
1FC0
0780
03C0
00E0
0060
0060
60E0
7FC0
3F80
ENDCHAR
STARTCHAR 018E
ENCODING 398
SWIDTH 540 0
DWIDTH 15 0
BBX 11 20 2 0
BITMAP
FFE0
FFE0
00E0
00E0
00E0
00E0
00E0
00E0
00E0
FFE0
FFE0
00E0
00E0
00E0
00E0
00E0
00E0
00E0
FFE0
FFE0
ENDCHAR
STARTCHAR 018F
ENCODING 399
SWIDTH 720 0
DWIDTH 20 0
BBX 17 20 2 0
BITMAP
3FE000
7FF800
603C00
000E00
000700
000700
000300
000380
000380
FFFF80
FFFF80
C00380
C00380
C00300
E00700
E00700
700E00
381E00
3FF800
0FF000
ENDCHAR
STARTCHAR 0190
ENCODING 400
SWIDTH 576 0
DWIDTH 16 0
BBX 14 20 1 0
BITMAP
0FE0
1FFC
381C
3000
7000
7000
3000
3800
1F00
07F0
1FF0
3800
7000
6000
E000
6000
7000
780C
3FFC
0FF8
ENDCHAR
STARTCHAR 0191
ENCODING 401
SWIDTH 576 0
DWIDTH 16 0
BBX 16 27 0 -7
BITMAP
07FF
07FF
0700
0700
0700
0700
0700
0700
0700
07FE
07FE
0700
0700
0700
0700
0700
0700
0700
0700
0700
0700
0700
C700
C700
FE00
FE00
3800
ENDCHAR
STARTCHAR 0192
ENCODING 402
SWIDTH 396 0
DWIDTH 11 0
BBX 13 28 0 -7
BITMAP
01F8
03F0
0700
0700
0600
0600
1FE0
3FE0
0600
0600
0600
0600
0600
0600
0600
0600
0600
0600
0600
0600
0600
0600
0600
C600
C600
EE00
FE00
3800
ENDCHAR
STARTCHAR 0193
ENCODING 403
SWIDTH 720 0
DWIDTH 20 0
BBX 19 24 2 0
BITMAP
0001E0
0003E0
000300
000300
03FF00
0FFF00
1E0600
380000
700000
600000
E00000
E00000
C00000
C00000
C07F00
C07F00
E00300
E00300
E00300
700300
780300
3C0300
1FFF00
07FE00
ENDCHAR
STARTCHAR 0194
ENCODING 404
SWIDTH 540 0
DWIDTH 15 0
BBX 16 27 0 -7
BITMAP
E007
6006
600E
700E
300C
381C
3818
1838
1C38
0C30
0E70
0E60
0660
07E0
03C0
03C0
0380
03C0
03C0
07C0
06E0
0660
0660
0660
07E0
07C0
0180
ENDCHAR
STARTCHAR 0195
ENCODING 405
SWIDTH 900 0
DWIDTH 25 0
BBX 22 21 2 0
BITMAP
E00000
E00000
E00000
E00000
E00000
E00000
E7C01C
FFE01C
F0701C
F0701C
E0301C
E0301C
E0301C
E0301C
E0301C
E0301C
E0301C
E03818
E03838
E01FF8
E00FE0
ENDCHAR
STARTCHAR 0196
ENCODING 406
SWIDTH 324 0
DWIDTH 9 0
BBX 7 20 2 0
BITMAP
E0
E0
E0
E0
E0
E0
E0
E0
E0
E0
E0
E0
E0
E0
E0
E0
60
70
7E
3E
ENDCHAR
STARTCHAR 0197
ENCODING 407
SWIDTH 324 0
DWIDTH 9 0
BBX 7 20 1 0
BITMAP
FE
FE
38
38
38
38
38
38
38
FE
FE
38
38
38
38
38
38
38
FE
FE
ENDCHAR
STARTCHAR 0198
ENCODING 408
SWIDTH 612 0
DWIDTH 17 0
BBX 14 20 3 0
BITMAP
C03C
C07C
C070
C0E0
C1C0
C380
C700
CE00
CC00
DE00
FE00
E700
C380
C1C0
C1C0
C0E0
C070
C070
C038
C01C
ENDCHAR
STARTCHAR 0199
ENCODING 409
SWIDTH 504 0
DWIDTH 14 0
BBX 12 21 2 0
BITMAP
7C00
7C00
E000
E000
E000
E000
E070
E0E0
E1C0
E380
E700
EE00
FC00
FE00
F700
E300
E380
E1C0
E0E0
E060
E070
ENDCHAR
STARTCHAR 019A
ENCODING 410
SWIDTH 252 0
DWIDTH 7 0
BBX 7 21 0 0
BITMAP
38
38
38
38
38
38
38
38
38
FE
FE
38
38
38
38
38
38
38
38
38
38
ENDCHAR
STARTCHAR 019B
ENCODING 411
SWIDTH 540 0
DWIDTH 15 0
BBX 15 21 0 0
BITMAP
7C00
7E40
07E0
1F80
3F00
0300
0380
0380
07C0
06C0
0EC0
0CE0
0CE0
1C60
1870
3830
3030
7038
6018
E01E
E00E
ENDCHAR
STARTCHAR 019C
ENCODING 412
SWIDTH 1008 0
DWIDTH 28 0
BBX 24 20 2 0
BITMAP
E01807
E01807
E01807
E01807
E01807
E01807
E01807
E01807
E01807
E01807
E01807
E01807
E01807
E01807
E01807
601C07
603C0F
707E1F
3FEFFB
1F87F3
ENDCHAR
STARTCHAR 019D
ENCODING 413
SWIDTH 756 0
DWIDTH 21 0
BBX 18 27 0 -7
BITMAP
1C00C0
1C00C0
1E00C0
1F00C0
1B00C0
1B80C0
19C0C0
19C0C0
18E0C0
1870C0
1870C0
1838C0
181CC0
181CC0
180EC0
1806C0
1807C0
1803C0
1801C0
1801C0
180000
180000
180000
380000
F80000
F00000
C00000
ENDCHAR
STARTCHAR 019E
ENCODING 414
SWIDTH 612 0
DWIDTH 17 0
BBX 13 22 2 -7
BITMAP
C7C0
FFF0
F870
F030
E038
E038
E038
E038
E038
E038
E038
E038
E038
E038
E038
0038
0038
0038
0038
0038
0038
0038
ENDCHAR
STARTCHAR 019F
ENCODING 415
SWIDTH 756 0
DWIDTH 21 0
BBX 18 20 2 0
BITMAP
07F800
1FFC00
3C0F00
780700
700380
E00180
E001C0
E001C0
C001C0
FFFFC0
FFFFC0
C001C0
E001C0
E001C0
E00180
700380
700700
3C0F00
1FFE00
07F800
ENDCHAR
STARTCHAR 01A0
ENCODING 416
SWIDTH 756 0
DWIDTH 21 0
BBX 20 21 2 0
BITMAP
000070
07F870
1FFC70
3C1FE0
7807C0
700380
E00180
E001C0
E001C0
C001C0
C001C0
C001C0
C001C0
E001C0
E001C0
E00180
700380
700700
3C0F00
1FFE00
07F800
ENDCHAR
STARTCHAR 01A1
ENCODING 417
SWIDTH 612 0
DWIDTH 17 0
BBX 16 17 2 0
BITMAP
0007
0007
1FC6
3FEE
707C
E030
C038
C018
C018
C018
C018
C018
C038
E038
7070
3FE0
1FC0
ENDCHAR
STARTCHAR 01A2
ENCODING 418
SWIDTH 1044 0
DWIDTH 29 0
BBX 25 20 2 0
BITMAP
07F07E00
1FFDFF00
3C1F8780
700F0380
70070180
E0030180
E0038180
E0038180
E0038180
C0038180
C0038180
C0038180
C0038180
E0038180
E0030180
70070180
70070180
3C1E0180
1FFC0180
0FF00180
ENDCHAR
STARTCHAR 01A3
ENCODING 419
SWIDTH 828 0
DWIDTH 23 0
BBX 19 22 2 -7
BITMAP
1F8F80
3FDFC0
70F0E0
E07060
C03060
C03060
C03860
C03860
C03860
C03060
C03060
E07060
70E060
3FE060
1F8060
000060
000060
000060
000060
000060
000060
000060
ENDCHAR
STARTCHAR 01A4
ENCODING 420
SWIDTH 684 0
DWIDTH 19 0
BBX 18 20 0 0
BITMAP
3FF800
7FFF00
F60F80
E60380
E60180
0601C0
0601C0
060180
060380
060780
07FF00
07FC00
060000
060000
060000
060000
060000
060000
060000
060000
ENDCHAR
STARTCHAR 01A5
ENCODING 421
SWIDTH 612 0
DWIDTH 17 0
BBX 14 28 2 -7
BITMAP
7C00
7C00
E000
E000
E000
E000
E7C0
FFF0
F870
F038
E018
E018
E01C
E01C
E01C
E018
E018
F038
F070
FFF0
EFC0
E000
E000
E000
E000
E000
E000
E000
ENDCHAR
STARTCHAR 01A6
ENCODING 422
SWIDTH 612 0
DWIDTH 17 0
BBX 14 23 3 -3
BITMAP
C000
C000
C000
FF80
FFE0
C0F0
C070
C030
C030
C030
C070
C070
FFE0
FF80
FF80
C180
C1C0
C0E0
C0E0
C070
0030
0038
001C
ENDCHAR
STARTCHAR 01A7
ENCODING 423
SWIDTH 540 0
DWIDTH 15 0
BBX 13 20 1 0
BITMAP
1FC0
3FE0
3070
0038
0038
0038
0038
0070
01F0
07C0
1F80
7C00
7000
E000
E000
E000
6000
7018
3FF8
1FF0
ENDCHAR
STARTCHAR 01A8
ENCODING 424
SWIDTH 468 0
DWIDTH 13 0
BBX 11 15 1 0
BITMAP
3F80
7FC0
20E0
0060
00E0
01C0
07C0
3F00
7C00
F000
E000
E000
E020
7FE0
3FE0
ENDCHAR
STARTCHAR 01A9
ENCODING 425
SWIDTH 540 0
DWIDTH 15 0
BBX 14 20 1 0
BITMAP
FFF8
FFF8
7000
7000
3800
1C00
0E00
0700
0380
0380
0380
0700
0E00
0C00
1C00
3800
7000
E000
FFFC
FFFC
ENDCHAR
STARTCHAR 01AA
ENCODING 426
SWIDTH 324 0
DWIDTH 9 0
BBX 11 28 0 -7
BITMAP
7C00
FC00
CE00
CE00
FE00
7E00
0E00
0E00
0E00
0E00
0E00
0E00
0E00
0E00
0E00
0E00
0E00
0E00
0E00
0E00
0E00
0E00
0E00
0E00
0600
0700
07E0
00C0
ENDCHAR
STARTCHAR 01AB
ENCODING 427
SWIDTH 360 0
DWIDTH 10 0
BBX 9 25 0 -7
BITMAP
1800
1800
1800
7F80
FF80
1800
1800
1800
1800
1800
1800
1800
1800
1800
1800
1C00
1F80
0F80
0180
0180
0180
0180
0B80
0F80
0600
ENDCHAR
STARTCHAR 01AC
ENCODING 428
SWIDTH 576 0
DWIDTH 16 0
BBX 16 20 0 0
BITMAP
3FFF
7FFF
F1C0
E1C0
E1C0
01C0
01C0
01C0
01C0
01C0
01C0
01C0
01C0
01C0
01C0
01C0
01C0
01C0
01C0
01C0
ENDCHAR
STARTCHAR 01AD
ENCODING 429
SWIDTH 360 0
DWIDTH 10 0
BBX 9 21 0 0
BITMAP
0F80
1F80
1800
1800
1800
1800
7F80
FF80
1800
1800
1800
1800
1800
1800
1800
1800
1800
1800
1C00
1F80
0F80
ENDCHAR
STARTCHAR 01AE
ENCODING 430
SWIDTH 540 0
DWIDTH 15 0
BBX 15 27 0 -7
BITMAP
FFFE
FFFE
0380
0380
0380
0380
0380
0380
0380
0380
0380
0380
0380
0380
0380
0380
0380
0380
0380
0380
0380
0380
0380
0180
01F0
01F0
0060
ENDCHAR
STARTCHAR 01AF
ENCODING 431
SWIDTH 756 0
DWIDTH 21 0
BBX 21 21 2 0
BITMAP
000038
E00730
E00730
E00760
E007E0
E00700
E00700
E00700
E00700
E00700
E00700
E00700
E00700
E00700
600700
600700
600600
700E00
381E00
1FFC00
0FF000
ENDCHAR
STARTCHAR 01B0
ENCODING 432
SWIDTH 648 0
DWIDTH 18 0
BBX 18 17 2 0
BITMAP
0001C0
000180
E03B80
E03F00
E03F00
E03800
E03800
E03800
E03800
E03800
E03800
E03800
E03800
E03800
707800
7FD800
3F9800
ENDCHAR
STARTCHAR 01B1
ENCODING 433
SWIDTH 756 0
DWIDTH 21 0
BBX 20 20 1 0
BITMAP
FF0FF0
FF0FF0
070E00
0C0700
180380
380180
3001C0
7000C0
7000E0
6000E0
6000E0
6000E0
6000E0
7000E0
7000E0
7001C0
3801C0
1E0780
0FFF00
07FC00
ENDCHAR
STARTCHAR 01B2
ENCODING 434
SWIDTH 720 0
DWIDTH 20 0
BBX 16 20 2 0
BITMAP
E03C
E07E
E047
E007
E007
E007
E007
E007
E007
E007
E007
E007
E007
6007
6007
6006
700E
381C
1FFC
0FF0
ENDCHAR
STARTCHAR 01B3
ENCODING 435
SWIDTH 576 0
DWIDTH 16 0
BBX 16 20 0 0
BITMAP
E00F
600F
701C
3018
3838
1C30
1C70
0E60
0EE0
07C0
03C0
03C0
0180
0180
0180
0180
0180
0180
0180
0180
ENDCHAR
STARTCHAR 01B4
ENCODING 436
SWIDTH 540 0
DWIDTH 15 0
BBX 15 22 0 -7
BITMAP
E00E
601E
7018
7038
3030
3830
1870
1860
1C60
0CE0
0EC0
06C0
0780
0780
0380
0300
0700
0700
0E00
1C00
FC00
6000
ENDCHAR
STARTCHAR 01B5
ENCODING 437
SWIDTH 540 0
DWIDTH 15 0
BBX 14 20 1 0
BITMAP
FFFC
FFFC
0038
0038
0070
00E0
00E0
01C0
0380
7FF8
7FF8
0E00
0E00
1C00
3800
3800
7000
E000
FFFC
FFFC
ENDCHAR
STARTCHAR 01B6
ENCODING 438
SWIDTH 468 0
DWIDTH 13 0
BBX 11 15 1 0
BITMAP
7FE0
7FE0
00C0
01C0
0380
0300
7FE0
7FE0
1C00
1800
3800
7000
6000
FFE0
FFE0
ENDCHAR
STARTCHAR 01B7
ENCODING 439
SWIDTH 576 0
DWIDTH 16 0
BBX 14 20 1 0
BITMAP
7FF8
7FF8
0030
0060
01C0
0380
0700
0E00
1C00
1FC0
1FF0
0078
0018
001C
001C
001C
0038
8078
FFF0
7FC0
ENDCHAR
STARTCHAR 01B8
ENCODING 440
SWIDTH 576 0
DWIDTH 16 0
BBX 13 20 2 0
BITMAP
FFF8
FFF8
7000
3800
1C00
0E00
0700
0380
1F80
7F80
7000
E000
C000
C000
C000
C000
E000
7008
7FF8
1FF8
ENDCHAR
STARTCHAR 01B9
ENCODING 441
SWIDTH 468 0
DWIDTH 13 0
BBX 12 22 1 -7
BITMAP
7FF0
7FF0
7000
3800
1C00
0E00
0600
0300
0180
1FC0
3FC0
7000
E000
E000
C000
C000
E000
E000
7000
7CF0
1FF0
0780
ENDCHAR
STARTCHAR 01BA
ENCODING 442
SWIDTH 468 0
DWIDTH 13 0
BBX 11 22 1 -7
BITMAP
FFE0
FFE0
01C0
0380
0700
0E00
3C00
3F80
07E0
00E0
0060
0060
0060
0060
00E0
3FC0
FF00
E000
C000
F380
7F80
1E00
ENDCHAR
STARTCHAR 01BB
ENCODING 443
SWIDTH 540 0
DWIDTH 15 0
BBX 13 21 1 0
BITMAP
1F80
7FE0
70E0
0070
0070
0070
0070
0060
00E0
7FF8
7FF8
0380
0300
0700
0E00
1C00
3800
7000
6000
FFF8
FFF8
ENDCHAR
STARTCHAR 01BC
ENCODING 444
SWIDTH 576 0
DWIDTH 16 0
BBX 14 20 1 0
BITMAP
FFF8
FFF8
1800
1800
1800
1800
1800
1800
1FC0
1FF0
0078
0038
001C
001C
001C
001C
0038
8078
FFF0
7FC0
ENDCHAR
STARTCHAR 01BD
ENCODING 445
SWIDTH 468 0
DWIDTH 13 0
BBX 11 15 1 0
BITMAP
FFC0
FFC0
3000
3000
3000
3C00
3FC0
03E0
00E0
0060
0060
0060
80E0
FFC0
FF80
ENDCHAR
STARTCHAR 01BE
ENCODING 446
SWIDTH 432 0
DWIDTH 12 0
BBX 11 18 1 0
BITMAP
0800
1800
1800
7FC0
FFC0
1800
1800
1800
1800
1C00
0F00
07C0
01C0
00E0
00E0
80C0
FFC0
FF00
ENDCHAR
STARTCHAR 01BF
ENCODING 447
SWIDTH 576 0
DWIDTH 16 0
BBX 13 22 2 -7
BITMAP
CFC0
FFE0
F070
E038
E038
E038
E038
E038
E038
E030
E070
E0E0
E3C0
FF80
FE00
E000
E000
E000
E000
E000
E000
E000
ENDCHAR
STARTCHAR 01C0
ENCODING 448
SWIDTH 324 0
DWIDTH 9 0
BBX 2 21 4 0
BITMAP
C0
C0
C0
C0
C0
C0
C0
C0
C0
C0
C0
C0
C0
C0
C0
C0
C0
C0
C0
C0
C0
ENDCHAR
STARTCHAR 01C1
ENCODING 449
SWIDTH 540 0
DWIDTH 15 0
BBX 8 21 4 0
BITMAP
C3
C3
C3
C3
C3
C3
C3
C3
C3
C3
C3
C3
C3
C3
C3
C3
C3
C3
C3
C3
C3
ENDCHAR
STARTCHAR 01C2
ENCODING 450
SWIDTH 504 0
DWIDTH 14 0
BBX 11 21 2 0
BITMAP
0C00
0C00
0C00
0C00
0C00
0C00
0C00
FFE0
FFE0
0C00
0C00
0C00
FFE0
FFE0
0C00
0C00
0C00
0C00
0C00
0C00
0C00
ENDCHAR
STARTCHAR 01C3
ENCODING 451
SWIDTH 252 0
DWIDTH 7 0
BBX 3 20 2 0
BITMAP
E0
E0
E0
E0
E0
60
60
60
60
60
60
60
60
60
00
00
00
E0
E0
E0
ENDCHAR
STARTCHAR 01C4
ENCODING 452
SWIDTH 1260 0
DWIDTH 35 0
BBX 32 26 3 0
BITMAP
00000618
00000330
000003F0
000001E0
00000000
00000000
FF803FFF
FFE03FFF
C1F8000E
C03C000E
C01C001C
C00E0038
C00E0038
C0060070
C00700E0
C00700E0
C00701C0
C0070380
C0060380
C00E0700
C00E0E00
C01C0E00
C03C1C00
C1F83800
FFE03FFF
FF803FFF
ENDCHAR
STARTCHAR 01C5
ENCODING 453
SWIDTH 1188 0
DWIDTH 33 0
BBX 29 21 3 0
BITMAP
00001C30
FF800E60
FFE007C0
C1F80380
C03C0000
C01C0000
C00E1FF8
C00E1FF8
C0060038
C0070070
C0070060
C00700E0
C00701C0
C0060380
C00E0300
C00E0700
C01C0E00
C03C0C00
C1F81C00
FFE03FF8
FF803FF8
ENDCHAR
STARTCHAR 01C6
ENCODING 454
SWIDTH 1080 0
DWIDTH 30 0
BBX 27 21 2 0
BITMAP
003870C0
00383B80
00381F00
00380E00
00380000
00380000
1FB87FE0
7FF87FE0
707800C0
E07801C0
E0380380
C0380300
C0380700
C0380E00
C0380C00
C0381C00
C0383800
E0387000
70786000
7FF8FFE0
3F98FFE0
ENDCHAR
STARTCHAR 01C7
ENCODING 455
SWIDTH 792 0
DWIDTH 22 0
BBX 17 25 3 -5
BITMAP
C00380
C00380
C00380
C00380
C00380
C00380
C00380
C00380
C00380
C00380
C00380
C00380
C00380
C00380
C00380
C00380
C00380
C00380
FFE380
FFE380
000380
000300
000700
007F00
007C00
ENDCHAR
STARTCHAR 01C8
ENCODING 456
SWIDTH 756 0
DWIDTH 21 0
BBX 17 27 3 -7
BITMAP
C00380
C00380
C00100
C00000
C00000
C00300
C00300
C00300
C00300
C00300
C00300
C00300
C00300
C00300
C00300
C00300
C00300
C00300
FFE300
FFE300
000300
000300
000300
000300
002F00
003E00
001800
ENDCHAR
STARTCHAR 01C9
ENCODING 457
SWIDTH 504 0
DWIDTH 14 0
BBX 10 28 2 -7
BITMAP
E000
E1C0
E1C0
E080
E000
E000
E0C0
E0C0
E0C0
E0C0
E0C0
E0C0
E0C0
E0C0
E0C0
E0C0
E0C0
E0C0
E0C0
E0C0
E0C0
00C0
00C0
00C0
01C0
03C0
0F80
0E00
ENDCHAR
STARTCHAR 01CA
ENCODING 458
SWIDTH 1008 0
DWIDTH 28 0
BBX 23 25 3 -5
BITMAP
E00606
E00606
F00606
F80606
D80606
DC0606
CE0606
CE0606
C70606
C38606
C38606
C1C606
C0E606
C0E606
C07606
C03606
C03E06
C01E06
C00E06
C00E06
000006
00000E
00000E
0000FC
0000F8
ENDCHAR
STARTCHAR 01CB
ENCODING 459
SWIDTH 1008 0
DWIDTH 28 0
BBX 23 27 3 -7
BITMAP
E0060E
E0060E
F00604
F80600
D80600
DC060E
CE060E
CE060E
C7060E
C3860E
C3860E
C1C60E
C0E60E
C0E60E
C0760E
C0360E
C03E0E
C01E0E
C00E0E
C00E0E
00000E
00000E
00000E
00000E
00001E
00007C
000070
ENDCHAR
STARTCHAR 01CC
ENCODING 460
SWIDTH 864 0
DWIDTH 24 0
BBX 20 27 2 -7
BITMAP
000070
000070
000020
000000
000000
C7E030
FFF030
F87030
F03830
E03830
E03830
E03830
E03830
E03830
E03830
E03830
E03830
E03830
E03830
E03830
000030
000030
000030
000070
0000F0
0003E0
000380
ENDCHAR
STARTCHAR 01CD
ENCODING 461
SWIDTH 612 0
DWIDTH 17 0
BBX 18 26 0 0
BITMAP
0E1800
073000
03E000
01E000
000000
000000
00C000
01E000
01E000
03E000
037000
033000
073000
063800
0E1800
0E1C00
0C0C00
1C0C00
1FFE00
1FFE00
380700
300700
700300
700380
600180
E001C0
ENDCHAR
STARTCHAR 01CE
ENCODING 462
SWIDTH 540 0
DWIDTH 15 0
BBX 12 21 1 0
BITMAP
3860
1CC0
0F80
0700
0000
0000
1FC0
3FE0
3070
0030
0030
0030
0FF0
3FF0
7030
E030
E030
E070
E0F0
7FB0
3F30
ENDCHAR
STARTCHAR 01CF
ENCODING 463
SWIDTH 324 0
DWIDTH 9 0
BBX 9 26 0 0
BITMAP
E180
7300
3E00
1C00
0000
0000
7F00
7F00
1C00
1C00
1C00
1C00
1C00
1C00
1C00
1C00
1C00
1C00
1C00
1C00
1C00
1C00
1C00
1C00
7F00
7F00
ENDCHAR
STARTCHAR 01D0
ENCODING 464
SWIDTH 252 0
DWIDTH 7 0
BBX 9 21 -1 0
BITMAP
E380
7700
3E00
1C00
0000
0000
1C00
1C00
1C00
1C00
1C00
1C00
1C00
1C00
1C00
1C00
1C00
1C00
1C00
1C00
1C00
ENDCHAR
STARTCHAR 01D1
ENCODING 465
SWIDTH 756 0
DWIDTH 21 0
BBX 18 26 2 0
BITMAP
0E1800
073000
03E000
01E000
000000
000000
07F800
1FFC00
3C0F00
780700
700380
E00180
E001C0
E001C0
C001C0
C001C0
C001C0
C001C0
E001C0
E001C0
E00180
700380
700700
3C0F00
1FFE00
07F800
ENDCHAR
STARTCHAR 01D2
ENCODING 466
SWIDTH 576 0
DWIDTH 16 0
BBX 13 21 2 0
BITMAP
30E0
1DC0
0F80
0700
0000
0000
1FC0
3FE0
7070
E038
E038
C018
C018
C018
C018
C018
C038
E038
7070
3FE0
1FC0
ENDCHAR
STARTCHAR 01D3
ENCODING 467
SWIDTH 720 0
DWIDTH 20 0
BBX 16 26 2 0
BITMAP
0C38
0670
03E0
03C0
0000
0000
E007
E007
E007
E007
E007
E007
E007
E007
E007
E007
E007
E007
E007
6007
6007
6006
700E
381C
1FFC
0FF0
ENDCHAR
STARTCHAR 01D4
ENCODING 468
SWIDTH 612 0
DWIDTH 17 0
BBX 13 21 2 0
BITMAP
38E0
1DC0
0F80
0700
0000
0000
E038
E038
E038
E038
E038
E038
E038
E038
E038
E038
E038
E038
7078
7FD8
3F98
ENDCHAR
STARTCHAR 01D5
ENCODING 469
SWIDTH 720 0
DWIDTH 20 0
BBX 16 28 2 0
BITMAP
0FF0
0FF0
0000
0000
0E30
0E30
0000
0000
E007
E007
E007
E007
E007
E007
E007
E007
E007
E007
E007
E007
E007
6007
6007
6006
700E
381C
1FFC
0FF0
ENDCHAR
STARTCHAR 01D6
ENCODING 470
SWIDTH 612 0
DWIDTH 17 0
BBX 13 23 2 0
BITMAP
3FE0
3FE0
0000
0000
18C0
18C0
0000
0000
E038
E038
E038
E038
E038
E038
E038
E038
E038
E038
E038
E038
7078
7FD8
3F98
ENDCHAR
STARTCHAR 01D7
ENCODING 471
SWIDTH 720 0
DWIDTH 20 0
BBX 16 29 2 0
BITMAP
0070
00E0
00C0
0180
0000
0E30
0E30
0000
0000
E007
E007
E007
E007
E007
E007
E007
E007
E007
E007
E007
E007
E007
6007
6007
6006
700E
381C
1FFC
0FF0
ENDCHAR
STARTCHAR 01D8
ENCODING 472
SWIDTH 612 0
DWIDTH 17 0
BBX 13 24 2 0
BITMAP
01C0
0180
0300
0600
0000
18C0
18C0
0000
0000
E038
E038
E038
E038
E038
E038
E038
E038
E038
E038
E038
E038
7078
7FD8
3F98
ENDCHAR
STARTCHAR 01D9
ENCODING 473
SWIDTH 720 0
DWIDTH 20 0
BBX 16 29 2 0
BITMAP
0E30
07E0
03C0
01C0
0000
0E30
0E30
0000
0000
E007
E007
E007
E007
E007
E007
E007
E007
E007
E007
E007
E007
E007
6007
6007
6006
700E
381C
1FFC
0FF0
ENDCHAR
STARTCHAR 01DA
ENCODING 474
SWIDTH 612 0
DWIDTH 17 0
BBX 13 24 2 0
BITMAP
38E0
1DC0
0F80
0700
0000
18C0
18C0
0000
0000
E038
E038
E038
E038
E038
E038
E038
E038
E038
E038
E038
E038
7078
7FD8
3F98
ENDCHAR
STARTCHAR 01DB
ENCODING 475
SWIDTH 720 0
DWIDTH 20 0
BBX 16 29 2 0
BITMAP
0E00
0700
0380
00C0
0000
0E30
0E30
0000
0000
E007
E007
E007
E007
E007
E007
E007
E007
E007
E007
E007
E007
E007
6007
6007
6006
700E
381C
1FFC
0FF0
ENDCHAR
STARTCHAR 01DC
ENCODING 476
SWIDTH 612 0
DWIDTH 17 0
BBX 13 24 2 0
BITMAP
1C00
0E00
0600
0300
0000
18C0
18C0
0000
0000
E038
E038
E038
E038
E038
E038
E038
E038
E038
E038
E038
E038
7078
7FD8
3F98
ENDCHAR
STARTCHAR 01DD
ENCODING 477
SWIDTH 540 0
DWIDTH 15 0
BBX 13 15 1 0
BITMAP
3F80
7FE0
40F0
0030
0038
0038
0018
FFF8
FFF8
E038
6038
6030
7070
3FE0
1FC0
ENDCHAR
STARTCHAR 01DE
ENCODING 478
SWIDTH 612 0
DWIDTH 17 0
BBX 18 28 0 0
BITMAP
07F800
07F800
000000
000000
063800
063800
000000
000000
00C000
01E000
01E000
03E000
037000
033000
073000
063800
0E1800
0E1C00
0C0C00
1C0C00
1FFE00
1FFE00
380700
300700
700300
700380
600180
E001C0
ENDCHAR
STARTCHAR 01DF
ENCODING 479
SWIDTH 540 0
DWIDTH 15 0
BBX 12 23 1 0
BITMAP
1FE0
1FE0
0000
0000
18E0
18E0
0000
0000
1FC0
3FE0
3070
0030
0030
0030
0FF0
3FF0
7030
E030
E030
E070
E0F0
7FB0
3F30
ENDCHAR
STARTCHAR 01E0
ENCODING 480
SWIDTH 612 0
DWIDTH 17 0
BBX 18 28 0 0
BITMAP
07F800
07F800
000000
000000
01C000
01C000
000000
000000
00C000
01E000
01E000
03E000
037000
033000
073000
063800
0E1800
0E1C00
0C0C00
1C0C00
1FFE00
1FFE00
380700
300700
700300
700380
600180
E001C0
ENDCHAR
STARTCHAR 01E1
ENCODING 481
SWIDTH 540 0
DWIDTH 15 0
BBX 12 23 1 0
BITMAP
1FE0
1FE0
0000
0300
0700
0300
0000
0000
1FC0
3FE0
3070
0030
0030
0030
0FF0
3FF0
7030
E030
E030
E070
E0F0
7FB0
3F30
ENDCHAR
STARTCHAR 01E2
ENCODING 482
SWIDTH 864 0
DWIDTH 24 0
BBX 23 24 0 0
BITMAP
003FC0
003FC0
000000
000000
007FFE
007FFE
00EE00
00CE00
01CE00
018E00
038E00
030E00
070E00
070FFC
0E0FFC
0E0E00
0FFE00
1FFE00
180E00
380E00
300E00
700E00
600FFE
E00FFE
ENDCHAR
STARTCHAR 01E3
ENCODING 483
SWIDTH 864 0
DWIDTH 24 0
BBX 22 19 1 0
BITMAP
01FE00
01FE00
000000
000000
1FC7E0
3FEFF0
207C38
007838
003018
00301C
0FFFFC
3FFFFC
707000
E07000
E07000
E07800
E0DC08
7FCFF8
3F07F0
ENDCHAR
STARTCHAR 01E4
ENCODING 484
SWIDTH 720 0
DWIDTH 20 0
BBX 18 20 2 0
BITMAP
03FC00
0FFF00
1E0600
380000
700000
600000
E00000
E00000
C00000
C07F00
C07F00
C00300
E00300
E00300
E03FC0
703FC0
780300
3C0300
1FFF00
07FE00
ENDCHAR
STARTCHAR 01E5
ENCODING 485
SWIDTH 612 0
DWIDTH 17 0
BBX 14 22 2 -7
BITMAP
1F98
7FD8
70F8
E078
C038
C038
C038
C038
C038
C038
E038
E078
7FF8
3FB8
0438
0038
07FC
07FC
0030
79F0
7FE0
0F00
ENDCHAR
STARTCHAR 01E6
ENCODING 486
SWIDTH 720 0
DWIDTH 20 0
BBX 16 26 2 0
BITMAP
061C
0338
01F0
01E0
0000
0000
03FC
0FFF
1E06
3800
7000
6000
E000
E000
C000
C000
C07F
C07F
E003
E003
E003
7003
7803
3C03
1FFF
07FE
ENDCHAR
STARTCHAR 01E7
ENCODING 487
SWIDTH 612 0
DWIDTH 17 0
BBX 13 28 2 -7
BITMAP
30E0
19C0
0F80
0700
0000
0000
1F98
3FD8
70F8
E078
E038
C038
C038
C038
C038
C038
C038
E038
7078
7FF8
1FB8
0038
0038
0030
0070
79F0
7FE0
0E00
ENDCHAR
STARTCHAR 01E8
ENCODING 488
SWIDTH 612 0
DWIDTH 17 0
BBX 14 26 3 0
BITMAP
30E0
1DC0
0F80
0700
0000
0000
C01C
C038
C070
C0E0
C1C0
C380
C700
CE00
DC00
DE00
FE00
E700
C380
C380
C1C0
C0E0
C070
C070
C038
C01C
ENDCHAR
STARTCHAR 01E9
ENCODING 489
SWIDTH 504 0
DWIDTH 14 0
BBX 15 28 -1 0
BITMAP
C080
E380
7700
3E00
1C00
0000
0000
1C00
1C00
1C00
1C00
1C00
1C00
1C0E
1C1C
1C38
1C70
1CE0
1DC0
1F80
1FC0
1EE0
1C60
1C70
1C38
1C1C
1C0C
1C0E
ENDCHAR
STARTCHAR 01EA
ENCODING 490
SWIDTH 756 0
DWIDTH 21 0
BBX 18 26 2 -6
BITMAP
07F800
1FFC00
3C0F00
780700
700380
E00180
E001C0
E001C0
C001C0
C001C0
C001C0
C001C0
E001C0
E001C0
E00180
700380
700700
3C0F00
1FFE00
07F800
00C000
018000
018000
018000
01E000
00E000
ENDCHAR
STARTCHAR 01EB
ENCODING 491
SWIDTH 576 0
DWIDTH 16 0
BBX 13 21 2 -6
BITMAP
1FC0
3FE0
7070
E038
E038
C018
C018
C018
C018
C018
C038
E038
7070
3FE0
1FC0
0300
0600
0400
0C00
0780
0780
ENDCHAR
STARTCHAR 01EC
ENCODING 492
SWIDTH 756 0
DWIDTH 21 0
BBX 18 30 2 -6
BITMAP
07F800
07F800
000000
000000
07F800
1FFC00
3C0F00
780700
700380
E00180
E001C0
E001C0
C001C0
C001C0
C001C0
C001C0
E001C0
E001C0
E00180
700380
700700
3C0F00
1FFE00
07F800
004000
00C000
018000
018000
01F000
00F000
ENDCHAR
STARTCHAR 01ED
ENCODING 493
SWIDTH 576 0
DWIDTH 16 0
BBX 13 25 2 -6
BITMAP
3FE0
3FE0
0000
0000
1FC0
3FE0
7070
E038
E038
C018
C018
C018
C018
C018
C038
E038
7070
3FE0
1FC0
0300
0600
0400
0C00
0780
0780
ENDCHAR
STARTCHAR 01EE
ENCODING 494
SWIDTH 576 0
DWIDTH 16 0
BBX 14 26 1 0
BITMAP
3860
1DC0
0F80
0700
0000
0000
7FF8
7FF8
0030
0060
01C0
0380
0700
0E00
1C00
1FC0
1FF0
0078
0018
001C
001C
001C
0038
8078
FFF0
7FC0
ENDCHAR
STARTCHAR 01EF
ENCODING 495
SWIDTH 468 0
DWIDTH 13 0
BBX 13 28 0 -7
BITMAP
38E0
1DC0
0F80
0700
0000
0000
7FF0
7FF0
0070
00E0
01C0
0380
0700
0E00
0C00
1F80
1FE0
0070
0030
0038
0038
0038
0038
0030
0070
F1E0
FFC0
0E00
ENDCHAR
STARTCHAR 01F0
ENCODING 496
SWIDTH 252 0
DWIDTH 7 0
BBX 10 28 -2 -7
BITMAP
71C0
3B80
1F00
0E00
0000
0000
0E00
0E00
0E00
0E00
0E00
0E00
0E00
0E00
0E00
0E00
0E00
0E00
0E00
0E00
0E00
0E00
0E00
0E00
0E00
9C00
FC00
7000
ENDCHAR
STARTCHAR 01F1
ENCODING 497
SWIDTH 1260 0
DWIDTH 35 0
BBX 32 20 3 0
BITMAP
FF803FFF
FFE03FFF
C1F8000E
C03C000E
C01C001C
C00E0038
C00E0038
C0060070
C00700E0
C00700E0
C00701C0
C0070380
C0060380
C00E0700
C00E0E00
C01C0E00
C03C1C00
C1F83800
FFE03FFF
FF803FFF
ENDCHAR
STARTCHAR 01F2
ENCODING 498
SWIDTH 1188 0
DWIDTH 33 0
BBX 29 20 3 0
BITMAP
FF800000
FFE00000
C1F80000
C03C0000
C01C0000
C00E1FF8
C00E1FF8
C0060038
C0070070
C0070060
C00700E0
C00701C0
C0060380
C00E0300
C00E0700
C01C0E00
C03C0C00
C1F81C00
FFE03FF8
FF803FF8
ENDCHAR
STARTCHAR 01F3
ENCODING 499
SWIDTH 1080 0
DWIDTH 30 0
BBX 27 21 2 0
BITMAP
00380000
00380000
00380000
00380000
00380000
00380000
1FB87FE0
7FF87FE0
707800C0
E07801C0
E0380380
C0380300
C0380700
C0380E00
C0380C00
C0381C00
C0383800
E0387000
70786000
7FF8FFE0
3F98FFE0
ENDCHAR
STARTCHAR 01F4
ENCODING 500
SWIDTH 720 0
DWIDTH 20 0
BBX 16 26 2 0
BITMAP
0038
0070
0060
00C0
0000
0000
03FC
0FFF
1E06
3800
7000
6000
E000
E000
C000
C000
C07F
C07F
E003
E003
E003
7003
7803
3C03
1FFF
07FE
ENDCHAR
STARTCHAR 01F5
ENCODING 501
SWIDTH 612 0
DWIDTH 17 0
BBX 13 28 2 -7
BITMAP
01C0
0380
0300
0600
0000
0000
1F98
3FD8
70F8
E078
E038
C038
C038
C038
C038
C038
C038
E038
7078
7FF8
1FB8
0038
0038
0030
0070
79F0
7FE0
0E00
ENDCHAR
STARTCHAR 01F6
ENCODING 502
SWIDTH 936 0
DWIDTH 26 0
BBX 21 20 3 0
BITMAP
C03800
C03800
C03800
C03800
C03800
C03838
C03838
C03838
C03838
FFF838
FFF838
C03838
C03838
C03838
C03838
C03838
C01830
C01C70
C01FF0
C00FE0
ENDCHAR
STARTCHAR 01F7
ENCODING 503
SWIDTH 648 0
DWIDTH 18 0
BBX 14 27 3 -7
BITMAP
C7E0
DFF0
F878
F038
E01C
E01C
C01C
C01C
C01C
C018
C018
C038
C070
C070
C0E0
C1C0
C780
DF00
FC00
F000
C000
C000
C000
C000
C000
C000
C000
ENDCHAR
STARTCHAR 01F8
ENCODING 504
SWIDTH 756 0
DWIDTH 21 0
BBX 15 26 3 0
BITMAP
0E00
0700
0380
0180
0000
0000
E006
E006
F006
F806
D806
DC06
CE06
CE06
C706
C386
C386
C1C6
C0E6
C0E6
C076
C036
C03E
C01E
C00E
C00E
ENDCHAR
STARTCHAR 01F9
ENCODING 505
SWIDTH 612 0
DWIDTH 17 0
BBX 13 21 2 0
BITMAP
1C00
0E00
0700
0300
0000
0000
C7E0
FFF0
F870
F038
E038
E038
E038
E038
E038
E038
E038
E038
E038
E038
E038
ENDCHAR
STARTCHAR 01FA
ENCODING 506
SWIDTH 612 0
DWIDTH 17 0
BBX 18 27 0 0
BITMAP
003800
007000
00E000
00C000
000000
01E000
033000
023000
023000
03E000
01E000
01E000
037000
033000
073000
061800
0E1800
0C1C00
0C0C00
1FFE00
1FFE00
3FFE00
300700
700300
700380
600180
E001C0
ENDCHAR
STARTCHAR 01FB
ENCODING 507
SWIDTH 540 0
DWIDTH 15 0
BBX 12 27 1 0
BITMAP
00E0
01C0
0300
0000
0300
0FC0
0CC0
08C0
0CC0
0780
0000
0000
1FC0
3FE0
3070
0030
0030
0030
0FF0
3FF0
7030
E030
E030
E070
E0F0
7FB0
3F30
ENDCHAR
STARTCHAR 01FC
ENCODING 508
SWIDTH 864 0
DWIDTH 24 0
BBX 23 26 0 0
BITMAP
000380
000380
000700
000600
000000
000000
007FFE
007FFE
00EE00
00CE00
01CE00
018E00
038E00
030E00
070E00
070FFC
0E0FFC
0E0E00
0FFE00
1FFE00
180E00
380E00
300E00
700E00
600FFE
E00FFE
ENDCHAR
STARTCHAR 01FD
ENCODING 509
SWIDTH 864 0
DWIDTH 24 0
BBX 22 21 1 0
BITMAP
000E00
001C00
001800
003000
000000
000000
1FC7E0
3FEFF0
207C38
007838
003018
00301C
0FFFFC
3FFFFC
707000
E07000
E07000
E07800
E0DC08
7FCFF8
3F07F0
ENDCHAR
STARTCHAR 01FE
ENCODING 510
SWIDTH 756 0
DWIDTH 21 0
BBX 18 27 2 -1
BITMAP
003800
007000
00E000
00C000
000000
000000
07FB80
1FFF00
3C1E00
780F00
701F80
E01980
E039C0
E071C0
C061C0
C0C1C0
C1C1C0
C381C0
E301C0
E701C0
EE0180
7C0380
780700
3C0F00
3FFE00
67F800
200000
ENDCHAR
STARTCHAR 01FF
ENCODING 511
SWIDTH 576 0
DWIDTH 16 0
BBX 13 22 2 -1
BITMAP
01C0
0180
0300
0600
0000
0010
1FB8
3FF0
7070
E0F0
E1F8
C198
C318
C718
C618
CC18
DC38
F838
7070
7FE0
FFC0
4000
ENDCHAR
STARTCHAR 0200
ENCODING 512
SWIDTH 612 0
DWIDTH 17 0
BBX 18 26 0 0
BITMAP
1CE000
0C6000
067000
063000
000000
000000
00C000
01E000
01E000
03E000
037000
033000
073000
063800
0E1800
0E1C00
0C0C00
1C0C00
1FFE00
1FFE00
380700
300700
700300
700380
600180
E001C0
ENDCHAR
STARTCHAR 0201
ENCODING 513
SWIDTH 540 0
DWIDTH 15 0
BBX 12 21 1 0
BITMAP
7380
3180
19C0
18C0
0000
0000
1FC0
3FE0
3070
0030
0030
0030
0FF0
3FF0
7030
E030
E030
E070
E0F0
7FB0
3F30
ENDCHAR
STARTCHAR 0202
ENCODING 514
SWIDTH 612 0
DWIDTH 17 0
BBX 18 25 0 1
BITMAP
03F000
07F800
041800
000000
000000
00C000
01E000
01E000
03E000
037000
033000
073000
063800
0E1800
0E1C00
0C0C00
1C0C00
1FFE00
1FFE00
380700
300700
700300
700380
600180
E001C0
ENDCHAR
STARTCHAR 0203
ENCODING 515
SWIDTH 540 0
DWIDTH 15 0
BBX 12 21 1 0
BITMAP
0200
0FC0
1DE0
1060
0000
0000
1FC0
3FE0
3070
0030
0030
0030
0FF0
3FF0
7030
E030
E030
E070
E0F0
7FB0
3F30
ENDCHAR
STARTCHAR 0204
ENCODING 516
SWIDTH 540 0
DWIDTH 15 0
BBX 11 26 3 0
BITMAP
CE00
E700
6300
3180
0000
0000
FFE0
FFE0
C000
C000
C000
C000
C000
C000
C000
FFC0
FFC0
C000
C000
C000
C000
C000
C000
C000
FFE0
FFE0
ENDCHAR
STARTCHAR 0205
ENCODING 517
SWIDTH 540 0
DWIDTH 15 0
BBX 12 21 2 0
BITMAP
E700
6300
3180
1980
0000
0000
1F80
3FC0
70E0
E070
C070
C030
FFF0
FFF0
C000
C000
E000
E000
7010
3FF0
1FE0
ENDCHAR
STARTCHAR 0206
ENCODING 518
SWIDTH 540 0
DWIDTH 15 0
BBX 11 25 3 1
BITMAP
3F80
3F80
60C0
0000
0000
FFE0
FFE0
C000
C000
C000
C000
C000
C000
C000
FFC0
FFC0
C000
C000
C000
C000
C000
C000
C000
FFE0
FFE0
ENDCHAR
STARTCHAR 0207
ENCODING 519
SWIDTH 540 0
DWIDTH 15 0
BBX 12 20 2 1
BITMAP
1F80
3BC0
2040
0000
0000
1F80
3FC0
70E0
E070
C070
C030
FFF0
FFF0
C000
C000
E000
E000
7010
3FF0
1FE0
ENDCHAR
STARTCHAR 0208
ENCODING 520
SWIDTH 324 0
DWIDTH 9 0
BBX 9 26 -1 0
BITMAP
E600
6700
7380
3180
0000
0000
3F80
3F80
0E00
0E00
0E00
0E00
0E00
0E00
0E00
0E00
0E00
0E00
0E00
0E00
0E00
0E00
0E00
0E00
3F80
3F80
ENDCHAR
STARTCHAR 0209
ENCODING 521
SWIDTH 252 0
DWIDTH 7 0
BBX 9 21 -2 0
BITMAP
C600
E700
7300
3180
0000
0000
0E00
0E00
0E00
0E00
0E00
0E00
0E00
0E00
0E00
0E00
0E00
0E00
0E00
0E00
0E00
ENDCHAR
STARTCHAR 020A
ENCODING 522
SWIDTH 324 0
DWIDTH 9 0
BBX 9 25 0 1
BITMAP
3F00
7F80
C180
0000
0000
7F00
7F00
1C00
1C00
1C00
1C00
1C00
1C00
1C00
1C00
1C00
1C00
1C00
1C00
1C00
1C00
1C00
1C00
7F00
7F00
ENDCHAR
STARTCHAR 020B
ENCODING 523
SWIDTH 252 0
DWIDTH 7 0
BBX 9 21 -1 0
BITMAP
0800
7F00
7700
C180
0000
0000
1C00
1C00
1C00
1C00
1C00
1C00
1C00
1C00
1C00
1C00
1C00
1C00
1C00
1C00
1C00
ENDCHAR
STARTCHAR 020C
ENCODING 524
SWIDTH 756 0
DWIDTH 21 0
BBX 18 26 2 0
BITMAP
1CE000
0C6000
067000
063000
000000
000000
07F800
1FFC00
3C0F00
780700
700380
E00180
E001C0
E001C0
C001C0
C001C0
C001C0
C001C0
E001C0
E001C0
E00180
700380
700700
3C0F00
1FFE00
07F800
ENDCHAR
STARTCHAR 020D
ENCODING 525
SWIDTH 576 0
DWIDTH 16 0
BBX 13 21 2 0
BITMAP
6700
7380
3180
18C0
0000
0000
1FC0
3FE0
7070
E038
E038
C018
C018
C018
C018
C018
C038
E038
7070
3FE0
1FC0
ENDCHAR
STARTCHAR 020E
ENCODING 526
SWIDTH 756 0
DWIDTH 21 0
BBX 18 25 2 1
BITMAP
03F000
07F800
041800
000000
000000
07F800
1FFC00
3C0F00
780700
700380
E00180
E001C0
E001C0
C001C0
C001C0
C001C0
C001C0
E001C0
E001C0
E00180
700380
700700
3C0F00
1FFE00
07F800
ENDCHAR
STARTCHAR 020F
ENCODING 527
SWIDTH 576 0
DWIDTH 16 0
BBX 13 21 2 0
BITMAP
0300
1FC0
1DC0
3060
0000
0000
1FC0
3FE0
7070
E038
E038
C018
C018
C018
C018
C018
C038
E038
7070
3FE0
1FC0
ENDCHAR
STARTCHAR 0210
ENCODING 528
SWIDTH 612 0
DWIDTH 17 0
BBX 14 26 3 0
BITMAP
C600
E700
7300
3180
0000
0000
FF00
FFE0
C1E0
C070
C030
C030
C030
C030
C070
C1E0
FFC0
FF80
C180
C1C0
C0E0
C0E0
C070
C070
C038
C01C
ENDCHAR
STARTCHAR 0211
ENCODING 529
SWIDTH 396 0
DWIDTH 11 0
BBX 10 21 1 0
BITMAP
E600
6700
7380
3180
0000
0000
63C0
77C0
7C00
7800
7000
7000
7000
7000
7000
7000
7000
7000
7000
7000
7000
ENDCHAR
STARTCHAR 0212
ENCODING 530
SWIDTH 612 0
DWIDTH 17 0
BBX 14 25 3 1
BITMAP
1F80
3FC0
60C0
0000
0000
FF00
FFE0
C1E0
C070
C030
C030
C030
C030
C070
C1E0
FFC0
FF80
C180
C1C0
C0E0
C0E0
C070
C070
C038
C01C
ENDCHAR
STARTCHAR 0213
ENCODING 531
SWIDTH 396 0
DWIDTH 11 0
BBX 9 21 2 0
BITMAP
0800
3F00
7780
C180
0000
0000
C780
EF80
F800
F000
E000
E000
E000
E000
E000
E000
E000
E000
E000
E000
E000
ENDCHAR
STARTCHAR 0214
ENCODING 532
SWIDTH 720 0
DWIDTH 20 0
BBX 16 26 2 0
BITMAP
39C0
1CC0
0C60
0630
0000
0000
E007
E007
E007
E007
E007
E007
E007
E007
E007
E007
E007
E007
E007
6007
6007
6006
700E
381C
1FFC
0FF0
ENDCHAR
STARTCHAR 0215
ENCODING 533
SWIDTH 612 0
DWIDTH 17 0
BBX 13 21 2 0
BITMAP
6300
7380
3980
18C0
0000
0000
E038
E038
E038
E038
E038
E038
E038
E038
E038
E038
E038
E038
7078
7FD8
3F98
ENDCHAR
STARTCHAR 0216
ENCODING 534
SWIDTH 720 0
DWIDTH 20 0
BBX 16 26 2 0
BITMAP
0080
07E0
0FF0
0C10
0000
0000
E007
E007
E007
E007
E007
E007
E007
E007
E007
E007
E007
E007
E007
6007
6007
6006
700E
381C
1FFC
0FF0
ENDCHAR
STARTCHAR 0217
ENCODING 535
SWIDTH 612 0
DWIDTH 17 0
BBX 13 21 2 0
BITMAP
0200
1FC0
1DC0
3060
0000
0000
E038
E038
E038
E038
E038
E038
E038
E038
E038
E038
E038
E038
7078
7FD8
3F98
ENDCHAR
STARTCHAR 0218
ENCODING 536
SWIDTH 540 0
DWIDTH 15 0
BBX 13 26 1 -6
BITMAP
0FE0
3FF0
7830
7000
6000
6000
7000
7000
3C00
1F80
07E0
01F0
0078
0038
0038
0038
0038
C070
FFE0
7FC0
0000
0000
0700
0600
0600
0C00
ENDCHAR
STARTCHAR 0219
ENCODING 537
SWIDTH 468 0
DWIDTH 13 0
BBX 11 21 1 -6
BITMAP
1FC0
7FC0
6040
E000
E000
7000
3E00
1F80
03C0
00E0
0060
0060
80E0
FFC0
7F80
0000
0000
0600
0600
0C00
0C00
ENDCHAR
STARTCHAR 021A
ENCODING 538
SWIDTH 540 0
DWIDTH 15 0
BBX 15 26 0 -6
BITMAP
FFFE
FFFE
0380
0380
0380
0380
0380
0380
0380
0380
0380
0380
0380
0380
0380
0380
0380
0380
0380
0380
0000
0000
0180
0180
0300
0300
ENDCHAR
STARTCHAR 021B
ENCODING 539
SWIDTH 360 0
DWIDTH 10 0
BBX 9 24 0 -6
BITMAP
1800
1800
1800
7F80
FF80
1800
1800
1800
1800
1800
1800
1800
1800
1800
1800
1C00
1F80
0F80
0000
0000
0700
0600
0600
0C00
ENDCHAR
STARTCHAR 021C
ENCODING 540
SWIDTH 540 0
DWIDTH 15 0
BBX 13 25 1 -5
BITMAP
1FC0
7FF0
F078
0038
0038
0038
0038
0070
01E0
0FC0
1FE0
1870
0038
0018
0018
0018
0018
0038
0078
00F0
03E0
0FC0
FF00
F800
C000
ENDCHAR
STARTCHAR 021D
ENCODING 541
SWIDTH 468 0
DWIDTH 13 0
BBX 11 22 1 -7
BITMAP
3F80
FFC0
40E0
00E0
00E0
00E0
00C0
03C0
0F80
1FC0
10E0
0060
0060
0060
0060
00E0
01C0
03C0
1F80
FE00
F000
8000
ENDCHAR
STARTCHAR 021E
ENCODING 542
SWIDTH 720 0
DWIDTH 20 0
BBX 15 26 3 0
BITMAP
1870
0CE0
07C0
0380
0000
0000
C00E
C00E
C00E
C00E
C00E
C00E
C00E
C00E
C00E
FFFE
FFFE
C00E
C00E
C00E
C00E
C00E
C00E
C00E
C00E
C00E
ENDCHAR
STARTCHAR 021F
ENCODING 543
SWIDTH 612 0
DWIDTH 17 0
BBX 16 28 -1 0
BITMAP
C080
6380
7700
3E00
1C00
0000
0000
1C00
1C00
1C00
1C00
1C00
1C00
1CFC
1FFE
1F0E
1E07
1C07
1C07
1C07
1C07
1C07
1C07
1C07
1C07
1C07
1C07
1C07
ENDCHAR
STARTCHAR 0220
ENCODING 544
SWIDTH 720 0
DWIDTH 20 0
BBX 15 27 3 -7
BITMAP
C7F0
DFF8
F83C
F00C
E00E
E00E
C006
C006
C006
C006
C006
C006
C006
C006
C006
C006
C006
C006
C006
C006
0006
0006
0006
0006
0006
0006
0006
ENDCHAR
STARTCHAR 0221
ENCODING 545
SWIDTH 828 0
DWIDTH 23 0
BBX 22 24 2 -3
BITMAP
003800
003800
003800
003800
003800
003800
1FB800
7FF800
707800
E07800
E03800
C03800
C03800
C03800
C03800
C039F8
C03BFC
E03F1C
707E1C
7FCFF8
1F8FE0
000C00
000C00
001C00
ENDCHAR
STARTCHAR 0222
ENCODING 546
SWIDTH 648 0
DWIDTH 18 0
BBX 15 20 2 0
BITMAP
600C
600C
600C
601C
601C
7018
3878
1FF0
3FF0
7838
E01C
E00E
C00E
C00E
C00E
E00E
E00C
703C
3FF8
1FE0
ENDCHAR
STARTCHAR 0223
ENCODING 547
SWIDTH 576 0
DWIDTH 16 0
BBX 14 21 1 0
BITMAP
7018
7018
7018
7018
7018
7038
3838
3FF0
0FE0
3FF0
7038
701C
601C
E00C
E00C
E00C
601C
701C
7838
3FF0
0FE0
ENDCHAR
STARTCHAR 0224
ENCODING 548
SWIDTH 540 0
DWIDTH 15 0
BBX 14 26 1 -6
BITMAP
FFFC
FFFC
0038
0038
0070
00E0
00E0
01C0
0380
0380
0700
0E00
0E00
1C00
3800
3800
7000
E000
FFFC
FFFC
000C
000C
000C
007C
0078
0020
ENDCHAR
STARTCHAR 0225
ENCODING 549
SWIDTH 468 0
DWIDTH 13 0
BBX 11 21 1 -6
BITMAP
7FE0
7FE0
00C0
01C0
0380
0300
0700
0E00
1C00
1800
3800
7000
6000
FFE0
FFE0
0060
0060
0060
03E0
03C0
0100
ENDCHAR
STARTCHAR 0226
ENCODING 550
SWIDTH 612 0
DWIDTH 17 0
BBX 18 25 0 0
BITMAP
01C000
01C000
008000
000000
000000
00C000
01E000
01E000
03E000
037000
033000
073000
063800
0E1800
0E1C00
0C0C00
1C0C00
1FFE00
1FFE00
380700
300700
700300
700380
600180
E001C0
ENDCHAR
STARTCHAR 0227
ENCODING 551
SWIDTH 540 0
DWIDTH 15 0
BBX 12 20 1 0
BITMAP
0700
0700
0200
0000
0000
1FC0
3FE0
3070
0030
0030
0030
0FF0
3FF0
7030
E030
E030
E070
E0F0
7FB0
3F30
ENDCHAR
STARTCHAR 0228
ENCODING 552
SWIDTH 540 0
DWIDTH 15 0
BBX 11 27 3 -7
BITMAP
FFE0
FFE0
C000
C000
C000
C000
C000
C000
C000
FFC0
FFC0
C000
C000
C000
C000
C000
C000
C000
FFE0
FFE0
0400
0C00
0F00
0300
0300
1F00
1C00
ENDCHAR
STARTCHAR 0229
ENCODING 553
SWIDTH 540 0
DWIDTH 15 0
BBX 12 22 2 -7
BITMAP
1F80
3FC0
70E0
E070
C070
C030
FFF0
FFF0
C000
C000
E000
E000
7010
3FF0
1FE0
0200
0600
0780
0180
0180
0F80
0E00
ENDCHAR
STARTCHAR 022A
ENCODING 554
SWIDTH 756 0
DWIDTH 21 0
BBX 18 28 2 0
BITMAP
07F800
07F800
000000
000000
063800
063800
000000
000000
07F800
1FFC00
3C0F00
780700
700380
E00180
E001C0
E001C0
C001C0
C001C0
C001C0
C001C0
E001C0
E001C0
E00180
700380
700700
3C0F00
1FFE00
07F800
ENDCHAR
STARTCHAR 022B
ENCODING 555
SWIDTH 576 0
DWIDTH 16 0
BBX 13 23 2 0
BITMAP
3FE0
3FE0
0000
0000
18C0
18C0
0000
0000
1FC0
3FE0
7070
E038
E038
C018
C018
C018
C018
C018
C038
E038
7070
3FE0
1FC0
ENDCHAR
STARTCHAR 022C
ENCODING 556
SWIDTH 756 0
DWIDTH 21 0
BBX 18 28 2 0
BITMAP
07F800
07F800
000000
078800
07F800
0C7800
000000
000000
07F800
1FFC00
3C0F00
780700
700380
E00180
E001C0
E001C0
C001C0
C001C0
C001C0
C001C0
E001C0
E001C0
E00180
700380
700700
3C0F00
1FFE00
07F800
ENDCHAR
STARTCHAR 022D
ENCODING 557
SWIDTH 576 0
DWIDTH 16 0
BBX 13 23 2 0
BITMAP
3FE0
3FE0
0000
1C60
3FE0
23C0
0000
0000
1FC0
3FE0
7070
E038
E038
C018
C018
C018
C018
C018
C038
E038
7070
3FE0
1FC0
ENDCHAR
STARTCHAR 022E
ENCODING 558
SWIDTH 756 0
DWIDTH 21 0
BBX 18 25 2 0
BITMAP
00C000
01C000
008000
000000
000000
07F800
1FFC00
3C0F00
780700
700380
E00180
E001C0
E001C0
C001C0
C001C0
C001C0
C001C0
E001C0
E001C0
E00180
700380
700700
3C0F00
1FFE00
07F800
ENDCHAR
STARTCHAR 022F
ENCODING 559
SWIDTH 576 0
DWIDTH 16 0
BBX 13 20 2 0
BITMAP
0700
0700
0200
0000
0000
1FC0
3FE0
7070
E038
E038
C018
C018
C018
C018
C018
C038
E038
7070
3FE0
1FC0
ENDCHAR
STARTCHAR 0230
ENCODING 560
SWIDTH 756 0
DWIDTH 21 0
BBX 18 28 2 0
BITMAP
07F800
07F800
000000
000000
01C000
01C000
000000
000000
07F800
1FFC00
3C0F00
780700
700380
E00180
E001C0
E001C0
C001C0
C001C0
C001C0
C001C0
E001C0
E001C0
E00180
700380
700700
3C0F00
1FFE00
07F800
ENDCHAR
STARTCHAR 0231
ENCODING 561
SWIDTH 576 0
DWIDTH 16 0
BBX 13 23 2 0
BITMAP
3FE0
3FE0
0000
0600
0700
0700
0000
0000
1FC0
3FE0
7070
E038
E038
C018
C018
C018
C018
C018
C038
E038
7070
3FE0
1FC0
ENDCHAR
STARTCHAR 0232
ENCODING 562
SWIDTH 540 0
DWIDTH 15 0
BBX 16 24 0 0
BITMAP
0FF0
0FF0
0000
0000
E007
600E
700C
301C
3818
1C38
1C30
0E70
0E60
07E0
03C0
03C0
0180
0180
0180
0180
0180
0180
0180
0180
ENDCHAR
STARTCHAR 0233
ENCODING 563
SWIDTH 504 0
DWIDTH 14 0
BBX 14 26 0 -7
BITMAP
1FE0
1FE0
0000
0000
E01C
601C
7018
7038
3038
3830
1870
1860
1C60
0CE0
0EC0
06C0
07C0
0780
0380
0300
0700
0700
0E00
1C00
FC00
6000
ENDCHAR
STARTCHAR 0234
ENCODING 564
SWIDTH 360 0
DWIDTH 10 0
BBX 10 22 0 -1
BITMAP
3800
3800
3800
3800
3800
3800
3800
3800
3800
3800
3800
3800
3800
3800
3800
3F80
3FC0
38C0
78C0
7FC0
EF80
4000
ENDCHAR
STARTCHAR 0235
ENCODING 565
SWIDTH 720 0
DWIDTH 20 0
BBX 18 16 2 -1
BITMAP
C7E000
FFF000
F87000
F03800
E03800
E03800
E03800
E03800
E03800
E03F80
E03FC0
E038C0
E078C0
E07FC0
E06F80
004000
ENDCHAR
STARTCHAR 0236
ENCODING 566
SWIDTH 360 0
DWIDTH 10 0
BBX 10 19 0 -1
BITMAP
1800
1800
1800
7F80
FF80
1800
1800
1800
1800
1800
1800
1800
1FC0
1FC0
38C0
78C0
7FC0
6F80
4000
ENDCHAR
STARTCHAR 0237
ENCODING 567
SWIDTH 252 0
DWIDTH 7 0
BBX 7 22 -2 -7
BITMAP
0E
0E
0E
0E
0E
0E
0E
0E
0E
0E
0E
0E
0E
0E
0E
0E
0E
0E
0E
9C
FC
70
ENDCHAR
STARTCHAR 0238
ENCODING 568
SWIDTH 972 0
DWIDTH 27 0
BBX 23 21 2 0
BITMAP
003800
003800
003800
003800
003800
003800
1FBBF0
7FFFF8
707C1C
E0780E
E03806
C03806
C03806
C03806
C03806
C03806
C03806
E07C0E
70EC1C
7FC7FC
1F83F0
ENDCHAR
STARTCHAR 0239
ENCODING 569
SWIDTH 972 0
DWIDTH 27 0
BBX 23 22 2 -7
BITMAP
1F83F0
3FC7F8
70EE1C
E07C0E
C03806
C03806
C03806
C03806
C03806
C03806
C0380E
E0380E
707C1C
7FFFFC
1FBBF0
003800
003800
003800
003800
003800
003800
003800
ENDCHAR
STARTCHAR 023A
ENCODING 570
SWIDTH 612 0
DWIDTH 17 0
BBX 18 23 0 -2
BITMAP
000C00
00D800
01F800
01F800
03F000
037000
033000
077000
067800
0E7800
0EDC00
0CCC00
1CCC00
1FFE00
1FFE00
390700
330700
730300
720380
660180
E601C0
0C0000
0C0000
ENDCHAR
STARTCHAR 023B
ENCODING 571
SWIDTH 612 0
DWIDTH 17 0
BBX 14 23 2 -2
BITMAP
0018
07F8
0FFC
3E3C
3830
7030
E060
E060
E060
C0C0
C0C0
C0C0
C180
E180
E100
E300
7300
7A00
3E04
1FFC
0FFC
0C00
0C00
ENDCHAR
STARTCHAR 023C
ENCODING 572
SWIDTH 468 0
DWIDTH 13 0
BBX 11 27 2 -6
BITMAP
0060
0060
00C0
00C0
00C0
0180
1FC0
3FC0
7340
E300
E300
C600
C600
C400
CC00
CC00
E800
F800
7800
7FC0
3FC0
3000
6000
6000
6000
C000
C000
ENDCHAR
STARTCHAR 023D
ENCODING 573
SWIDTH 504 0
DWIDTH 14 0
BBX 14 20 0 0
BITMAP
1800
1800
1800
1800
1800
1800
1800
1800
1800
FFC0
FFC0
1800
1800
1800
1800
1800
1800
1800
1FFC
1FFC
ENDCHAR
STARTCHAR 023E
ENCODING 574
SWIDTH 540 0
DWIDTH 15 0
BBX 15 23 0 -2
BITMAP
000C
FFFE
FFFE
0398
03B0
03B0
03E0
03E0
03C0
03C0
03C0
0380
0380
0380
0380
0780
0780
0F80
0F80
1B80
1B80
3000
3000
ENDCHAR
STARTCHAR 023F
ENCODING 575
SWIDTH 468 0
DWIDTH 13 0
BBX 11 22 1 -7
BITMAP
1FC0
7FC0
6040
E000
E000
7000
3E00
1F80
03C0
00E0
0060
0060
80E0
FFC0
7F80
1C00
0C00
0C00
0E00
0720
07E0
00E0
ENDCHAR
STARTCHAR 0240
ENCODING 576
SWIDTH 468 0
DWIDTH 13 0
BBX 12 22 1 -7
BITMAP
7FE0
7FE0
00C0
01C0
0380
0300
0700
0E00
1C00
1800
3800
7000
6000
F000
F800
1C00
0C00
0E00
0600
0790
03F0
0060
ENDCHAR
STARTCHAR 0241
ENCODING 577
SWIDTH 432 0
DWIDTH 12 0
BBX 11 20 0 0
BITMAP
3F00
FFC0
61E0
00E0
0060
0060
0060
00E0
00E0
01C0
0780
1F00
1C00
1C00
1C00
1C00
1C00
1C00
1C00
1C00
ENDCHAR
STARTCHAR 0242
ENCODING 578
SWIDTH 432 0
DWIDTH 12 0
BBX 11 15 0 0
BITMAP
3F80
FFC0
41E0
00E0
0060
0060
00E0
00E0
01C0
03C0
0780
1E00
1C00
1C00
1C00
ENDCHAR
STARTCHAR 0243
ENCODING 579
SWIDTH 648 0
DWIDTH 18 0
BBX 17 20 0 0
BITMAP
1FF000
1FFC00
181E00
180700
180700
180700
180700
180600
183C00
1FF000
1FFE00
180700
180700
FF8380
FF8380
180300
180700
180F00
1FFE00
1FF800
ENDCHAR
STARTCHAR 0244
ENCODING 580
SWIDTH 720 0
DWIDTH 20 0
BBX 20 20 0 0
BITMAP
3801C0
3801C0
3801C0
3801C0
3801C0
3801C0
3801C0
3801C0
FFFFF0
FFFFF0
3801C0
3801C0
3801C0
1801C0
1801C0
180180
1C0380
0E0700
07FF00
03FC00
ENDCHAR
STARTCHAR 0245
ENCODING 581
SWIDTH 576 0
DWIDTH 16 0
BBX 17 20 0 0
BITMAP
01C000
01C000
03C000
036000
036000
077000
063000
063000
0E3800
0C1800
1C1800
1C1C00
180C00
380E00
300E00
300600
700700
600700
600300
E00380
ENDCHAR
STARTCHAR 0246
ENCODING 582
SWIDTH 540 0
DWIDTH 15 0
BBX 11 23 3 -2
BITMAP
00C0
FFE0
FFE0
C180
C180
C100
C300
C300
C300
C200
FFC0
FFC0
C600
CC00
CC00
CC00
CC00
D800
D800
FFE0
FFE0
3000
3000
ENDCHAR
STARTCHAR 0247
ENCODING 583
SWIDTH 540 0
DWIDTH 15 0
BBX 12 27 2 -6
BITMAP
0060
0060
0040
00C0
00C0
0080
1F80
3FC0
73E0
E370
C370
C630
FFF0
FFF0
CC00
CC00
CC00
F800
7810
3FF0
3FE0
3000
2000
6000
6000
4000
C000
ENDCHAR
STARTCHAR 0248
ENCODING 584
SWIDTH 252 0
DWIDTH 7 0
BBX 9 25 -2 -5
BITMAP
0600
0600
0600
0600
0600
0600
0600
0600
0600
3F80
3F80
0600
0600
0600
0600
0600
0600
0600
0600
0600
0600
0E00
0E00
FC00
F800
ENDCHAR
STARTCHAR 0249
ENCODING 585
SWIDTH 252 0
DWIDTH 7 0
BBX 9 27 -2 -7
BITMAP
0E00
0E00
0400
0000
0000
0E00
0E00
0E00
0E00
0E00
0E00
3F80
3F80
0E00
0E00
0E00
0E00
0E00
0E00
0E00
0E00
0E00
0E00
0E00
9C00
FC00
7000
ENDCHAR
STARTCHAR 024A
ENCODING 586
SWIDTH 756 0
DWIDTH 21 0
BBX 20 27 2 -7
BITMAP
07E180
1FFB80
3C1F80
700780
700780
E00380
E00380
E00380
C00380
C00380
C00380
C00380
C00380
E00380
E00380
700780
700780
3C1F80
1FFB80
0FF380
000380
000380
000380
000380
0003F0
0001F0
000060
ENDCHAR
STARTCHAR 024B
ENCODING 587
SWIDTH 612 0
DWIDTH 17 0
BBX 15 22 2 -7
BITMAP
1F98
3FD8
70F8
E078
E038
C038
C038
C038
C038
C038
C038
E038
7078
7FF8
3FB8
0038
0038
0038
0038
0018
001E
0006
ENDCHAR
STARTCHAR 024C
ENCODING 588
SWIDTH 612 0
DWIDTH 17 0
BBX 17 20 0 0
BITMAP
1FE000
1FFC00
183C00
180E00
180600
180600
180600
180600
180E00
183C00
FFF800
FFF000
183000
183800
181C00
181C00
180E00
180E00
180700
180380
ENDCHAR
STARTCHAR 024D
ENCODING 589
SWIDTH 396 0
DWIDTH 11 0
BBX 11 15 0 0
BITMAP
31E0
3BE0
3E00
3C00
3800
3800
FF00
FF00
3800
3800
3800
3800
3800
3800
3800
ENDCHAR
STARTCHAR 024E
ENCODING 590
SWIDTH 540 0
DWIDTH 15 0
BBX 16 20 0 0
BITMAP
E007
600E
700C
301C
FFFE
FFFE
1C30
0E70
0E60
07E0
03C0
03C0
0180
0180
0180
0180
0180
0180
0180
0180
ENDCHAR
STARTCHAR 024F
ENCODING 591
SWIDTH 504 0
DWIDTH 14 0
BBX 14 22 0 -7
BITMAP
E01C
601C
7018
7038
3038
FFFC
FFFC
1860
1C60
0CE0
0EC0
06C0
0780
0780
0380
0300
0700
0700
0E00
1C00
FC00
6000
ENDCHAR
STARTCHAR 0250
ENCODING 592
SWIDTH 540 0
DWIDTH 15 0
BBX 12 15 2 0
BITMAP
C7C0
DFF0
F070
E030
E030
E070
E070
FFE0
FF80
E000
E000
E000
6040
7FC0
3F80
ENDCHAR
STARTCHAR 0251
ENCODING 593
SWIDTH 612 0
DWIDTH 17 0
BBX 15 15 2 0
BITMAP
1F98
7FF8
7078
E078
E038
C038
C038
C038
C038
C038
C038
E038
7078
7FDE
3F9E
ENDCHAR
STARTCHAR 0252
ENCODING 594
SWIDTH 612 0
DWIDTH 17 0
BBX 16 15 0 0
BITMAP
F1F0
FFFC
3C1C
3C0E
3806
3806
3807
3807
3807
3806
3806
3C0E
3C1C
3FFC
33F0
ENDCHAR
STARTCHAR 0253
ENCODING 595
SWIDTH 612 0
DWIDTH 17 0
BBX 14 21 2 0
BITMAP
7C00
7C00
E000
E000
E000
E000
E7C0
FFF0
F870
F038
E018
E018
E01C
E01C
E01C
E018
E018
F038
F070
FFF0
CFE0
ENDCHAR
STARTCHAR 0254
ENCODING 596
SWIDTH 468 0
DWIDTH 13 0
BBX 11 15 1 0
BITMAP
FE00
FF80
03C0
01C0
00E0
00E0
00E0
00E0
00E0
00E0
00C0
01C0
8380
FF80
FE00
ENDCHAR
STARTCHAR 0255
ENCODING 597
SWIDTH 504 0
DWIDTH 14 0
BBX 13 16 1 -1
BITMAP
0FE0
1FE0
3820
7000
7000
6000
6000
6000
63E0
6FF0
7C30
7838
3830
7FF0
6FE0
E000
ENDCHAR
STARTCHAR 0256
ENCODING 598
SWIDTH 612 0
DWIDTH 17 0
BBX 16 28 2 -7
BITMAP
0038
0038
0038
0038
0038
0038
1FB8
7FF8
7078
E078
E038
C038
C038
C038
C038
C038
C038
E038
7078
7FF8
1FB8
0038
0038
0038
0038
001D
001F
0006
ENDCHAR
STARTCHAR 0257
ENCODING 599
SWIDTH 612 0
DWIDTH 17 0
BBX 15 21 2 0
BITMAP
001E
001E
0038
0038
0038
0038
1FB8
7FF8
7078
E078
E038
C038
C038
C038
C038
C038
C038
E038
7078
7FF8
3F98
ENDCHAR
STARTCHAR 0258
ENCODING 600
SWIDTH 540 0
DWIDTH 15 0
BBX 13 15 1 0
BITMAP
0FC0
3FE0
7070
7030
6038
E038
FFF8
FFF8
0018
0038
0038
0030
4070
7FE0
7FC0
ENDCHAR
STARTCHAR 0259
ENCODING 601
SWIDTH 540 0
DWIDTH 15 0
BBX 13 15 1 0
BITMAP
3F80
7FE0
40F0
0030
0038
0038
0018
FFF8
FFF8
E038
6038
6030
7070
3FE0
1FC0
ENDCHAR
STARTCHAR 025A
ENCODING 602
SWIDTH 756 0
DWIDTH 21 0
BBX 21 15 1 0
BITMAP
3F8000
7FE000
40F000
003000
003900
003F00
01FF00
1FFB80
FE19F8
E038F0
603800
603000
707000
3FE000
1FC000
ENDCHAR
STARTCHAR 025B
ENCODING 603
SWIDTH 468 0
DWIDTH 13 0
BBX 11 15 1 0
BITMAP
1FE0
3FE0
7020
6000
6000
7000
3F80
1F80
7800
E000
E000
E000
E000
7FE0
3FE0
ENDCHAR
STARTCHAR 025C
ENCODING 604
SWIDTH 468 0
DWIDTH 13 0
BBX 11 15 1 0
BITMAP
7F80
FFC0
40E0
00E0
00E0
00C0
1F80
1F80
01C0
0060
0060
0060
80E0
FFC0
FF80
ENDCHAR
STARTCHAR 025D
ENCODING 605
SWIDTH 684 0
DWIDTH 19 0
BBX 18 15 1 0
BITMAP
7F8000
FFC000
40FC00
00FC00
00EC00
00CE40
1F87C0
1F8380
01C000
006000
006000
006000
80E000
FFC000
FF8000
ENDCHAR
STARTCHAR 025E
ENCODING 606
SWIDTH 576 0
DWIDTH 16 0
BBX 13 15 2 0
BITMAP
0FE0
3FF0
7038
E038
E018
C038
C3F0
C3E0
C0F8
C018
E018
E018
7038
3FF0
1FE0
ENDCHAR
STARTCHAR 025F
ENCODING 607
SWIDTH 252 0
DWIDTH 7 0
BBX 9 22 -2 -7
BITMAP
0E00
0E00
0E00
0E00
0E00
0E00
3F80
3F80
0E00
0E00
0E00
0E00
0E00
0E00
0E00
0E00
0E00
0E00
0E00
9C00
FC00
7000
ENDCHAR
STARTCHAR 0260
ENCODING 608
SWIDTH 612 0
DWIDTH 17 0
BBX 16 28 1 -7
BITMAP
000F
000F
001C
001C
001C
001C
0F9C
3FFC
387C
703C
601C
601C
601C
E01C
601C
601C
601C
701C
383C
3FFC
0FDC
001C
001C
0018
0038
3CF8
3FF0
0700
ENDCHAR
STARTCHAR 0261
ENCODING 609
SWIDTH 612 0
DWIDTH 17 0
BBX 13 22 2 -7
BITMAP
1F98
3FD8
70F8
E078
E038
C038
C038
C038
C038
C038
C038
E038
7078
7FF8
1FB8
0038
0038
0030
0070
79F0
7FE0
0E00
ENDCHAR
STARTCHAR 0262
ENCODING 610
SWIDTH 540 0
DWIDTH 15 0
BBX 12 15 2 0
BITMAP
0FE0
3FE0
7820
E000
E000
C000
C000
C3F0
C3F0
C070
C070
E070
7070
7FF0
1FE0
ENDCHAR
STARTCHAR 0263
ENCODING 611
SWIDTH 504 0
DWIDTH 14 0
BBX 14 22 0 -7
BITMAP
E01C
601C
7038
7038
3030
3870
1860
1CE0
0CC0
0EC0
0780
0780
0780
0780
0780
0FC0
0CC0
0CC0
0CC0
0FC0
0780
0300
ENDCHAR
STARTCHAR 0264
ENCODING 612
SWIDTH 504 0
DWIDTH 14 0
BBX 14 15 0 0
BITMAP
E01C
F03C
3030
1860
1CE0
0EC0
0780
0380
0780
0780
0CC0
0CC0
0CC0
0FC0
0780
ENDCHAR
STARTCHAR 0265
ENCODING 613
SWIDTH 612 0
DWIDTH 17 0
BBX 13 21 2 -6
BITMAP
E038
E038
E038
E038
E038
E038
E038
E038
E038
E038
E038
E038
7078
7FF8
3FB8
0038
0038
0038
0038
0038
0038
ENDCHAR
STARTCHAR 0266
ENCODING 614
SWIDTH 612 0
DWIDTH 17 0
BBX 13 21 2 0
BITMAP
7C00
7C00
E000
E000
E000
E000
E7E0
FFF0
F870
F038
E038
E038
E038
E038
E038
E038
E038
E038
E038
E038
E038
ENDCHAR
STARTCHAR 0267
ENCODING 615
SWIDTH 612 0
DWIDTH 17 0
BBX 13 28 2 -7
BITMAP
7C00
7C00
E000
E000
E000
E000
E7E0
FFF0
F870
F038
E038
E038
E038
E038
E038
E038
E038
E038
E038
E038
E038
0038
0038
0038
0038
00F8
00F0
00E0
ENDCHAR
STARTCHAR 0268
ENCODING 616
SWIDTH 252 0
DWIDTH 7 0
BBX 7 20 0 0
BITMAP
38
38
10
00
00
38
38
38
38
38
38
FE
FE
38
38
38
38
38
38
38
ENDCHAR
STARTCHAR 0269
ENCODING 617
SWIDTH 324 0
DWIDTH 9 0
BBX 7 15 2 0
BITMAP
E0
E0
E0
E0
E0
E0
E0
E0
E0
E0
E0
E0
E0
7E
3E
ENDCHAR
STARTCHAR 026A
ENCODING 618
SWIDTH 288 0
DWIDTH 8 0
BBX 7 15 1 0
BITMAP
FE
FE
38
38
38
38
38
38
38
38
38
38
38
FE
FE
ENDCHAR
STARTCHAR 026B
ENCODING 619
SWIDTH 360 0
DWIDTH 10 0
BBX 10 21 0 0
BITMAP
0C00
0C00
0C00
0C00
0C00
0C00
0C00
0C00
0C40
7C40
FFC0
CF80
0C00
0C00
0C00
0C00
0C00
0C00
0C00
0C00
0C00
ENDCHAR
STARTCHAR 026C
ENCODING 620
SWIDTH 324 0
DWIDTH 9 0
BBX 9 21 0 0
BITMAP
0E00
0E00
0E00
0E00
0E00
0E00
0E00
7E00
FE00
CE00
CE00
FF80
7F80
0E00
0E00
0E00
0E00
0E00
0E00
0E00
0E00
ENDCHAR
STARTCHAR 026D
ENCODING 621
SWIDTH 252 0
DWIDTH 7 0
BBX 7 28 2 -7
BITMAP
E0
E0
E0
E0
E0
E0
E0
E0
E0
E0
E0
E0
E0
E0
E0
E0
E0
E0
E0
E0
E0
E0
E0
E0
E0
72
7E
0C
ENDCHAR
STARTCHAR 026E
ENCODING 622
SWIDTH 648 0
DWIDTH 18 0
BBX 15 28 2 -7
BITMAP
E000
E000
E000
E000
E000
E000
FFFE
FFFE
E01C
E038
E030
E060
E0C0
E1C0
E380
E3F0
E3FC
E01C
E00E
E006
E006
0006
0006
000E
001C
1E7C
1FF0
03C0
ENDCHAR
STARTCHAR 026F
ENCODING 623
SWIDTH 900 0
DWIDTH 25 0
BBX 22 15 2 0
BITMAP
E0301C
E0301C
E0301C
E0301C
E0301C
E0301C
E0301C
E0301C
E0301C
E0301C
E0701C
E0703C
70F83C
7FDFFC
3F0FCC
ENDCHAR
STARTCHAR 0270
ENCODING 624
SWIDTH 900 0
DWIDTH 25 0
BBX 22 22 2 -7
BITMAP
E0301C
E0301C
E0301C
E0301C
E0301C
E0301C
E0301C
E0301C
E0301C
E0301C
E0701C
E0703C
70F83C
7FDFFC
3F0FDC
00001C
00001C
00001C
00001C
00001C
00001C
00001C
ENDCHAR
STARTCHAR 0271
ENCODING 625
SWIDTH 900 0
DWIDTH 25 0
BBX 22 22 2 -7
BITMAP
C7C3F0
FFE7F8
F07C38
F0781C
E0381C
E0301C
E0301C
E0301C
E0301C
E0301C
E0301C
E0301C
E0301C
E0301C
E0301C
00001C
00001C
00001C
00001C
00003C
000078
000060
ENDCHAR
STARTCHAR 0272
ENCODING 626
SWIDTH 612 0
DWIDTH 17 0
BBX 16 22 -1 -7
BITMAP
18FC
1FFE
1F0E
1E07
1C07
1C07
1C07
1C07
1C07
1C07
1C07
1C07
1C07
1C07
1C07
1C00
1C00
1C00
1C00
B800
F800
6000
ENDCHAR
STARTCHAR 0273
ENCODING 627
SWIDTH 612 0
DWIDTH 17 0
BBX 16 22 2 -7
BITMAP
C7E0
FFF0
F870
F038
E038
E038
E038
E038
E038
E038
E038
E038
E038
E038
E038
0038
0038
0018
0018
001C
001F
0006
ENDCHAR
STARTCHAR 0274
ENCODING 628
SWIDTH 612 0
DWIDTH 17 0
BBX 13 15 2 0
BITMAP
F018
F018
F818
FC18
EC18
EE18
E618
E718
E398
E198
E1D8
E0F8
E078
E078
E038
ENDCHAR
STARTCHAR 0275
ENCODING 629
SWIDTH 576 0
DWIDTH 16 0
BBX 13 15 2 0
BITMAP
1FC0
3FE0
7070
E038
C038
C018
FFF8
FFF8
C018
C018
C038
E038
7070
3FE0
1FC0
ENDCHAR
STARTCHAR 0276
ENCODING 630
SWIDTH 864 0
DWIDTH 24 0
BBX 21 15 2 0
BITMAP
1F9FF8
3FFFF8
707800
E03800
E03800
C01800
C01FF0
C01FF0
C01800
C01800
C03800
E03800
707800
3FFFF8
1FDFF8
ENDCHAR
STARTCHAR 0277
ENCODING 631
SWIDTH 756 0
DWIDTH 21 0
BBX 18 15 2 0
BITMAP
07F800
1FFE00
380F00
700380
E00180
E001C0
C0C1C0
C0C0C0
C0C0C0
C0C0C0
C0C0C0
C1C1C0
E1E180
7F7F80
3F3F00
ENDCHAR
STARTCHAR 0278
ENCODING 632
SWIDTH 720 0
DWIDTH 20 0
BBX 18 28 1 -7
BITMAP
00C000
00C000
00C000
00C000
00C000
00C000
07F800
1FFE00
3CCF00
70C380
70C380
60C180
60C1C0
E0C1C0
60C1C0
60C180
70C380
70C380
38C700
1FFE00
07F800
00C000
00C000
00C000
00C000
00C000
00C000
00C000
ENDCHAR
STARTCHAR 0279
ENCODING 633
SWIDTH 396 0
DWIDTH 11 0
BBX 9 15 0 0
BITMAP
0180
0180
0180
0180
0180
0180
0180
0180
0180
0380
0380
0780
0F80
7D80
F980
ENDCHAR
STARTCHAR 027A
ENCODING 634
SWIDTH 396 0
DWIDTH 11 0
BBX 9 21 0 0
BITMAP
0180
0180
0180
0180
0180
0180
0180
0180
0180
0180
0180
0180
0180
0180
0180
0380
0380
0780
0F80
7D80
F980
ENDCHAR
STARTCHAR 027B
ENCODING 635
SWIDTH 396 0
DWIDTH 11 0
BBX 12 22 0 -7
BITMAP
0180
0180
0180
0180
0180
0180
0180
0180
0180
0380
0380
0780
0F80
7D80
F980
0180
0180
0180
0180
01C0
00F0
0070
ENDCHAR
STARTCHAR 027C
ENCODING 636
SWIDTH 396 0
DWIDTH 11 0
BBX 9 22 2 -7
BITMAP
C780
EF80
F800
F000
E000
E000
E000
E000
E000
E000
E000
E000
E000
E000
E000
E000
E000
E000
E000
E000
E000
E000
ENDCHAR
STARTCHAR 027D
ENCODING 637
SWIDTH 396 0
DWIDTH 11 0
BBX 9 22 2 -7
BITMAP
C780
EF80
F800
F000
E000
E000
E000
E000
E000
E000
E000
E000
E000
E000
E000
E000
E000
E000
E000
7200
7E00
0C00
ENDCHAR
STARTCHAR 027E
ENCODING 638
SWIDTH 324 0
DWIDTH 9 0
BBX 7 15 2 0
BITMAP
3E
7E
E0
E0
E0
E0
E0
E0
E0
E0
E0
E0
E0
E0
E0
ENDCHAR
STARTCHAR 027F
ENCODING 639
SWIDTH 324 0
DWIDTH 9 0
BBX 6 22 1 -7
BITMAP
F8
FC
1C
0C
0C
0C
0C
0C
0C
0C
0C
0C
0C
0C
0C
0C
0C
0C
0C
0C
0C
0C
ENDCHAR
STARTCHAR 0280
ENCODING 640
SWIDTH 540 0
DWIDTH 15 0
BBX 13 15 2 0
BITMAP
FFC0
FFE0
E070
E030
E030
E030
E070
FFE0
FFC0
E180
E1C0
E0E0
E060
E070
E038
ENDCHAR
STARTCHAR 0281
ENCODING 641
SWIDTH 540 0
DWIDTH 15 0
BBX 13 15 2 0
BITMAP
E038
E070
E060
E0E0
E1C0
E180
FF80
FFE0
E070
E030
E030
E030
E070
FFE0
FFC0
ENDCHAR
STARTCHAR 0282
ENCODING 642
SWIDTH 468 0
DWIDTH 13 0
BBX 11 20 1 -6
BITMAP
1FC0
7FC0
6040
E000
E000
7000
3E00
1F80
03C0
00E0
0060
0060
80E0
FFC0
FF80
E000
E000
6000
7E00
3E00
ENDCHAR
STARTCHAR 0283
ENCODING 643
SWIDTH 252 0
DWIDTH 7 0
BBX 9 28 -1 -7
BITMAP
0780
0F80
0C00
1C00
1C00
1C00
1C00
1C00
1C00
1C00
1C00
1C00
1C00
1C00
1C00
1C00
1C00
1C00
1C00
1C00
1C00
1C00
1C00
1C00
1C00
B800
F800
6000
ENDCHAR
STARTCHAR 0284
ENCODING 644
SWIDTH 252 0
DWIDTH 7 0
BBX 9 28 -1 -7
BITMAP
0780
0F80
0C00
1C00
1C00
1C00
1C00
1C00
1C00
1C00
1C00
1C00
7F00
7F00
1C00
1C00
1C00
1C00
1C00
1C00
1C00
1C00
1C00
1C00
1C00
B800
F800
6000
ENDCHAR
STARTCHAR 0285
ENCODING 645
SWIDTH 252 0
DWIDTH 7 0
BBX 8 22 0 -7
BITMAP
F0
F0
38
38
38
38
38
38
38
38
38
38
38
38
38
38
38
38
38
1C
1F
06
ENDCHAR
STARTCHAR 0286
ENCODING 646
SWIDTH 252 0
DWIDTH 7 0
BBX 11 28 -3 -7
BITMAP
01E0
03E0
0300
0700
0700
0700
0700
0700
0700
0700
0700
0700
0700
0700
0700
0700
0700
0700
0700
0700
0700
7FC0
FFC0
E700
C700
EE00
7E00
1800
ENDCHAR
STARTCHAR 0287
ENCODING 647
SWIDTH 360 0
DWIDTH 10 0
BBX 9 18 1 -3
BITMAP
F800
FC00
1C00
0C00
0C00
0C00
0C00
0C00
0C00
0C00
0C00
0C00
0C00
FF80
FF00
0C00
0C00
0C00
ENDCHAR
STARTCHAR 0288
ENCODING 648
SWIDTH 360 0
DWIDTH 10 0
BBX 9 25 0 -7
BITMAP
1800
1800
1800
7F80
FF80
1800
1800
1800
1800
1800
1800
1800
1800
1800
1800
1800
1800
1800
1800
1800
1800
1800
1C00
0F80
0380
ENDCHAR
STARTCHAR 0289
ENCODING 649
SWIDTH 612 0
DWIDTH 17 0
BBX 17 15 0 0
BITMAP
380E00
380E00
380E00
380E00
380E00
380E00
FFFF80
FFFF80
380E00
380E00
380E00
380E00
1C1E00
1FF600
0FE600
ENDCHAR
STARTCHAR 028A
ENCODING 650
SWIDTH 576 0
DWIDTH 16 0
BBX 15 15 1 0
BITMAP
FCFE
FCFE
1C70
3838
7018
601C
600C
600C
600C
600C
601C
701C
3838
1FF0
0FE0
ENDCHAR
STARTCHAR 028B
ENCODING 651
SWIDTH 612 0
DWIDTH 17 0
BBX 13 15 2 0
BITMAP
E1E0
E1F0
E038
E038
E038
E038
E038
E038
E038
E038
E038
6030
7070
3FE0
1FC0
ENDCHAR
STARTCHAR 028C
ENCODING 652
SWIDTH 504 0
DWIDTH 14 0
BBX 14 15 0 0
BITMAP
0380
0780
0780
0FC0
0CC0
0CE0
1CE0
1860
3870
3830
3030
7038
7018
601C
E01C
ENDCHAR
STARTCHAR 028D
ENCODING 653
SWIDTH 756 0
DWIDTH 21 0
BBX 21 15 0 0
BITMAP
0E01C0
0F03C0
0F03C0
1F03C0
1F86E0
198660
198660
39CE60
38CC70
30CC30
30DC30
70F838
607838
607818
E07018
ENDCHAR
STARTCHAR 028E
ENCODING 654
SWIDTH 504 0
DWIDTH 14 0
BBX 14 22 0 0
BITMAP
0018
007C
00F4
01C0
0180
0380
0300
0700
0780
0780
0FC0
0CC0
0CC0
1CE0
1860
3870
3870
3030
7038
7018
601C
E01C
ENDCHAR
STARTCHAR 028F
ENCODING 655
SWIDTH 468 0
DWIDTH 13 0
BBX 13 15 0 0
BITMAP
E038
7030
7070
38E0
18E0
1DC0
0D80
0780
0700
0700
0700
0700
0700
0700
0700
ENDCHAR
STARTCHAR 0290
ENCODING 656
SWIDTH 468 0
DWIDTH 13 0
BBX 14 22 1 -7
BITMAP
7FE0
7FE0
00C0
01C0
0380
0300
0700
0E00
1C00
1800
3800
7000
6000
FFE0
FFE0
0060
0060
0060
0060
0070
003C
0018
ENDCHAR
STARTCHAR 0291
ENCODING 657
SWIDTH 540 0
DWIDTH 15 0
BBX 14 17 1 -2
BITMAP
7FE0
7FE0
00C0
01C0
0380
0300
0700
0E00
1C00
18F8
39FC
739C
671C
FFF8
FFF0
0C00
0C00
ENDCHAR
STARTCHAR 0292
ENCODING 658
SWIDTH 468 0
DWIDTH 13 0
BBX 13 22 0 -7
BITMAP
7FF0
7FF0
0070
00E0
01C0
0380
0700
0E00
0C00
1F80
1FE0
0070
0030
0038
0038
0038
0038
0030
0070
F1E0
FFC0
0E00
ENDCHAR
STARTCHAR 0293
ENCODING 659
SWIDTH 468 0
DWIDTH 13 0
BBX 15 22 -1 -7
BITMAP
3FF8
3FF8
0038
0070
00E0
01C0
0380
0700
0600
0FC0
0FF0
0038
0018
001C
0E1C
7FDC
7BFC
E078
603C
79FE
3FE6
0700
ENDCHAR
STARTCHAR 0294
ENCODING 660
SWIDTH 396 0
DWIDTH 11 0
BBX 11 21 0 0
BITMAP
3F80
FFC0
40E0
00E0
0060
0060
00E0
00E0
01C0
0380
0780
1E00
1C00
1C00
1C00
1C00
1C00
1C00
1C00
1C00
1C00
ENDCHAR
STARTCHAR 0295
ENCODING 661
SWIDTH 396 0
DWIDTH 11 0
BBX 10 21 1 0
BITMAP
3F80
7FC0
E0C0
C000
C000
C000
C000
E000
6000
7800
3C00
0E00
0600
0600
0600
0600
0600
0600
0600
0600
0600
ENDCHAR
STARTCHAR 0296
ENCODING 662
SWIDTH 396 0
DWIDTH 11 0
BBX 11 21 0 0
BITMAP
1C00
1C00
1C00
1C00
1C00
1C00
1C00
1C00
1C00
1E00
0F80
0380
01C0
00E0
00E0
0060
0060
00E0
40E0
FFC0
3F80
ENDCHAR
STARTCHAR 0297
ENCODING 663
SWIDTH 468 0
DWIDTH 13 0
BBX 10 22 2 -7
BITMAP
0FC0
3FC0
7840
6000
E000
E000
C000
C000
C000
C000
C000
C000
C000
C000
C000
C000
E000
E000
7000
3DC0
1FC0
0700
ENDCHAR
STARTCHAR 0298
ENCODING 664
SWIDTH 756 0
DWIDTH 21 0
BBX 18 20 2 0
BITMAP
07F800
1FFC00
3C0F00
780700
700380
E00180
E001C0
E001C0
C081C0
C1C1C0
C1E1C0
C0C1C0
E001C0
E001C0
E00180
700380
700700
3C0F00
1FFE00
07F800
ENDCHAR
STARTCHAR 0299
ENCODING 665
SWIDTH 576 0
DWIDTH 16 0
BBX 13 15 2 0
BITMAP
FFC0
FFE0
E0F0
E030
E030
E070
FFE0
FFE0
E0F0
E038
E038
E038
E070
FFF0
FFC0
ENDCHAR
STARTCHAR 029A
ENCODING 666
SWIDTH 576 0
DWIDTH 16 0
BBX 14 15 1 0
BITMAP
1FC0
3FF0
7078
6018
601C
701C
3F0C
1F0C
780C
E01C
E01C
E018
7038
7FF0
1FE0
ENDCHAR
STARTCHAR 029B
ENCODING 667
SWIDTH 540 0
DWIDTH 15 0
BBX 14 21 2 0
BITMAP
001C
003C
0030
0030
0030
0030
0FF0
3FE0
7820
E000
E000
C000
C000
C3F0
C3F0
C070
C070
E070
7070
7FF0
1FE0
ENDCHAR
STARTCHAR 029C
ENCODING 668
SWIDTH 612 0
DWIDTH 17 0
BBX 13 15 2 0
BITMAP
E018
E018
E018
E018
E018
E018
FFF8
FFF8
E018
E018
E018
E018
E018
E018
E018
ENDCHAR
STARTCHAR 029D
ENCODING 669
SWIDTH 252 0
DWIDTH 7 0
BBX 10 27 -3 -7
BITMAP
0700
0700
0200
0000
0000
0700
0700
0700
0700
0700
0700
0700
0700
0700
0700
0700
0700
0700
0700
0700
3FC0
7FC0
E700
E700
7600
7E00
1800
ENDCHAR
STARTCHAR 029E
ENCODING 670
SWIDTH 504 0
DWIDTH 14 0
BBX 11 21 1 -6
BITMAP
C060
E060
7060
3860
1860
1C60
0EE0
07E0
03E0
0760
0E60
1C60
3860
7060
E060
0060
0060
0060
0060
0060
0060
ENDCHAR
STARTCHAR 029F
ENCODING 671
SWIDTH 432 0
DWIDTH 12 0
BBX 10 15 2 0
BITMAP
E000
E000
E000
E000
E000
E000
E000
E000
E000
E000
E000
E000
E000
FFC0
FFC0
ENDCHAR
STARTCHAR 02A0
ENCODING 672
SWIDTH 612 0
DWIDTH 17 0
BBX 16 28 2 -7
BITMAP
000F
001F
0038
0038
0038
0038
1FB8
7FF8
7078
E078
E038
C038
C038
C038
C038
C038
C038
E038
7078
7FF8
1FB8
0038
0038
0038
0038
0038
0038
0038
ENDCHAR
STARTCHAR 02A1
ENCODING 673
SWIDTH 396 0
DWIDTH 11 0
BBX 11 21 0 0
BITMAP
3F80
FFC0
40E0
00E0
0060
0060
00E0
00E0
01C0
03C0
0780
0E00
0C00
0C00
7F80
7F80
0C00
0C00
0C00
0C00
0C00
ENDCHAR
STARTCHAR 02A2
ENCODING 674
SWIDTH 396 0
DWIDTH 11 0
BBX 10 21 1 0
BITMAP
3F80
7FC0
E0C0
C000
C000
C000
C000
E000
6000
7000
3C00
1E00
0600
0600
3FC0
3FC0
0600
0600
0600
0600
0600
ENDCHAR
STARTCHAR 02A3
ENCODING 675
SWIDTH 936 0
DWIDTH 26 0
BBX 24 21 2 0
BITMAP
003800
003800
003800
003800
003800
003800
1FBFFE
7FFFFE
70780E
E0780C
E0381C
C03838
C03830
C03860
C038E0
C039C0
C03980
E03B80
707F00
7FFFFF
3F9FFF
ENDCHAR
STARTCHAR 02A4
ENCODING 676
SWIDTH 972 0
DWIDTH 27 0
BBX 24 28 2 -7
BITMAP
003800
003800
003800
003800
003800
003800
1FBFFF
7FFFFF
70780E
E0781C
E03818
C03830
C03860
C038E0
C039C0
C039F8
C039FC
E0380E
707807
7FF803
3F9803
000003
000003
000007
00000E
000F3E
000FF8
0001E0
ENDCHAR
STARTCHAR 02A5
ENCODING 677
SWIDTH 1008 0
DWIDTH 28 0
BBX 26 23 2 -2
BITMAP
00380000
00380000
00380000
00380000
00380000
00380000
1FBFFE00
7FFFFE00
70780E00
E0780C00
E0381C00
C0383800
C0383000
C0386000
C038E000
C039C780
C0399FC0
E03B98C0
707F30C0
7FFFFFC0
3F9FFF80
00006000
0000C000
ENDCHAR
STARTCHAR 02A6
ENCODING 678
SWIDTH 756 0
DWIDTH 21 0
BBX 20 18 0 0
BITMAP
180000
180000
180000
7FFFE0
FFFFE0
187020
187000
187000
183800
183E00
180FC0
1803E0
1800F0
180070
180070
1C0070
1FFFE0
07FF80
ENDCHAR
STARTCHAR 02A7
ENCODING 679
SWIDTH 504 0
DWIDTH 14 0
BBX 15 28 0 -7
BITMAP
001E
003E
0070
1870
1870
1870
7FF0
FFF0
1870
1870
1870
1870
1870
1870
1870
1870
1870
1870
1C70
1FF0
0FF0
0070
0070
0070
0070
02E0
03E0
0180
ENDCHAR
STARTCHAR 02A8
ENCODING 680
SWIDTH 828 0
DWIDTH 23 0
BBX 23 18 0 0
BITMAP
180000
180000
180000
7F81FC
FF87FC
180F08
180C00
181C00
181C00
181C00
181800
1818F8
181FFC
181F0E
181E0E
1C3E0E
1FF7FC
0FC3F8
ENDCHAR
STARTCHAR 02A9
ENCODING 681
SWIDTH 828 0
DWIDTH 23 0
BBX 22 28 0 -7
BITMAP
07E000
0FC000
1C0000
1C0000
1C0000
180000
3FE7E0
FFEFF8
187838
18701C
18701C
18701C
18701C
18701C
18701C
18701C
18701C
18701C
18701C
18701C
18701C
00001C
00001C
00001C
00001C
000038
0000F8
0000E0
ENDCHAR
STARTCHAR 02AA
ENCODING 682
SWIDTH 648 0
DWIDTH 18 0
BBX 15 21 2 0
BITMAP
E000
E000
E000
E000
E000
E000
E1FC
E7FE
E604
EE00
E600
E700
E3E0
E1F8
E03C
E00E
E006
E006
F00E
FFFC
EFF8
ENDCHAR
STARTCHAR 02AB
ENCODING 683
SWIDTH 576 0
DWIDTH 16 0
BBX 14 21 2 0
BITMAP
E000
E000
E000
E000
E000
E000
FFF8
FFF8
E038
E030
E070
E0E0
E0C0
E1C0
E380
E300
E600
EE00
FC00
FFFC
FFFC
ENDCHAR
STARTCHAR 02AC
ENCODING 684
SWIDTH 504 0
DWIDTH 14 0
BBX 14 20 0 0
BITMAP
C30C
C30C
6788
6798
6498
2CD8
3CF0
3870
3870
1860
0000
C30C
478C
6798
6698
6CD8
2CD0
3C70
3870
1870
ENDCHAR
STARTCHAR 02AD
ENCODING 685
SWIDTH 576 0
DWIDTH 16 0
BBX 12 20 2 0
BITMAP
FFF0
FFF0
E030
E030
E030
E030
E030
0000
0000
0000
0000
0000
0000
0000
FFF0
FFF0
E030
E030
E030
E030
ENDCHAR
STARTCHAR 02AE
ENCODING 686
SWIDTH 612 0
DWIDTH 17 0
BBX 16 22 -1 -7
BITMAP
F803
F803
1C03
1C03
1C03
1C03
1C03
1C03
1C03
1C07
0C07
0C07
0E0F
0FFB
03F3
0003
0003
0003
0003
0003
0003
0003
ENDCHAR
STARTCHAR 02AF
ENCODING 687
SWIDTH 612 0
DWIDTH 17 0
BBX 19 22 -1 -7
BITMAP
F80300
F80300
1C0300
1C0300
1C0300
1C0300
1C0300
1C0300
1C0300
1C0700
0C0700
0C0700
0E0F00
0FFB00
03F300
000300
000300
000300
000300
0003A0
0003E0
0000C0
ENDCHAR
STARTCHAR 02B0
ENCODING 688
SWIDTH 396 0
DWIDTH 11 0
BBX 8 13 2 8
BITMAP
80
80
80
80
BE
C6
C3
83
83
83
83
83
83
ENDCHAR
STARTCHAR 02B1
ENCODING 689
SWIDTH 396 0
DWIDTH 11 0
BBX 8 13 2 8
BITMAP
60
E0
80
80
BE
C6
C3
83
83
83
83
83
83
ENDCHAR
STARTCHAR 02B2
ENCODING 690
SWIDTH 144 0
DWIDTH 4 0
BBX 4 16 -1 4
BITMAP
30
10
00
10
10
10
10
10
10
10
10
10
10
10
30
E0
ENDCHAR
STARTCHAR 02B3
ENCODING 691
SWIDTH 252 0
DWIDTH 7 0
BBX 5 9 2 8
BITMAP
B8
E0
C0
80
80
80
80
80
80
ENDCHAR
STARTCHAR 02B4
ENCODING 692
SWIDTH 252 0
DWIDTH 7 0
BBX 6 9 0 8
BITMAP
0C
0C
0C
0C
0C
0C
0C
1C
E4
ENDCHAR
STARTCHAR 02B5
ENCODING 693
SWIDTH 252 0
DWIDTH 7 0
BBX 8 13 0 4
BITMAP
0C
0C
0C
0C
0C
0C
0C
1C
EC
0C
0C
0C
07
ENDCHAR
STARTCHAR 02B6
ENCODING 694
SWIDTH 360 0
DWIDTH 10 0
BBX 8 9 2 8
BITMAP
83
86
8C
88
FC
86
82
86
FC
ENDCHAR
STARTCHAR 02B7
ENCODING 695
SWIDTH 504 0
DWIDTH 14 0
BBX 14 9 0 8
BITMAP
C30C
430C
6788
6698
2498
2CD0
3C50
3870
1860
ENDCHAR
STARTCHAR 02B8
ENCODING 696
SWIDTH 324 0
DWIDTH 9 0
BBX 9 13 0 4
BITMAP
C180
4180
6100
2300
3200
3600
1600
1C00
0C00
0800
1800
3000
E000
ENDCHAR
STARTCHAR 02B9
ENCODING 697
SWIDTH 144 0
DWIDTH 4 0
BBX 5 7 0 13
BITMAP
38
70
70
70
60
60
C0
ENDCHAR
STARTCHAR 02BA
ENCODING 698
SWIDTH 324 0
DWIDTH 9 0
BBX 10 7 0 13
BITMAP
39C0
7180
7380
7380
6300
6300
C200
ENDCHAR
STARTCHAR 02BB
ENCODING 699
SWIDTH 144 0
DWIDTH 4 0
BBX 4 7 0 13
BITMAP
10
30
30
70
70
60
E0
ENDCHAR
STARTCHAR 02BC
ENCODING 700
SWIDTH 144 0
DWIDTH 4 0
BBX 5 7 0 13
BITMAP
38
70
70
70
60
60
C0
ENDCHAR
STARTCHAR 02BD
ENCODING 701
SWIDTH 144 0
DWIDTH 4 0
BBX 4 7 0 13
BITMAP
E0
60
70
70
30
30
10
ENDCHAR
STARTCHAR 02BE
ENCODING 702
SWIDTH 144 0
DWIDTH 4 0
BBX 3 6 1 16
BITMAP
80
C0
60
60
E0
C0
ENDCHAR
STARTCHAR 02BF
ENCODING 703
SWIDTH 144 0
DWIDTH 4 0
BBX 3 6 1 16
BITMAP
60
E0
80
80
E0
60
ENDCHAR
STARTCHAR 02C0
ENCODING 704
SWIDTH 288 0
DWIDTH 8 0
BBX 7 8 0 13
BITMAP
FC
46
06
02
06
1C
38
30
ENDCHAR
STARTCHAR 02C1
ENCODING 705
SWIDTH 288 0
DWIDTH 8 0
BBX 7 8 1 13
BITMAP
7E
C4
C0
80
C0
70
18
18
ENDCHAR
STARTCHAR 02C2
ENCODING 706
SWIDTH 252 0
DWIDTH 7 0
BBX 6 6 1 16
BITMAP
0C
30
C0
60
18
04
ENDCHAR
STARTCHAR 02C3
ENCODING 707
SWIDTH 252 0
DWIDTH 7 0
BBX 6 6 1 16
BITMAP
C0
30
0C
18
60
80
ENDCHAR
STARTCHAR 02C4
ENCODING 708
SWIDTH 252 0
DWIDTH 7 0
BBX 6 7 1 15
BITMAP
20
30
30
48
48
84
84
ENDCHAR
STARTCHAR 02C5
ENCODING 709
SWIDTH 252 0
DWIDTH 7 0
BBX 7 7 0 15
BITMAP
C2
42
44
24
28
18
10
ENDCHAR
STARTCHAR 02C6
ENCODING 710
SWIDTH 396 0
DWIDTH 11 0
BBX 9 4 1 17
BITMAP
1E00
3E00
7300
E180
ENDCHAR
STARTCHAR 02C7
ENCODING 711
SWIDTH 396 0
DWIDTH 11 0
BBX 9 4 1 17
BITMAP
E180
7300
3E00
1C00
ENDCHAR
STARTCHAR 02C8
ENCODING 712
SWIDTH 144 0
DWIDTH 4 0
BBX 2 7 1 14
BITMAP
C0
C0
C0
C0
C0
C0
C0
ENDCHAR
STARTCHAR 02C9
ENCODING 713
SWIDTH 360 0
DWIDTH 10 0
BBX 8 2 1 17
BITMAP
FF
FF
ENDCHAR
STARTCHAR 02CA
ENCODING 714
SWIDTH 252 0
DWIDTH 7 0
BBX 5 4 1 17
BITMAP
38
30
70
E0
ENDCHAR
STARTCHAR 02CB
ENCODING 715
SWIDTH 252 0
DWIDTH 7 0
BBX 5 4 1 17
BITMAP
E0
70
38
18
ENDCHAR
STARTCHAR 02CC
ENCODING 716
SWIDTH 144 0
DWIDTH 4 0
BBX 2 8 1 -6
BITMAP
C0
C0
C0
C0
C0
C0
C0
C0
ENDCHAR
STARTCHAR 02CD
ENCODING 717
SWIDTH 360 0
DWIDTH 10 0
BBX 8 2 1 -4
BITMAP
FF
FF
ENDCHAR
STARTCHAR 02CE
ENCODING 718
SWIDTH 252 0
DWIDTH 7 0
BBX 6 5 1 -6
BITMAP
E0
70
30
18
0C
ENDCHAR
STARTCHAR 02CF
ENCODING 719
SWIDTH 252 0
DWIDTH 7 0
BBX 6 5 1 -6
BITMAP
1C
38
70
60
C0
ENDCHAR
STARTCHAR 02D0
ENCODING 720
SWIDTH 288 0
DWIDTH 8 0
BBX 5 15 2 0
BITMAP
F8
70
20
20
00
00
00
00
00
00
00
20
20
70
F8
ENDCHAR
STARTCHAR 02D1
ENCODING 721
SWIDTH 288 0
DWIDTH 8 0
BBX 5 4 2 11
BITMAP
F8
70
20
20
ENDCHAR
STARTCHAR 02D2
ENCODING 722
SWIDTH 180 0
DWIDTH 5 0
BBX 3 6 1 5
BITMAP
C0
60
20
60
E0
80
ENDCHAR
STARTCHAR 02D3
ENCODING 723
SWIDTH 180 0
DWIDTH 5 0
BBX 3 5 1 5
BITMAP
60
C0
C0
C0
60
ENDCHAR
STARTCHAR 02D4
ENCODING 724
SWIDTH 252 0
DWIDTH 7 0
BBX 6 5 1 6
BITMAP
30
30
30
FC
FC
ENDCHAR
STARTCHAR 02D5
ENCODING 725
SWIDTH 252 0
DWIDTH 7 0
BBX 6 5 1 6
BITMAP
FC
FC
30
30
30
ENDCHAR
STARTCHAR 02D6
ENCODING 726
SWIDTH 252 0
DWIDTH 7 0
BBX 6 5 1 6
BITMAP
30
30
FC
30
30
ENDCHAR
STARTCHAR 02D7
ENCODING 727
SWIDTH 288 0
DWIDTH 8 0
BBX 6 1 1 8
BITMAP
FC
ENDCHAR
STARTCHAR 02D8
ENCODING 728
SWIDTH 360 0
DWIDTH 10 0
BBX 9 4 1 17
BITMAP
C180
C180
7F00
3E00
ENDCHAR
STARTCHAR 02D9
ENCODING 729
SWIDTH 180 0
DWIDTH 5 0
BBX 3 3 1 17
BITMAP
E0
E0
40
ENDCHAR
STARTCHAR 02DA
ENCODING 730
SWIDTH 288 0
DWIDTH 8 0
BBX 6 6 1 17
BITMAP
30
7C
C4
C4
CC
78
ENDCHAR
STARTCHAR 02DB
ENCODING 731
SWIDTH 216 0
DWIDTH 6 0
BBX 5 6 1 -6
BITMAP
20
60
C0
C0
F8
78
ENDCHAR
STARTCHAR 02DC
ENCODING 732
SWIDTH 432 0
DWIDTH 12 0
BBX 10 3 1 17
BITMAP
7C40
FFC0
C780
ENDCHAR
STARTCHAR 02DD
ENCODING 733
SWIDTH 432 0
DWIDTH 12 0
BBX 10 4 1 17
BITMAP
39C0
3380
6300
C600
ENDCHAR
STARTCHAR 02DE
ENCODING 734
SWIDTH 216 0
DWIDTH 6 0
BBX 10 6 -3 5
BITMAP
0800
F800
FC00
1C00
0FC0
0780
ENDCHAR
STARTCHAR 02DF
ENCODING 735
SWIDTH 252 0
DWIDTH 7 0
BBX 6 5 1 17
BITMAP
CC
78
30
78
48
ENDCHAR
STARTCHAR 02E0
ENCODING 736
SWIDTH 324 0
DWIDTH 9 0
BBX 9 13 0 4
BITMAP
C180
4100
6300
2300
3600
1600
1C00
0C00
1C00
1400
1600
1600
1C00
ENDCHAR
STARTCHAR 02E1
ENCODING 737
SWIDTH 144 0
DWIDTH 4 0
BBX 1 13 2 8
BITMAP
80
80
80
80
80
80
80
80
80
80
80
80
80
ENDCHAR
STARTCHAR 02E2
ENCODING 738
SWIDTH 288 0
DWIDTH 8 0
BBX 7 9 1 8
BITMAP
7E
C4
80
E0
38
0E
06
86
FC
ENDCHAR
STARTCHAR 02E3
ENCODING 739
SWIDTH 324 0
DWIDTH 9 0
BBX 8 9 1 8
BITMAP
C3
46
6C
38
18
38
64
C6
C3
ENDCHAR
STARTCHAR 02E4
ENCODING 740
SWIDTH 252 0
DWIDTH 7 0
BBX 7 13 0 8
BITMAP
1C
7E
40
C0
40
60
30
18
08
08
08
08
08
ENDCHAR
STARTCHAR 02E5
ENCODING 741
SWIDTH 396 0
DWIDTH 11 0
BBX 7 19 2 0
BITMAP
FE
FE
02
02
02
02
02
02
02
02
02
02
02
02
02
02
02
02
02
ENDCHAR
STARTCHAR 02E6
ENCODING 742
SWIDTH 396 0
DWIDTH 11 0
BBX 7 19 2 0
BITMAP
02
02
02
02
FE
FE
02
02
02
02
02
02
02
02
02
02
02
02
02
ENDCHAR
STARTCHAR 02E7
ENCODING 743
SWIDTH 396 0
DWIDTH 11 0
BBX 7 19 2 0
BITMAP
02
02
02
02
02
02
02
02
FE
FE
02
02
02
02
02
02
02
02
02
ENDCHAR
STARTCHAR 02E8
ENCODING 744
SWIDTH 396 0
DWIDTH 11 0
BBX 7 19 2 0
BITMAP
02
02
02
02
02
02
02
02
02
02
02
02
02
FE
02
02
02
02
02
ENDCHAR
STARTCHAR 02E9
ENCODING 745
SWIDTH 396 0
DWIDTH 11 0
BBX 7 19 2 0
BITMAP
02
02
02
02
02
02
02
02
02
02
02
02
02
02
02
02
02
FE
FE
ENDCHAR
STARTCHAR 02EA
ENCODING 746
SWIDTH 396 0
DWIDTH 11 0
BBX 7 10 2 5
BITMAP
C0
C0
C0
C0
C0
C0
C0
C0
C0
FE
ENDCHAR
STARTCHAR 02EB
ENCODING 747
SWIDTH 396 0
DWIDTH 11 0
BBX 7 10 2 5
BITMAP
C0
C0
C0
C0
FE
FE
C0
C0
C0
C0
ENDCHAR
STARTCHAR 02EC
ENCODING 748
SWIDTH 396 0
DWIDTH 11 0
BBX 9 5 1 -6
BITMAP
C180
7300
3F00
1E00
0C00
ENDCHAR
STARTCHAR 02ED
ENCODING 749
SWIDTH 468 0
DWIDTH 13 0
BBX 12 5 1 17
BITMAP
FFF0
FFF0
0000
0000
FFF0
ENDCHAR
STARTCHAR 02EE
ENCODING 750
SWIDTH 324 0
DWIDTH 9 0
BBX 10 7 0 13
BITMAP
39C0
7180
7380
7380
6300
6300
C200
ENDCHAR
STARTCHAR 02EF
ENCODING 751
SWIDTH 396 0
DWIDTH 11 0
BBX 9 7 1 -7
BITMAP
C180
6180
7300
3600
1E00
1C00
0C00
ENDCHAR
STARTCHAR 02F0
ENCODING 752
SWIDTH 396 0
DWIDTH 11 0
BBX 9 6 1 -7
BITMAP
1C00
1E00
3600
7300
6380
C180
ENDCHAR
STARTCHAR 02F1
ENCODING 753
SWIDTH 324 0
DWIDTH 9 0
BBX 7 6 1 -6
BITMAP
0E
3E
F0
F0
3C
0E
ENDCHAR
STARTCHAR 02F2
ENCODING 754
SWIDTH 324 0
DWIDTH 9 0
BBX 7 7 1 -6
BITMAP
E0
78
1E
1E
78
E0
80
ENDCHAR
STARTCHAR 02F3
ENCODING 755
SWIDTH 324 0
DWIDTH 9 0
BBX 6 6 2 -8
BITMAP
F8
8C
8C
8C
F8
20
ENDCHAR
STARTCHAR 02F4
ENCODING 756
SWIDTH 252 0
DWIDTH 7 0
BBX 5 4 1 8
BITMAP
E0
70
38
18
ENDCHAR
STARTCHAR 02F5
ENCODING 757
SWIDTH 432 0
DWIDTH 12 0
BBX 10 4 1 8
BITMAP
E700
7380
3180
18C0
ENDCHAR
STARTCHAR 02F6
ENCODING 758
SWIDTH 432 0
DWIDTH 12 0
BBX 10 4 1 8
BITMAP
39C0
3380
6300
C600
ENDCHAR
STARTCHAR 02F7
ENCODING 759
SWIDTH 432 0
DWIDTH 12 0
BBX 10 3 1 -5
BITMAP
7840
7FC0
C780
ENDCHAR
STARTCHAR 02F8
ENCODING 760
SWIDTH 252 0
DWIDTH 7 0
BBX 3 15 2 5
BITMAP
E0
E0
E0
60
00
00
00
00
00
00
00
00
E0
E0
E0
ENDCHAR
STARTCHAR 02F9
ENCODING 761
SWIDTH 252 0
DWIDTH 7 0
BBX 6 6 1 13
BITMAP
FC
FC
C0
C0
C0
C0
ENDCHAR
STARTCHAR 02FA
ENCODING 762
SWIDTH 252 0
DWIDTH 7 0
BBX 6 6 1 13
BITMAP
FC
FC
0C
0C
0C
0C
ENDCHAR
STARTCHAR 02FB
ENCODING 763
SWIDTH 252 0
DWIDTH 7 0
BBX 6 6 1 0
BITMAP
C0
C0
C0
C0
C0
FC
ENDCHAR
STARTCHAR 02FC
ENCODING 764
SWIDTH 252 0
DWIDTH 7 0
BBX 6 6 1 0
BITMAP
0C
0C
0C
0C
0C
FC
ENDCHAR
STARTCHAR 02FD
ENCODING 765
SWIDTH 504 0
DWIDTH 14 0
BBX 13 5 1 -6
BITMAP
C018
C018
C018
FFF8
FFF8
ENDCHAR
STARTCHAR 02FE
ENCODING 766
SWIDTH 504 0
DWIDTH 14 0
BBX 13 5 1 -6
BITMAP
C000
C000
C000
FFF8
FFF8
ENDCHAR
STARTCHAR 02FF
ENCODING 767
SWIDTH 504 0
DWIDTH 14 0
BBX 13 8 1 -7
BITMAP
0200
0E00
3800
FFF8
FFF8
7000
1C00
0600
ENDCHAR
STARTCHAR 0300
ENCODING 768
SWIDTH 0 0
DWIDTH 0 0
BBX 5 4 -13 17
BITMAP
E0
E0
70
38
ENDCHAR
STARTCHAR 0301
ENCODING 769
SWIDTH 0 0
DWIDTH 0 0
BBX 5 4 -9 17
BITMAP
38
30
60
C0
ENDCHAR
STARTCHAR 0302
ENCODING 770
SWIDTH 0 0
DWIDTH 0 0
BBX 8 4 -4 17
BITMAP
3C
7E
66
C3
ENDCHAR
STARTCHAR 0303
ENCODING 771
SWIDTH 0 0
DWIDTH 0 0
BBX 10 3 -14 17
BITMAP
7C40
7FC0
C380
ENDCHAR
STARTCHAR 0304
ENCODING 772
SWIDTH 0 0
DWIDTH 0 0
BBX 8 2 -4 17
BITMAP
FF
FF
ENDCHAR
STARTCHAR 0305
ENCODING 773
SWIDTH 0 0
DWIDTH 0 0
BBX 12 2 -6 21
BITMAP
FFF0
FFF0
ENDCHAR
STARTCHAR 0306
ENCODING 774
SWIDTH 0 0
DWIDTH 0 0
BBX 8 4 -4 17
BITMAP
81
C3
FF
7E
ENDCHAR
STARTCHAR 0307
ENCODING 775
SWIDTH 0 0
DWIDTH 0 0
BBX 2 2 -1 17
BITMAP
C0
C0
ENDCHAR
STARTCHAR 0308
ENCODING 776
SWIDTH 0 0
DWIDTH 0 0
BBX 8 2 -4 18
BITMAP
E7
E7
ENDCHAR
STARTCHAR 0309
ENCODING 777
SWIDTH 0 0
DWIDTH 0 0
BBX 5 7 -10 16
BITMAP
E0
F0
18
38
70
40
40
ENDCHAR
STARTCHAR 030A
ENCODING 778
SWIDTH 0 0
DWIDTH 0 0
BBX 6 6 -3 17
BITMAP
30
FC
CC
84
CC
78
ENDCHAR
STARTCHAR 030B
ENCODING 779
SWIDTH 0 0
DWIDTH 0 0
BBX 9 4 -3 17
BITMAP
3380
7300
E700
C600
ENDCHAR
STARTCHAR 030C
ENCODING 780
SWIDTH 0 0
DWIDTH 0 0
BBX 8 4 -4 17
BITMAP
C3
66
7C
3C
ENDCHAR
STARTCHAR 030D
ENCODING 781
SWIDTH 0 0
DWIDTH 0 0
BBX 2 4 -1 17
BITMAP
C0
C0
C0
C0
ENDCHAR
STARTCHAR 030E
ENCODING 782
SWIDTH 0 0
DWIDTH 0 0
BBX 6 4 -3 17
BITMAP
CC
CC
CC
CC
ENDCHAR
STARTCHAR 030F
ENCODING 783
SWIDTH 0 0
DWIDTH 0 0
BBX 9 4 -14 17
BITMAP
E700
6300
3380
1180
ENDCHAR
STARTCHAR 0310
ENCODING 784
SWIDTH 0 0
DWIDTH 0 0
BBX 8 6 -4 17
BITMAP
18
18
81
C3
FF
7E
ENDCHAR
STARTCHAR 0311
ENCODING 785
SWIDTH 0 0
DWIDTH 0 0
BBX 8 4 -4 17
BITMAP
08
7E
FF
81
ENDCHAR
STARTCHAR 0312
ENCODING 786
SWIDTH 0 0
DWIDTH 0 0
BBX 4 7 -2 13
BITMAP
30
30
60
60
E0
E0
E0
ENDCHAR
STARTCHAR 0313
ENCODING 787
SWIDTH 0 0
DWIDTH 0 0
BBX 4 7 -2 13
BITMAP
70
70
60
60
E0
C0
C0
ENDCHAR
STARTCHAR 0314
ENCODING 788
SWIDTH 0 0
DWIDTH 0 0
BBX 4 7 -2 13
BITMAP
E0
E0
E0
60
60
30
30
ENDCHAR
STARTCHAR 0315
ENCODING 789
SWIDTH 0 0
DWIDTH 0 0
BBX 4 7 -2 13
BITMAP
70
70
70
60
60
C0
C0
ENDCHAR
STARTCHAR 0316
ENCODING 790
SWIDTH 0 0
DWIDTH 0 0
BBX 6 5 -3 -6
BITMAP
E0
70
30
18
0C
ENDCHAR
STARTCHAR 0317
ENCODING 791
SWIDTH 0 0
DWIDTH 0 0
BBX 6 5 -3 -6
BITMAP
1C
38
70
60
C0
ENDCHAR
STARTCHAR 0318
ENCODING 792
SWIDTH 0 0
DWIDTH 0 0
BBX 4 5 -2 -6
BITMAP
10
10
F0
10
10
ENDCHAR
STARTCHAR 0319
ENCODING 793
SWIDTH 0 0
DWIDTH 0 0
BBX 4 5 -2 -6
BITMAP
80
80
F0
80
80
ENDCHAR
STARTCHAR 031A
ENCODING 794
SWIDTH 0 0
DWIDTH 0 0
BBX 7 7 -2 19
BITMAP
FE
FE
06
06
06
06
06
ENDCHAR
STARTCHAR 031B
ENCODING 795
SWIDTH 0 0
DWIDTH 0 0
BBX 6 6 -3 15
BITMAP
1C
1C
18
78
F0
80
ENDCHAR
STARTCHAR 031C
ENCODING 796
SWIDTH 0 0
DWIDTH 0 0
BBX 3 6 -1 -6
BITMAP
20
E0
80
80
C0
E0
ENDCHAR
STARTCHAR 031D
ENCODING 797
SWIDTH 0 0
DWIDTH 0 0
BBX 6 5 -3 -6
BITMAP
30
30
30
FC
FC
ENDCHAR
STARTCHAR 031E
ENCODING 798
SWIDTH 0 0
DWIDTH 0 0
BBX 6 5 -3 -6
BITMAP
FC
FC
30
30
30
ENDCHAR
STARTCHAR 031F
ENCODING 799
SWIDTH 0 0
DWIDTH 0 0
BBX 6 5 -3 -6
BITMAP
30
30
FC
30
30
ENDCHAR
STARTCHAR 0320
ENCODING 800
SWIDTH 0 0
DWIDTH 0 0
BBX 6 1 -3 -4
BITMAP
FC
ENDCHAR
STARTCHAR 0321
ENCODING 801
SWIDTH 0 0
DWIDTH 0 0
BBX 5 8 -5 -7
BITMAP
18
18
18
18
18
F8
F0
40
ENDCHAR
STARTCHAR 0322
ENCODING 802
SWIDTH 0 0
DWIDTH 0 0
BBX 5 8 0 -7
BITMAP
C0
C0
C0
C0
C0
F8
78
10
ENDCHAR
STARTCHAR 0323
ENCODING 803
SWIDTH 0 0
DWIDTH 0 0
BBX 3 3 -10 -5
BITMAP
E0
E0
60
ENDCHAR
STARTCHAR 0324
ENCODING 804
SWIDTH 0 0
DWIDTH 0 0
BBX 8 3 -4 -5
BITMAP
C3
E7
C3
ENDCHAR
STARTCHAR 0325
ENCODING 805
SWIDTH 0 0
DWIDTH 0 0
BBX 6 5 -3 -5
BITMAP
78
CC
84
CC
78
ENDCHAR
STARTCHAR 0326
ENCODING 806
SWIDTH 0 0
DWIDTH 0 0
BBX 4 4 -2 -6
BITMAP
70
60
60
C0
ENDCHAR
STARTCHAR 0327
ENCODING 807
SWIDTH 0 0
DWIDTH 0 0
BBX 6 7 -3 -7
BITMAP
30
30
38
0C
0C
F8
E0
ENDCHAR
STARTCHAR 0328
ENCODING 808
SWIDTH 0 0
DWIDTH 0 0
BBX 4 6 -2 -6
BITMAP
60
C0
C0
C0
F0
70
ENDCHAR
STARTCHAR 0329
ENCODING 809
SWIDTH 0 0
DWIDTH 0 0
BBX 2 5 -1 -6
BITMAP
C0
C0
C0
C0
C0
ENDCHAR
STARTCHAR 032A
ENCODING 810
SWIDTH 0 0
DWIDTH 0 0
BBX 10 5 -5 -6
BITMAP
FFC0
FFC0
C0C0
C0C0
C0C0
ENDCHAR
STARTCHAR 032B
ENCODING 811
SWIDTH 0 0
DWIDTH 0 0
BBX 10 3 -5 -5
BITMAP
8C40
FFC0
7380
ENDCHAR
STARTCHAR 032C
ENCODING 812
SWIDTH 0 0
DWIDTH 0 0
BBX 10 5 -5 -6
BITMAP
E1C0
7380
3F00
1E00
0C00
ENDCHAR
STARTCHAR 032D
ENCODING 813
SWIDTH 0 0
DWIDTH 0 0
BBX 10 5 -5 -6
BITMAP
1C00
1E00
3700
6380
C0C0
ENDCHAR
STARTCHAR 032E
ENCODING 814
SWIDTH 0 0
DWIDTH 0 0
BBX 8 4 -4 -5
BITMAP
81
C3
FF
7E
ENDCHAR
STARTCHAR 032F
ENCODING 815
SWIDTH 0 0
DWIDTH 0 0
BBX 8 4 -4 -5
BITMAP
08
7E
FF
81
ENDCHAR
STARTCHAR 0330
ENCODING 816
SWIDTH 0 0
DWIDTH 0 0
BBX 10 3 -5 -5
BITMAP
78C0
FFC0
C780
ENDCHAR
STARTCHAR 0331
ENCODING 817
SWIDTH 0 0
DWIDTH 0 0
BBX 8 2 -4 -4
BITMAP
FF
FF
ENDCHAR
STARTCHAR 0332
ENCODING 818
SWIDTH 0 0
DWIDTH 0 0
BBX 12 2 -6 -4
BITMAP
FFF0
FFF0
ENDCHAR
STARTCHAR 0333
ENCODING 819
SWIDTH 0 0
DWIDTH 0 0
BBX 12 5 -6 -6
BITMAP
FFF0
FFF0
0000
FFF0
FFF0
ENDCHAR
STARTCHAR 0334
ENCODING 820
SWIDTH 0 0
DWIDTH 0 0
BBX 10 3 -5 6
BITMAP
7840
FFC0
C780
ENDCHAR
STARTCHAR 0335
ENCODING 821
SWIDTH 0 0
DWIDTH 0 0
BBX 12 2 -6 7
BITMAP
FFF0
FFF0
ENDCHAR
STARTCHAR 0336
ENCODING 822
SWIDTH 0 0
DWIDTH 0 0
BBX 20 2 -10 7
BITMAP
FFFFF0
FFFFF0
ENDCHAR
STARTCHAR 0337
ENCODING 823
SWIDTH 0 0
DWIDTH 0 0
BBX 8 6 -4 5
BITMAP
02
07
1E
78
E0
40
ENDCHAR
STARTCHAR 0338
ENCODING 824
SWIDTH 0 0
DWIDTH 0 0
BBX 10 23 -5 -2
BITMAP
00C0
00C0
01C0
0180
0180
0300
0300
0700
0600
0600
0C00
0C00
1C00
1800
1800
3000
3000
7000
6000
6000
C000
C000
C000
ENDCHAR
STARTCHAR 0339
ENCODING 825
SWIDTH 0 0
DWIDTH 0 0
BBX 3 5 -1 -5
BITMAP
C0
40
60
40
C0
ENDCHAR
STARTCHAR 033A
ENCODING 826
SWIDTH 0 0
DWIDTH 0 0
BBX 10 5 -5 -6
BITMAP
C0C0
C0C0
C0C0
FFC0
FFC0
ENDCHAR
STARTCHAR 033B
ENCODING 827
SWIDTH 0 0
DWIDTH 0 0
BBX 10 5 -5 -6
BITMAP
FFC0
8040
8040
8040
FFC0
ENDCHAR
STARTCHAR 033C
ENCODING 828
SWIDTH 0 0
DWIDTH 0 0
BBX 10 3 -5 -5
BITMAP
7F80
CCC0
8C40
ENDCHAR
STARTCHAR 033D
ENCODING 829
SWIDTH 0 0
DWIDTH 0 0
BBX 6 5 -3 17
BITMAP
CC
78
30
78
48
ENDCHAR
STARTCHAR 033E
ENCODING 830
SWIDTH 0 0
DWIDTH 0 0
BBX 4 8 -2 16
BITMAP
70
E0
C0
60
60
30
70
C0
ENDCHAR
STARTCHAR 033F
ENCODING 831
SWIDTH 0 0
DWIDTH 0 0
BBX 12 6 -6 21
BITMAP
FFF0
FFF0
0000
0000
FFF0
FFF0
ENDCHAR
STARTCHAR 0340
ENCODING 832
SWIDTH 0 0
DWIDTH 0 0
BBX 5 4 -4 17
BITMAP
E0
60
30
18
ENDCHAR
STARTCHAR 0341
ENCODING 833
SWIDTH 0 0
DWIDTH 0 0
BBX 5 4 -1 17
BITMAP
38
70
60
C0
ENDCHAR
STARTCHAR 0342
ENCODING 834
SWIDTH 0 0
DWIDTH 0 0
BBX 10 3 -5 17
BITMAP
78C0
FFC0
C780
ENDCHAR
STARTCHAR 0343
ENCODING 835
SWIDTH 0 0
DWIDTH 0 0
BBX 4 5 -2 17
BITMAP
C0
F0
30
30
60
ENDCHAR
STARTCHAR 0344
ENCODING 836
SWIDTH 0 0
DWIDTH 0 0
BBX 9 5 -4 17
BITMAP
0E00
0E00
DD80
DD80
1800
ENDCHAR
STARTCHAR 0345
ENCODING 837
SWIDTH 0 0
DWIDTH 0 0
BBX 4 5 -1 -7
BITMAP
C0
C0
C0
F0
70
ENDCHAR
STARTCHAR 0346
ENCODING 838
SWIDTH 0 0
DWIDTH 0 0
BBX 12 5 -6 16
BITMAP
FFF0
FFF0
C030
C030
C030
ENDCHAR
STARTCHAR 0347
ENCODING 839
SWIDTH 0 0
DWIDTH 0 0
BBX 12 5 -6 -6
BITMAP
FFF0
FFF0
0000
FFF0
FFF0
ENDCHAR
STARTCHAR 0348
ENCODING 840
SWIDTH 0 0
DWIDTH 0 0
BBX 6 5 -3 -6
BITMAP
CC
CC
CC
CC
CC
ENDCHAR
STARTCHAR 0349
ENCODING 841
SWIDTH 0 0
DWIDTH 0 0
BBX 6 5 -3 -7
BITMAP
FC
0C
0C
0C
0C
ENDCHAR
STARTCHAR 034A
ENCODING 842
SWIDTH 0 0
DWIDTH 0 0
BBX 10 5 -5 16
BITMAP
0600
7CC0
FFC0
DF80
1000
ENDCHAR
STARTCHAR 034B
ENCODING 843
SWIDTH 0 0
DWIDTH 0 0
BBX 10 9 -5 17
BITMAP
0C00
0C00
2040
7CC0
DF80
8780
0C00
0C00
0C00
ENDCHAR
STARTCHAR 034C
ENCODING 844
SWIDTH 0 0
DWIDTH 0 0
BBX 10 7 -5 17
BITMAP
38C0
7F80
C780
0000
38C0
7F80
C780
ENDCHAR
STARTCHAR 034D
ENCODING 845
SWIDTH 0 0
DWIDTH 0 0
BBX 10 5 -5 -6
BITMAP
1200
3300
FFC0
7380
1200
ENDCHAR
STARTCHAR 034E
ENCODING 846
SWIDTH 0 0
DWIDTH 0 0
BBX 4 6 -2 -7
BITMAP
60
F0
60
60
60
60
ENDCHAR
STARTCHAR 034F
ENCODING 847
SWIDTH 0 0
DWIDTH 0 0
BBX 20 20 -10 0
BITMAP
F0F0F0
F0F0F0
C00030
C06030
C16830
040200
000000
080100
C00030
D000B0
D800B0
C00030
080100
000000
040200
010800
C06030
C00030
F0F0F0
F0F0F0
ENDCHAR
STARTCHAR 0350
ENCODING 848
SWIDTH 0 0
DWIDTH 0 0
BBX 4 5 -2 16
BITMAP
80
E0
30
70
C0
ENDCHAR
STARTCHAR 0351
ENCODING 849
SWIDTH 0 0
DWIDTH 0 0
BBX 3 5 -1 17
BITMAP
E0
C0
80
80
E0
ENDCHAR
STARTCHAR 0352
ENCODING 850
SWIDTH 0 0
DWIDTH 0 0
BBX 8 6 -4 17
BITMAP
7E
FF
C1
18
18
18
ENDCHAR
STARTCHAR 0353
ENCODING 851
SWIDTH 0 0
DWIDTH 0 0
BBX 4 5 -2 -6
BITMAP
90
F0
60
F0
90
ENDCHAR
STARTCHAR 0354
ENCODING 852
SWIDTH 0 0
DWIDTH 0 0
BBX 4 5 -2 -7
BITMAP
10
70
C0
E0
70
ENDCHAR
STARTCHAR 0355
ENCODING 853
SWIDTH 0 0
DWIDTH 0 0
BBX 4 5 -2 -7
BITMAP
80
E0
70
70
C0
ENDCHAR
STARTCHAR 0356
ENCODING 854
SWIDTH 0 0
DWIDTH 0 0
BBX 10 6 -5 -7
BITMAP
8180
E380
3380
72C0
E6C0
8440
ENDCHAR
STARTCHAR 0357
ENCODING 855
SWIDTH 0 0
DWIDTH 0 0
BBX 3 5 -1 17
BITMAP
C0
60
60
60
C0
ENDCHAR
STARTCHAR 0358
ENCODING 856
SWIDTH 0 0
DWIDTH 0 0
BBX 2 2 4 17
BITMAP
C0
C0
ENDCHAR
STARTCHAR 0359
ENCODING 857
SWIDTH 0 0
DWIDTH 0 0
BBX 6 5 -3 -7
BITMAP
30
30
FC
30
78
ENDCHAR
STARTCHAR 035A
ENCODING 858
SWIDTH 0 0
DWIDTH 0 0
BBX 10 6 -5 -7
BITMAP
7F80
CCC0
8C40
8C40
FFC0
7300
ENDCHAR
STARTCHAR 035B
ENCODING 859
SWIDTH 0 0
DWIDTH 0 0
BBX 6 5 -3 17
BITMAP
60
40
7C
F8
08
ENDCHAR
STARTCHAR 035C
ENCODING 860
SWIDTH 0 0
DWIDTH 0 0
BBX 22 5 -11 -6
BITMAP
C0000C
700018
380070
1FFFE0
07FF80
ENDCHAR
STARTCHAR 035D
ENCODING 861
SWIDTH 0 0
DWIDTH 0 0
BBX 22 6 -11 16
BITMAP
C0000C
600018
380070
1F03E0
07FF80
007800
ENDCHAR
STARTCHAR 035E
ENCODING 862
SWIDTH 0 0
DWIDTH 0 0
BBX 16 2 -8 17
BITMAP
FFFF
FFFF
ENDCHAR
STARTCHAR 035F
ENCODING 863
SWIDTH 0 0
DWIDTH 0 0
BBX 16 1 -8 -3
BITMAP
FFFF
ENDCHAR
STARTCHAR 0360
ENCODING 864
SWIDTH 0 0
DWIDTH 0 0
BBX 21 3 -11 17
BITMAP
3FE008
7BFFF8
C00FF0
ENDCHAR
STARTCHAR 0361
ENCODING 865
SWIDTH 0 0
DWIDTH 0 0
BBX 22 5 -11 19
BITMAP
07FF80
1FDFE0
380070
600018
C0000C
ENDCHAR
STARTCHAR 0362
ENCODING 866
SWIDTH 0 0
DWIDTH 0 0
BBX 21 5 -10 -6
BITMAP
000020
000030
FFFFF8
000030
000020
ENDCHAR
STARTCHAR 0363
ENCODING 867
SWIDTH 0 0
DWIDTH 0 0
BBX 6 6 -3 17
BITMAP
78
04
3C
C4
CC
74
ENDCHAR
STARTCHAR 0364
ENCODING 868
SWIDTH 0 0
DWIDTH 0 0
BBX 6 6 -3 17
BITMAP
78
44
FC
C0
40
3C
ENDCHAR
STARTCHAR 0365
ENCODING 869
SWIDTH 0 0
DWIDTH 0 0
BBX 1 8 0 17
BITMAP
80
00
80
80
80
80
80
80
ENDCHAR
STARTCHAR 0366
ENCODING 870
SWIDTH 0 0
DWIDTH 0 0
BBX 6 6 -3 17
BITMAP
7C
C4
84
84
44
38
ENDCHAR
STARTCHAR 0367
ENCODING 871
SWIDTH 0 0
DWIDTH 0 0
BBX 6 6 -3 17
BITMAP
C4
C4
C4
C4
44
7C
ENDCHAR
STARTCHAR 0368
ENCODING 872
SWIDTH 0 0
DWIDTH 0 0
BBX 5 6 -2 17
BITMAP
78
80
80
80
C0
78
ENDCHAR
STARTCHAR 0369
ENCODING 873
SWIDTH 0 0
DWIDTH 0 0
BBX 6 9 -3 17
BITMAP
04
04
04
7C
C4
84
84
C4
7C
ENDCHAR
STARTCHAR 036A
ENCODING 874
SWIDTH 0 0
DWIDTH 0 0
BBX 6 9 -3 17
BITMAP
C0
C0
C0
FC
C4
C4
C4
C4
C4
ENDCHAR
STARTCHAR 036B
ENCODING 875
SWIDTH 0 0
DWIDTH 0 0
BBX 10 6 -5 17
BITMAP
FBC0
C440
C440
C440
C440
C440
ENDCHAR
STARTCHAR 036C
ENCODING 876
SWIDTH 0 0
DWIDTH 0 0
BBX 4 6 -1 17
BITMAP
F0
80
80
80
80
80
ENDCHAR
STARTCHAR 036D
ENCODING 877
SWIDTH 0 0
DWIDTH 0 0
BBX 4 7 -2 18
BITMAP
40
F0
40
40
40
40
30
ENDCHAR
STARTCHAR 036E
ENCODING 878
SWIDTH 0 0
DWIDTH 0 0
BBX 6 6 -3 17
BITMAP
C4
44
48
28
30
10
ENDCHAR
STARTCHAR 036F
ENCODING 879
SWIDTH 0 0
DWIDTH 0 0
BBX 6 6 -3 17
BITMAP
4C
28
30
38
48
C4
ENDCHAR
STARTCHAR 0370
ENCODING 880
SWIDTH 432 0
DWIDTH 12 0
BBX 8 20 3 0
BITMAP
C0
C0
C0
C0
C0
C0
C0
C0
C0
FF
FF
C0
C0
C0
C0
C0
C0
C0
C0
C0
ENDCHAR
STARTCHAR 0371
ENCODING 881
SWIDTH 360 0
DWIDTH 10 0
BBX 8 15 2 0
BITMAP
E0
E0
E0
E0
E0
E0
FF
FF
E0
E0
E0
E0
E0
E0
E0
ENDCHAR
STARTCHAR 0372
ENCODING 882
SWIDTH 648 0
DWIDTH 18 0
BBX 15 20 2 0
BITMAP
FFFE
FFFE
C306
C306
C306
C306
C306
C306
C306
0300
0300
0300
0300
0300
0300
0300
0300
0300
0300
0300
ENDCHAR
STARTCHAR 0373
ENCODING 883
SWIDTH 648 0
DWIDTH 18 0
BBX 14 21 2 0
BITMAP
FFFC
FFFC
C30C
C30C
C30C
C30C
0300
0300
0300
0300
0300
0300
0300
0300
0300
0300
0300
0300
0300
0300
0300
ENDCHAR
STARTCHAR 0374
ENCODING 884
SWIDTH 144 0
DWIDTH 4 0
BBX 4 5 1 16
BITMAP
70
70
60
E0
C0
ENDCHAR
STARTCHAR 0375
ENCODING 885
SWIDTH 144 0
DWIDTH 4 0
BBX 4 5 0 -4
BITMAP
30
60
60
E0
C0
ENDCHAR
STARTCHAR 0376
ENCODING 886
SWIDTH 756 0
DWIDTH 21 0
BBX 16 20 3 0
BITMAP
C007
C00F
C01F
C01F
C03F
C077
C067
C0E7
C1C7
C187
C387
C707
C607
CE07
DC07
DC07
F807
F007
F007
E007
ENDCHAR
STARTCHAR 0377
ENCODING 887
SWIDTH 612 0
DWIDTH 17 0
BBX 13 15 2 0
BITMAP
E038
E038
E078
E0F8
E0D8
E198
E398
E318
E718
EE18
EC18
FC18
F818
F018
F018
ENDCHAR
STARTCHAR 037A
ENCODING 890
SWIDTH 216 0
DWIDTH 6 0
BBX 4 5 2 -7
BITMAP
C0
C0
E0
F0
30
ENDCHAR
STARTCHAR 037B
ENCODING 891
SWIDTH 468 0
DWIDTH 13 0
BBX 11 15 1 0
BITMAP
FE00
FF80
03C0
01C0
00E0
00E0
00E0
00E0
00E0
00E0
00C0
01C0
8380
FF80
FE00
ENDCHAR
STARTCHAR 037C
ENCODING 892
SWIDTH 468 0
DWIDTH 13 0
BBX 10 15 2 0
BITMAP
1FC0
3FC0
7040
E000
E000
C000
C700
C700
C200
C000
C000
E000
7000
7FC0
1FC0
ENDCHAR
STARTCHAR 037D
ENCODING 893
SWIDTH 468 0
DWIDTH 13 0
BBX 11 15 1 0
BITMAP
FE00
FF80
03C0
01C0
00E0
00E0
18E0
18E0
18E0
00E0
00C0
01C0
8380
FF80
FE00
ENDCHAR
STARTCHAR 037E
ENCODING 894
SWIDTH 252 0
DWIDTH 7 0
BBX 4 19 1 -4
BITMAP
70
70
70
20
00
00
00
00
00
00
00
00
70
70
60
60
E0
C0
C0
ENDCHAR
STARTCHAR 037F
ENCODING 895
SWIDTH 252 0
DWIDTH 7 0
BBX 7 25 -2 -5
BITMAP
06
06
06
06
06
06
06
06
06
06
06
06
06
06
06
06
06
06
06
06
06
0E
0E
FC
F8
ENDCHAR
STARTCHAR 0384
ENCODING 900
SWIDTH 216 0
DWIDTH 6 0
BBX 4 5 1 17
BITMAP
70
70
60
E0
C0
ENDCHAR
STARTCHAR 0385
ENCODING 901
SWIDTH 648 0
DWIDTH 18 0
BBX 10 5 4 17
BITMAP
0E00
0E00
EDC0
EDC0
1800
ENDCHAR
STARTCHAR 0386
ENCODING 902
SWIDTH 684 0
DWIDTH 19 0
BBX 19 20 0 0
BITMAP
787000
707000
607800
60F800
C0DC00
00CC00
01CC00
018E00
038600
030700
030700
070300
07FF80
0FFF80
0E01C0
0C01C0
1C00C0
1800E0
3800E0
380060
ENDCHAR
STARTCHAR 0387
ENCODING 903
SWIDTH 252 0
DWIDTH 7 0
BBX 3 3 2 12
BITMAP
E0
E0
E0
ENDCHAR
STARTCHAR 0388
ENCODING 904
SWIDTH 720 0
DWIDTH 20 0
BBX 18 20 0 0
BITMAP
79FFC0
71FFC0
61C000
61C000
C1C000
01C000
01C000
01C000
01C000
01FFC0
01FFC0
01C000
01C000
01C000
01C000
01C000
01C000
01C000
01FFC0
01FFC0
ENDCHAR
STARTCHAR 0389
ENCODING 905
SWIDTH 900 0
DWIDTH 25 0
BBX 22 20 0 0
BITMAP
79C00C
71C00C
61C00C
61C00C
C1C00C
01C00C
01C00C
01C00C
01C00C
01FFFC
01FFFC
01C00C
01C00C
01C00C
01C00C
01C00C
01C00C
01C00C
01C00C
01C00C
ENDCHAR
STARTCHAR 038A
ENCODING 906
SWIDTH 504 0
DWIDTH 14 0
BBX 13 20 0 0
BITMAP
7BF8
73F8
6060
6060
C060
0060
0060
0060
0060
0060
0060
0060
0060
0060
0060
0060
0060
0060
03F8
03F8
ENDCHAR
STARTCHAR 038C
ENCODING 908
SWIDTH 864 0
DWIDTH 24 0
BBX 23 20 0 0
BITMAP
783FC0
70FFF0
61E078
63C038
C3801C
03000C
07000E
07000E
07000E
070006
070006
07000E
07000E
07000E
03000C
03801C
03C01C
01E078
00FFF0
003FC0
ENDCHAR
STARTCHAR 038E
ENCODING 910
SWIDTH 756 0
DWIDTH 21 0
BBX 21 20 0 0
BITMAP
7B8018
718038
61C030
60C070
C0E060
0060E0
0070C0
0039C0
003980
001F80
000F00
000F00
000600
000600
000600
000600
000600
000600
000600
000600
ENDCHAR
STARTCHAR 038F
ENCODING 911
SWIDTH 828 0
DWIDTH 23 0
BBX 23 20 0 0
BITMAP
783F80
70FFE0
61E0F0
638038
C70018
07001C
06001C
0E000C
0E000C
0E000E
0E000C
0E000C
06001C
07001C
030018
038038
01C070
00E0E0
0FF1FE
0FF1FE
ENDCHAR
STARTCHAR 0390
ENCODING 912
SWIDTH 324 0
DWIDTH 9 0
BBX 10 22 0 0
BITMAP
0E00
0E00
CD80
DDC0
1800
0000
0000
3800
3800
3800
3800
3800
3800
3800
3800
3800
3800
3800
3800
3800
1F80
0F80
ENDCHAR
STARTCHAR 0391
ENCODING 913
SWIDTH 612 0
DWIDTH 17 0
BBX 18 20 0 0
BITMAP
00C000
01E000
01E000
03E000
037000
033000
073000
063800
0E1800
0E1C00
0C0C00
1C0C00
1FFE00
1FFE00
380700
300700
700300
700380
600180
E001C0
ENDCHAR
STARTCHAR 0392
ENCODING 914
SWIDTH 648 0
DWIDTH 18 0
BBX 14 20 3 0
BITMAP
FF80
FFE0
C0F0
C038
C038
C038
C038
C030
C1E0
FF80
FFF0
C038
C038
C01C
C01C
C018
C038
C078
FFF0
FFC0
ENDCHAR
STARTCHAR 0393
ENCODING 915
SWIDTH 468 0
DWIDTH 13 0
BBX 10 20 3 0
BITMAP
FFC0
FFC0
C000
C000
C000
C000
C000
C000
C000
C000
C000
C000
C000
C000
C000
C000
C000
C000
C000
C000
ENDCHAR
STARTCHAR 0394
ENCODING 916
SWIDTH 612 0
DWIDTH 17 0
BBX 17 20 0 0
BITMAP
00C000
01E000
01E000
03E000
037000
033000
073800
061800
0E1800
0C1C00
0C0C00
1C0E00
180600
380600
300700
300300
700380
600380
FFFF80
FFFF80
ENDCHAR
STARTCHAR 0395
ENCODING 917
SWIDTH 540 0
DWIDTH 15 0
BBX 11 20 3 0
BITMAP
FFE0
FFE0
C000
C000
C000
C000
C000
C000
C000
FFC0
FFC0
C000
C000
C000
C000
C000
C000
C000
FFE0
FFE0
ENDCHAR
STARTCHAR 0396
ENCODING 918
SWIDTH 540 0
DWIDTH 15 0
BBX 14 20 1 0
BITMAP
FFFC
FFFC
0038
0038
0070
00E0
00E0
01C0
0380
0380
0700
0E00
0E00
1C00
3800
3800
7000
E000
FFFC
FFFC
ENDCHAR
STARTCHAR 0397
ENCODING 919
SWIDTH 720 0
DWIDTH 20 0
BBX 15 20 3 0
BITMAP
C00E
C00E
C00E
C00E
C00E
C00E
C00E
C00E
C00E
FFFE
FFFE
C00E
C00E
C00E
C00E
C00E
C00E
C00E
C00E
C00E
ENDCHAR
STARTCHAR 0398
ENCODING 920
SWIDTH 756 0
DWIDTH 21 0
BBX 18 20 2 0
BITMAP
07F800
1FFC00
3C0F00
780700
700380
E00180
E001C0
E001C0
C001C0
C7F9C0
C7F9C0
C001C0
E001C0
E001C0
E00180
700380
700700
3C0F00
1FFE00
07F800
ENDCHAR
STARTCHAR 0399
ENCODING 921
SWIDTH 324 0
DWIDTH 9 0
BBX 7 20 1 0
BITMAP
FE
FE
38
38
38
38
38
38
38
38
38
38
38
38
38
38
38
38
FE
FE
ENDCHAR
STARTCHAR 039A
ENCODING 922
SWIDTH 612 0
DWIDTH 17 0
BBX 14 20 3 0
BITMAP
C01C
C038
C070
C0E0
C1C0
C380
C700
CE00
DC00
DE00
FE00
E700
C380
C380
C1C0
C0E0
C070
C070
C038
C01C
ENDCHAR
STARTCHAR 039B
ENCODING 923
SWIDTH 576 0
DWIDTH 16 0
BBX 17 20 0 0
BITMAP
01C000
01C000
03C000
036000
036000
077000
063000
063000
0E3800
0C1800
1C1800
1C1C00
180C00
380E00
300E00
300600
700700
600700
600300
E00380
ENDCHAR
STARTCHAR 039C
ENCODING 924
SWIDTH 900 0
DWIDTH 25 0
BBX 20 20 3 0
BITMAP
F000F0
F001F0
F001F0
F801F0
D80370
D80370
DC0770
CC0670
CE0670
C60E70
C60C70
C71C70
C31870
C31870
C3B870
C1B070
C1F070
C0E070
C0E070
C0E070
ENDCHAR
STARTCHAR 039D
ENCODING 925
SWIDTH 756 0
DWIDTH 21 0
BBX 15 20 3 0
BITMAP
E006
E006
F006
F806
D806
DC06
CE06
CE06
C706
C386
C386
C1C6
C0E6
C0E6
C076
C036
C03E
C01E
C00E
C00E
ENDCHAR
STARTCHAR 039E
ENCODING 926
SWIDTH 612 0
DWIDTH 17 0
BBX 14 20 2 0
BITMAP
FFF8
FFF8
0000
0000
0000
0000
0000
0000
7FF0
7FF0
7FF0
0000
0000
0000
0000
0000
0000
0000
FFFC
FFFC
ENDCHAR
STARTCHAR 039F
ENCODING 927
SWIDTH 756 0
DWIDTH 21 0
BBX 18 20 2 0
BITMAP
07F800
1FFC00
3C0F00
780700
700380
E00180
E001C0
E001C0
C001C0
C001C0
C001C0
C001C0
E001C0
E001C0
E00180
700380
700700
3C0F00
1FFE00
07F800
ENDCHAR
STARTCHAR 03A0
ENCODING 928
SWIDTH 720 0
DWIDTH 20 0
BBX 15 20 3 0
BITMAP
FFFE
FFFE
C00E
C00E
C00E
C00E
C00E
C00E
C00E
C00E
C00E
C00E
C00E
C00E
C00E
C00E
C00E
C00E
C00E
C00E
ENDCHAR
STARTCHAR 03A1
ENCODING 929
SWIDTH 576 0
DWIDTH 16 0
BBX 12 20 3 0
BITMAP
FF00
FFC0
C1E0
C070
C030
C030
C030
C030
C070
C0E0
FFE0
FF80
C000
C000
C000
C000
C000
C000
C000
C000
ENDCHAR
STARTCHAR 03A3
ENCODING 931
SWIDTH 540 0
DWIDTH 15 0
BBX 14 20 1 0
BITMAP
FFF8
FFF8
7000
7000
3800
1C00
0E00
0700
0380
0380
0380
0700
0E00
0C00
1C00
3800
7000
E000
FFFC
FFFC
ENDCHAR
STARTCHAR 03A4
ENCODING 932
SWIDTH 540 0
DWIDTH 15 0
BBX 15 20 0 0
BITMAP
FFFE
FFFE
0380
0380
0380
0380
0380
0380
0380
0380
0380
0380
0380
0380
0380
0380
0380
0380
0380
0380
ENDCHAR
STARTCHAR 03A5
ENCODING 933
SWIDTH 540 0
DWIDTH 15 0
BBX 16 20 0 0
BITMAP
E007
600E
700C
301C
3818
1C38
1C30
0E70
0E60
07E0
03C0
03C0
0180
0180
0180
0180
0180
0180
0180
0180
ENDCHAR
STARTCHAR 03A6
ENCODING 934
SWIDTH 828 0
DWIDTH 23 0
BBX 21 20 1 0
BITMAP
007000
007000
03FF00
0FFFC0
3E71E0
387070
707030
607038
E07038
E07038
E07038
607038
707038
707070
3870F0
1FFFE0
0FFF80
007000
007000
007000
ENDCHAR
STARTCHAR 03A7
ENCODING 935
SWIDTH 576 0
DWIDTH 16 0
BBX 16 20 0 0
BITMAP
7006
700E
380C
181C
1C38
0E30
0670
07E0
03C0
01C0
03C0
03E0
0660
0E70
0C38
1C18
381C
300E
700E
E007
ENDCHAR
STARTCHAR 03A8
ENCODING 936
SWIDTH 792 0
DWIDTH 22 0
BBX 18 20 2 0
BITMAP
E0E0C0
E0E0C0
E0E0C0
E0E0C0
E0E0C0
E0E0C0
E0E0C0
60E0C0
60E0C0
60E1C0
70E1C0
38E380
3EEF00
0FFE00
03F800
00E000
00E000
00E000
00E000
00E000
ENDCHAR
STARTCHAR 03A9
ENCODING 937
SWIDTH 684 0
DWIDTH 19 0
BBX 18 20 1 0
BITMAP
07F800
1FFE00
3C0F00
780700
700380
E00180
E001C0
E001C0
E001C0
E001C0
E001C0
E001C0
E001C0
600180
700380
300300
180600
0C1C00
FE1FC0
FE1FC0
ENDCHAR
STARTCHAR 03AA
ENCODING 938
SWIDTH 324 0
DWIDTH 9 0
BBX 8 25 1 0
BITMAP
C7
C7
00
00
00
FE
FE
38
38
38
38
38
38
38
38
38
38
38
38
38
38
38
38
FE
FE
ENDCHAR
STARTCHAR 03AB
ENCODING 939
SWIDTH 540 0
DWIDTH 15 0
BBX 16 25 0 0
BITMAP
0C70
0E70
0020
0000
0000
E007
600E
700C
301C
3818
1C38
1C30
0E70
0E60
07E0
03C0
03C0
0180
0180
0180
0180
0180
0180
0180
0180
ENDCHAR
STARTCHAR 03AC
ENCODING 940
SWIDTH 612 0
DWIDTH 17 0
BBX 15 22 2 0
BITMAP
01C0
0380
0380
0300
0300
0000
0000
1F18
7FD8
7078
E078
C038
C038
C038
C038
C038
C038
C038
E038
7078
7FDE
1F9E
ENDCHAR
STARTCHAR 03AD
ENCODING 941
SWIDTH 468 0
DWIDTH 13 0
BBX 11 22 1 0
BITMAP
01C0
0180
0380
0300
0300
0000
0000
1FC0
3FE0
7060
6000
6000
7000
3F00
1F00
7000
E000
E000
E000
7020
7FE0
3FE0
ENDCHAR
STARTCHAR 03AE
ENCODING 942
SWIDTH 576 0
DWIDTH 16 0
BBX 13 29 2 -7
BITMAP
0380
0700
0600
0600
0C00
0000
0000
C7C0
FFF0
F870
F030
E038
E038
E038
E038
E038
E038
E038
E038
E038
E038
E038
0038
0038
0038
0038
0038
0038
0038
ENDCHAR
STARTCHAR 03AF
ENCODING 943
SWIDTH 324 0
DWIDTH 9 0
BBX 7 22 2 0
BITMAP
38
38
30
30
60
00
00
E0
E0
E0
E0
E0
E0
E0
E0
E0
E0
E0
E0
E0
7E
3E
ENDCHAR
STARTCHAR 03B0
ENCODING 944
SWIDTH 576 0
DWIDTH 16 0
BBX 13 22 2 0
BITMAP
0380
0380
3B70
3F70
0600
0000
0000
E070
E030
E030
E030
E038
E038
E038
E038
E038
E030
E030
E070
70E0
7FE0
3F80
ENDCHAR
STARTCHAR 03B1
ENCODING 945
SWIDTH 612 0
DWIDTH 17 0
BBX 15 15 2 0
BITMAP
1F18
7FD8
7078
E078
C038
C038
C038
C038
C038
C038
C038
E038
7078
7FDE
1F9E
ENDCHAR
STARTCHAR 03B2
ENCODING 946
SWIDTH 612 0
DWIDTH 17 0
BBX 14 28 2 -7
BITMAP
1FC0
3FE0
7070
6030
E038
E038
E030
E070
E0E0
E7C0
E7E0
E070
E038
E018
E018
E01C
E018
E038
F038
FFF0
FFE0
E000
E000
E000
E000
E000
E000
E000
ENDCHAR
STARTCHAR 03B3
ENCODING 947
SWIDTH 504 0
DWIDTH 14 0
BBX 13 21 0 -6
BITMAP
E018
E018
6018
7018
3018
3018
3838
1830
1830
1C70
0C60
0CE0
0FC0
0780
0700
0700
0700
0700
0700
0700
0700
ENDCHAR
STARTCHAR 03B4
ENCODING 948
SWIDTH 576 0
DWIDTH 16 0
BBX 14 21 1 0
BITMAP
07F0
1FF8
1C18
1800
1800
1C00
0E00
0780
0FE0
3CF0
3038
7018
601C
E01C
E01C
E01C
E01C
7018
7838
3FF0
0FE0
ENDCHAR
STARTCHAR 03B5
ENCODING 949
SWIDTH 468 0
DWIDTH 13 0
BBX 11 15 1 0
BITMAP
1FC0
3FE0
7060
6000
6000
7000
3F00
1F00
7000
E000
E000
E000
7020
7FE0
3FE0
ENDCHAR
STARTCHAR 03B6
ENCODING 950
SWIDTH 432 0
DWIDTH 12 0
BBX 11 27 2 -6
BITMAP
FFE0
FFE0
01C0
0380
0300
0700
0E00
1C00
1800
3800
7000
6000
E000
C000
C000
C000
C000
E000
F000
7F00
1FC0
03C0
00E0
00E0
00C0
00C0
0180
ENDCHAR
STARTCHAR 03B7
ENCODING 951
SWIDTH 576 0
DWIDTH 16 0
BBX 13 22 2 -7
BITMAP
C7C0
FFF0
F870
F030
E038
E038
E038
E038
E038
E038
E038
E038
E038
E038
E038
0038
0038
0038
0038
0038
0038
0038
ENDCHAR
STARTCHAR 03B8
ENCODING 952
SWIDTH 576 0
DWIDTH 16 0
BBX 13 21 2 0
BITMAP
1F80
3FE0
70E0
6070
E030
C030
C038
C038
C038
FFF8
FFF8
C038
C038
C038
C038
C038
E030
6070
70E0
3FE0
1F80
ENDCHAR
STARTCHAR 03B9
ENCODING 953
SWIDTH 324 0
DWIDTH 9 0
BBX 7 15 2 0
BITMAP
E0
E0
E0
E0
E0
E0
E0
E0
E0
E0
E0
E0
E0
7E
3E
ENDCHAR
STARTCHAR 03BA
ENCODING 954
SWIDTH 504 0
DWIDTH 14 0
BBX 12 15 2 0
BITMAP
E070
E0E0
E1C0
E380
E700
E700
EE00
FE00
FF00
E380
E380
E1C0
E0E0
E060
E070
ENDCHAR
STARTCHAR 03BB
ENCODING 955
SWIDTH 504 0
DWIDTH 14 0
BBX 14 21 0 0
BITMAP
F800
FC00
0E00
0600
0700
0700
0300
0780
0780
0F80
0DC0
0CC0
1CE0
1860
1860
3870
3030
3030
7038
601C
E01C
ENDCHAR
STARTCHAR 03BC
ENCODING 956
SWIDTH 612 0
DWIDTH 17 0
BBX 15 22 2 -7
BITMAP
E038
E038
E038
E038
E038
E038
E038
E038
E038
E038
E038
E038
F078
FFDE
FF9E
E000
E000
E000
E000
E000
E000
E000
ENDCHAR
STARTCHAR 03BD
ENCODING 957
SWIDTH 504 0
DWIDTH 14 0
BBX 13 15 0 0
BITMAP
E018
E018
6018
7018
3018
3018
3838
1830
1830
1C70
0C60
0CE0
0FC0
0780
0700
ENDCHAR
STARTCHAR 03BE
ENCODING 958
SWIDTH 468 0
DWIDTH 13 0
BBX 11 27 2 -6
BITMAP
FFE0
FFE0
3800
7000
6000
E000
E000
6000
7800
1FC0
3FC0
7000
E000
C000
C000
C000
C000
E000
F000
7F00
1FC0
01C0
00E0
00E0
00C0
00C0
0180
ENDCHAR
STARTCHAR 03BF
ENCODING 959
SWIDTH 576 0
DWIDTH 16 0
BBX 13 15 2 0
BITMAP
1FC0
3FE0
7070
E038
E038
C018
C018
C018
C018
C018
C038
E038
7070
3FE0
1FC0
ENDCHAR
STARTCHAR 03C0
ENCODING 960
SWIDTH 648 0
DWIDTH 18 0
BBX 18 15 0 0
BITMAP
FFFFC0
FFFFC0
1C0E00
1C0E00
1C0E00
1C0E00
1C0E00
1C0E00
1C0E00
1C0E00
1C0E00
1C0E00
1C0E00
1C0F80
1C0780
ENDCHAR
STARTCHAR 03C1
ENCODING 961
SWIDTH 576 0
DWIDTH 16 0
BBX 13 22 2 -7
BITMAP
1F80
3FE0
7070
6030
E038
E038
C018
C018
C018
C038
C038
C030
E070
FFE0
DFC0
C000
C000
C000
C000
C000
C000
C000
ENDCHAR
STARTCHAR 03C2
ENCODING 962
SWIDTH 468 0
DWIDTH 13 0
BBX 11 21 2 -6
BITMAP
1FC0
3FC0
7040
E000
E000
C000
C000
C000
C000
C000
E000
E000
7800
3F00
1FC0
03C0
00E0
00E0
00C0
00C0
0180
ENDCHAR
STARTCHAR 03C3
ENCODING 963
SWIDTH 612 0
DWIDTH 17 0
BBX 14 15 2 0
BITMAP
0FFC
3FFC
7860
E070
E030
C038
C038
C018
C018
C038
C038
E030
7070
7FE0
1FC0
ENDCHAR
STARTCHAR 03C4
ENCODING 964
SWIDTH 468 0
DWIDTH 13 0
BBX 13 15 0 0
BITMAP
FFF8
FFF8
0E00
0E00
0E00
0E00
0E00
0E00
0E00
0E00
0E00
0E00
0600
07F0
03F0
ENDCHAR
STARTCHAR 03C5
ENCODING 965
SWIDTH 576 0
DWIDTH 16 0
BBX 13 15 2 0
BITMAP
E070
E030
E030
E030
E038
E038
E038
E038
E038
E030
E030
E070
70E0
7FE0
3F80
ENDCHAR
STARTCHAR 03C6
ENCODING 966
SWIDTH 720 0
DWIDTH 20 0
BBX 17 28 2 -7
BITMAP
018000
018000
018000
018000
018000
018000
0FF000
3FFC00
799E00
E18700
E18700
C18300
C18380
C18380
C18380
C18300
E18300
E18700
718E00
3FFC00
0FF000
018000
018000
018000
018000
018000
018000
018000
ENDCHAR
STARTCHAR 03C7
ENCODING 967
SWIDTH 576 0
DWIDTH 16 0
BBX 15 22 1 -7
BITMAP
E00E
F00C
301C
3818
1838
1C30
0C70
0E60
06C0
07C0
0380
0380
0780
07C0
0CC0
1CE0
1860
3870
7030
6038
E01E
C006
ENDCHAR
STARTCHAR 03C8
ENCODING 968
SWIDTH 720 0
DWIDTH 20 0
BBX 17 28 2 -7
BITMAP
01C000
01C000
01C000
01C000
01C000
01C000
E1C300
E1C300
E1C300
E1C380
E1C380
E1C380
E1C380
E1C380
E1C380
E1C380
E1C300
61C700
79CE00
3FFC00
0FF800
01C000
01C000
01C000
01C000
01C000
01C000
01C000
ENDCHAR
STARTCHAR 03C9
ENCODING 969
SWIDTH 792 0
DWIDTH 22 0
BBX 18 15 2 0
BITMAP
300300
700380
600180
E001C0
E000C0
C0C0C0
C0C0C0
C0C0C0
C0C0C0
C0C0C0
E0C0C0
E0E1C0
71E180
7FBF80
3F1F00
ENDCHAR
STARTCHAR 03CA
ENCODING 970
SWIDTH 324 0
DWIDTH 9 0
BBX 9 20 0 0
BITMAP
C700
C700
0000
0000
0000
3800
3800
3800
3800
3800
3800
3800
3800
3800
3800
3800
3800
3800
1F80
0F80
ENDCHAR
STARTCHAR 03CB
ENCODING 971
SWIDTH 576 0
DWIDTH 16 0
BBX 13 20 2 0
BITMAP
31C0
39C0
0000
0000
0000
E070
E030
E030
E030
E038
E038
E038
E038
E038
E030
E030
E070
70E0
7FE0
3F80
ENDCHAR
STARTCHAR 03CC
ENCODING 972
SWIDTH 576 0
DWIDTH 16 0
BBX 13 22 2 0
BITMAP
01C0
01C0
0180
0300
0300
0000
0000
1FC0
3FE0
7070
E038
E038
C018
C018
C018
C018
C018
C038
E038
7070
3FE0
1FC0
ENDCHAR
STARTCHAR 03CD
ENCODING 973
SWIDTH 576 0
DWIDTH 16 0
BBX 13 22 2 0
BITMAP
01C0
0380
0300
0300
0600
0000
0000
E070
E030
E030
E030
E038
E038
E038
E038
E038
E030
E030
E070
70E0
7FE0
3F80
ENDCHAR
STARTCHAR 03CE
ENCODING 974
SWIDTH 792 0
DWIDTH 22 0
BBX 18 22 2 0
BITMAP
003800
003000
007000
006000
006000
000000
000000
300300
700380
600180
E001C0
E000C0
C0C0C0
C0C0C0
C0C0C0
C0C0C0
C0C0C0
E0C0C0
E0E1C0
71E180
7FBF80
3F1F00
ENDCHAR
STARTCHAR 03CF
ENCODING 975
SWIDTH 612 0
DWIDTH 17 0
BBX 14 27 3 -7
BITMAP
C01C
C038
C070
C0E0
C1C0
C380
C700
CE00
DC00
DE00
FE00
E700
C380
C380
C1C0
C0E0
C070
C070
C038
C01C
001C
001C
0038
0078
FFF0
FFE0
0E00
ENDCHAR
STARTCHAR 03D0
ENCODING 976
SWIDTH 612 0
DWIDTH 17 0
BBX 14 21 2 0
BITMAP
07E0
0FF0
1C38
3818
7838
7FF0
67E0
6000
E180
EFF0
FC78
F01C
E01C
E00C
600C
600C
600C
701C
3838
3FF0
0FE0
ENDCHAR
STARTCHAR 03D1
ENCODING 977
SWIDTH 612 0
DWIDTH 17 0
BBX 17 21 0 0
BITMAP
07E000
0FF000
1C3800
1C1C00
1C0C00
1C0C00
0E0E00
07CE00
03FF80
707F80
F80600
180600
180600
180600
180E00
380E00
380C00
181C00
1C3800
1FF000
0FE000
ENDCHAR
STARTCHAR 03D2
ENCODING 978
SWIDTH 576 0
DWIDTH 16 0
BBX 16 20 0 0
BITMAP
E007
600F
700E
301C
3818
1C38
1C30
0E70
0E60
07E0
03C0
03C0
0180
0180
0180
0180
0180
0180
0180
0180
ENDCHAR
STARTCHAR 03D3
ENCODING 979
SWIDTH 792 0
DWIDTH 22 0
BBX 22 20 0 0
BITMAP
7B801C
71803C
61C030
60C070
C0E060
0060E0
0071C0
0031C0
003B80
001B00
001F00
000E00
000E00
000E00
000E00
000E00
000E00
000E00
000E00
000E00
ENDCHAR
STARTCHAR 03D4
ENCODING 980
SWIDTH 576 0
DWIDTH 16 0
BBX 16 25 0 0
BITMAP
0E70
0E70
0020
0000
0000
E007
600F
700E
301C
3818
1C38
1C30
0E70
0E60
07E0
03C0
03C0
0180
0180
0180
0180
0180
0180
0180
0180
ENDCHAR
STARTCHAR 03D5
ENCODING 981
SWIDTH 720 0
DWIDTH 20 0
BBX 17 28 2 -7
BITMAP
018000
018000
018000
018000
018000
018000
0FF000
3FFC00
799E00
E18700
E18700
C18300
C18380
C18380
C18380
C18300
E18300
E18700
718E00
3FFC00
0FF000
018000
018000
018000
018000
018000
018000
018000
ENDCHAR
STARTCHAR 03D6
ENCODING 982
SWIDTH 828 0
DWIDTH 23 0
BBX 22 15 1 0
BITMAP
FFFFFC
FFFFFC
180060
380070
300070
303030
303030
303030
303030
303030
303070
387070
1878E0
1FDFE0
0FCFC0
ENDCHAR
STARTCHAR 03D7
ENCODING 983
SWIDTH 504 0
DWIDTH 14 0
BBX 12 20 2 -5
BITMAP
E070
E0E0
E1C0
E380
E700
E700
EE00
FE00
FF00
E380
E380
E1C0
E0E0
E060
E070
0030
0070
0070
F3E0
7FC0
ENDCHAR
STARTCHAR 03D8
ENCODING 984
SWIDTH 756 0
DWIDTH 21 0
BBX 17 20 2 0
BITMAP
07F000
1FFC00
3C1F00
700700
E00380
E00380
C00180
C00180
C00180
C00180
E00180
E00380
700700
780F00
3FFE00
0FF800
01C000
01C000
01C000
01C000
ENDCHAR
STARTCHAR 03D9
ENCODING 985
SWIDTH 576 0
DWIDTH 16 0
BBX 13 22 2 -7
BITMAP
1FC0
3FE0
7070
E038
C038
C018
C018
C018
C018
C018
E038
E038
7070
3FE0
1FC0
0700
0700
0700
0700
0700
0700
0700
ENDCHAR
STARTCHAR 03DA
ENCODING 986
SWIDTH 612 0
DWIDTH 17 0
BBX 14 20 2 0
BITMAP
07F8
1FFC
3C0C
7000
E000
E000
C000
C000
C000
C000
E000
E000
7000
3E00
1FC0
07C0
00C0
00C0
00C0
00C0
ENDCHAR
STARTCHAR 03DB
ENCODING 987
SWIDTH 468 0
DWIDTH 13 0
BBX 10 21 2 -6
BITMAP
1FC0
3FC0
7040
E000
E000
C000
C000
C000
C000
C000
C000
E000
7800
3F00
0F80
01C0
00C0
00C0
21C0
3F80
1E00
ENDCHAR
STARTCHAR 03DC
ENCODING 988
SWIDTH 504 0
DWIDTH 14 0
BBX 11 20 3 0
BITMAP
FFE0
FFE0
C000
C000
C000
C000
C000
C000
C000
FFC0
FFC0
FFC0
C1C0
C1C0
C1C0
C000
C000
C000
C000
C000
ENDCHAR
STARTCHAR 03DD
ENCODING 989
SWIDTH 504 0
DWIDTH 14 0
BBX 11 22 3 -7
BITMAP
FFE0
FFE0
C000
C000
C000
C000
C000
C000
FFC0
FFC0
C1C0
C1C0
C1C0
C1C0
C000
C000
C000
C000
C000
C000
C000
C000
ENDCHAR
STARTCHAR 03DE
ENCODING 990
SWIDTH 468 0
DWIDTH 13 0
BBX 13 20 0 0
BITMAP
F000
F800
1800
1800
1800
3800
3800
3000
3000
7FF0
7FF0
0070
0070
0060
00E0
00E0
00C0
00E0
00F8
0078
ENDCHAR
STARTCHAR 03DF
ENCODING 991
SWIDTH 540 0
DWIDTH 15 0
BBX 13 28 1 -7
BITMAP
7800
7C00
0C00
0C00
0C00
1C00
1C00
1800
3800
3000
7018
73F8
7FF8
FF30
E030
0070
0060
0060
00E0
00C0
00C0
01C0
0180
0180
0180
01C0
01F0
0070
ENDCHAR
STARTCHAR 03E0
ENCODING 992
SWIDTH 576 0
DWIDTH 16 0
BBX 15 20 0 0
BITMAP
3F80
FFE0
E0F0
00F8
03F8
079C
1E1C
1C1C
003C
007C
01EE
038E
030E
000E
000C
000C
001C
001C
001C
0038
ENDCHAR
STARTCHAR 03E1
ENCODING 993
SWIDTH 504 0
DWIDTH 14 0
BBX 15 28 -2 -7
BITMAP
E000
F800
3E00
0F00
0380
01C0
00E0
00F0
07F8
1FB8
0C18
001C
000C
007C
03FE
078E
040E
000E
000E
000E
000E
000C
000C
000C
001C
0018
0018
0038
ENDCHAR
STARTCHAR 03F0
ENCODING 1008
SWIDTH 648 0
DWIDTH 18 0
BBX 17 15 1 0
BITMAP
F00700
F80E00
1C1E00
1C1E00
0C3C00
0C7C00
0CFC00
0DDC00
0D9C00
1F1C00
1F1C00
1E1C00
1C0E00
380F80
380780
ENDCHAR
STARTCHAR 03F1
ENCODING 1009
SWIDTH 576 0
DWIDTH 16 0
BBX 13 22 2 -7
BITMAP
1FC0
3FE0
7070
6030
E038
E038
C018
C018
C018
C038
C038
E070
F9E0
FFC0
C700
C000
E000
7C00
3FE0
0FE0
0060
0060
ENDCHAR
STARTCHAR 03F2
ENCODING 1010
SWIDTH 468 0
DWIDTH 13 0
BBX 10 15 2 0
BITMAP
1FC0
3FC0
7040
E000
E000
C000
C000
C000
C000
C000
C000
E000
7000
7FC0
1FC0
ENDCHAR
STARTCHAR 03F3
ENCODING 1011
SWIDTH 252 0
DWIDTH 7 0
BBX 7 27 -2 -7
BITMAP
0E
0E
04
00
00
0E
0E
0E
0E
0E
0E
0E
0E
0E
0E
0E
0E
0E
0E
0E
0E
0E
0E
0E
9C
FC
70
ENDCHAR
STARTCHAR 03F4
ENCODING 1012
SWIDTH 756 0
DWIDTH 21 0
BBX 18 20 2 0
BITMAP
07F800
1FFC00
3C0F00
780700
700380
E00180
E001C0
E001C0
C001C0
FFFFC0
FFFFC0
C001C0
E001C0
E001C0
E00180
700380
700700
3C0F00
1FFE00
07F800
ENDCHAR
STARTCHAR 03F5
ENCODING 1013
SWIDTH 468 0
DWIDTH 13 0
BBX 11 15 2 0
BITMAP
1FC0
3FE0
7000
E000
C000
C000
FF80
FF80
C000
C000
C000
E000
7020
3FE0
1FE0
ENDCHAR
STARTCHAR 03F6
ENCODING 1014
SWIDTH 468 0
DWIDTH 13 0
BBX 11 15 1 0
BITMAP
FF00
FF80
01C0
00C0
00E0
0060
7FE0
7FE0
0060
0060
00E0
00C0
01C0
FF80
FF00
ENDCHAR
STARTCHAR 03F7
ENCODING 1015
SWIDTH 576 0
DWIDTH 16 0
BBX 12 20 3 0
BITMAP
C000
C000
C000
C000
FFC0
FFE0
C0F0
C070
C030
C030
C030
C070
C070
C7E0
FFC0
FE00
C000
C000
C000
C000
ENDCHAR
STARTCHAR 03F8
ENCODING 1016
SWIDTH 612 0
DWIDTH 17 0
BBX 14 28 2 -7
BITMAP
E000
E000
E000
E000
E000
E000
E7C0
FFF0
F870
F038
E018
E018
E01C
E01C
E01C
E018
E018
F038
F070
FFF0
EFC0
E000
E000
E000
E000
E000
E000
E000
ENDCHAR
STARTCHAR 03F9
ENCODING 1017
SWIDTH 612 0
DWIDTH 17 0
BBX 14 20 2 0
BITMAP
07F8
0FFC
3E0C
3800
7000
E000
E000
E000
C000
C000
C000
C000
E000
E000
E000
7000
7800
3C04
1FFC
07FC
ENDCHAR
STARTCHAR 03FA
ENCODING 1018
SWIDTH 900 0
DWIDTH 25 0
BBX 20 20 3 0
BITMAP
E000F0
F001F0
F001F0
F803F0
DC0770
CC0670
CE0E70
C70C70
C31C70
C3B870
C1B070
C1F070
C0E070
C00070
C00070
C00070
C00070
C00070
C00070
C00070
ENDCHAR
STARTCHAR 03FB
ENCODING 1019
SWIDTH 720 0
DWIDTH 20 0
BBX 16 22 2 -7
BITMAP
F007
F00F
F81F
F81F
EC3F
EE77
E667
E3E7
E3C7
E187
E007
E007
E007
E007
E007
E000
E000
E000
E000
E000
E000
E000
ENDCHAR
STARTCHAR 03FC
ENCODING 1020
SWIDTH 576 0
DWIDTH 16 0
BBX 15 22 0 -7
BITMAP
07E0
0FF8
1C1C
180C
380E
380E
3006
3006
3006
300E
300E
300C
381C
3FF8
37F0
3000
3000
FFC0
FFC0
3000
3000
3000
ENDCHAR
STARTCHAR 03FD
ENCODING 1021
SWIDTH 612 0
DWIDTH 17 0
BBX 15 20 1 0
BITMAP
7F80
FFE0
60F0
0038
001C
001C
000C
000E
000E
000E
000E
000E
000E
000C
001C
001C
0038
00F0
7FE0
7FC0
ENDCHAR
STARTCHAR 03FE
ENCODING 1022
SWIDTH 612 0
DWIDTH 17 0
BBX 14 20 2 0
BITMAP
07F8
0FFC
3E0C
3800
7000
E000
E000
E000
C080
C1C0
C1E0
C0C0
E000
E000
E000
7000
7800
3C04
1FFC
07FC
ENDCHAR
STARTCHAR 03FF
ENCODING 1023
SWIDTH 612 0
DWIDTH 17 0
BBX 15 20 1 0
BITMAP
7F80
FFE0
60F0
0038
001C
001C
000C
000E
040E
0E0E
0E0E
0E0E
000E
000C
001C
001C
0038
00F0
7FE0
7FC0
ENDCHAR
STARTCHAR 0400
ENCODING 1024
SWIDTH 540 0
DWIDTH 15 0
BBX 11 26 3 0
BITMAP
3800
1C00
0C00
0600
0000
0000
FFE0
FFE0
C000
C000
C000
C000
C000
C000
C000
FFC0
FFC0
C000
C000
C000
C000
C000
C000
C000
FFE0
FFE0
ENDCHAR
STARTCHAR 0401
ENCODING 1025
SWIDTH 540 0
DWIDTH 15 0
BBX 11 25 3 0
BITMAP
3180
3180
0000
0000
0000
FFE0
FFE0
C000
C000
C000
C000
C000
C000
C000
FFC0
FFC0
C000
C000
C000
C000
C000
C000
C000
FFE0
FFE0
ENDCHAR
STARTCHAR 0402
ENCODING 1026
SWIDTH 720 0
DWIDTH 20 0
BBX 19 20 0 0
BITMAP
FFF800
FFF800
060000
060000
060000
060000
060000
060000
07FF00
07FF80
0601C0
0600C0
0600C0
0600E0
0600E0
0600C0
0600C0
0601C0
061F80
061F00
ENDCHAR
STARTCHAR 0403
ENCODING 1027
SWIDTH 504 0
DWIDTH 14 0
BBX 11 26 3 0
BITMAP
0380
0700
0600
0C00
0000
0000
FFE0
FFE0
C000
C000
C000
C000
C000
C000
C000
C000
C000
C000
C000
C000
C000
C000
C000
C000
C000
C000
ENDCHAR
STARTCHAR 0404
ENCODING 1028
SWIDTH 612 0
DWIDTH 17 0
BBX 15 20 2 0
BITMAP
07FC
1FFE
3E0C
3800
7000
E000
E000
E000
C000
FFF0
FFF0
C000
E000
E000
E000
7000
7800
3C00
1FFC
07FC
ENDCHAR
STARTCHAR 0405
ENCODING 1029
SWIDTH 540 0
DWIDTH 15 0
BBX 13 20 1 0
BITMAP
0FE0
3FF0
7830
7000
6000
6000
7000
7000
3C00
1F80
07E0
01F0
0078
0038
0038
0038
0038
C070
FFE0
7FC0
ENDCHAR
STARTCHAR 0406
ENCODING 1030
SWIDTH 324 0
DWIDTH 9 0
BBX 7 20 1 0
BITMAP
FE
FE
38
38
38
38
38
38
38
38
38
38
38
38
38
38
38
38
FE
FE
ENDCHAR
STARTCHAR 0407
ENCODING 1031
SWIDTH 324 0
DWIDTH 9 0
BBX 8 25 1 0
BITMAP
C7
C7
00
00
00
FE
FE
38
38
38
38
38
38
38
38
38
38
38
38
38
38
38
38
FE
FE
ENDCHAR
STARTCHAR 0408
ENCODING 1032
SWIDTH 252 0
DWIDTH 7 0
BBX 7 25 -2 -5
BITMAP
06
06
06
06
06
06
06
06
06
06
06
06
06
06
06
06
06
06
06
06
06
0E
0E
FC
F8
ENDCHAR
STARTCHAR 0409
ENCODING 1033
SWIDTH 936 0
DWIDTH 26 0
BBX 25 20 0 0
BITMAP
03FF0000
03FF0000
03070000
03070000
03070000
07070000
07070000
07070000
06070000
0607FC00
0607FF00
0E070700
0E070380
0E070380
0C070380
0C070380
1C070380
1C070F00
F807FE00
F007F800
ENDCHAR
STARTCHAR 040A
ENCODING 1034
SWIDTH 936 0
DWIDTH 26 0
BBX 23 20 3 0
BITMAP
C01800
C01800
C01800
C01800
C01800
C01800
C01800
C01800
C01800
FFFFF0
FFFFF8
C0181C
C0180C
C0180E
C0180E
C0180C
C0181C
C0183C
C01FF8
C01FE0
ENDCHAR
STARTCHAR 040B
ENCODING 1035
SWIDTH 720 0
DWIDTH 20 0
BBX 19 20 0 0
BITMAP
FFFC00
FFFC00
060000
060000
060000
060000
060000
060000
07FF00
07FF80
0601C0
0600C0
0600C0
0600E0
0600E0
0600E0
0600E0
0600E0
0600E0
0600E0
ENDCHAR
STARTCHAR 040C
ENCODING 1036
SWIDTH 612 0
DWIDTH 17 0
BBX 14 26 3 0
BITMAP
01C0
0380
0300
0600
0000
0000
C018
C038
C070
C0E0
C1C0
C380
C700
CE00
DC00
F800
DC00
CE00
CF00
C700
C380
C1C0
C0E0
C070
C038
C01C
ENDCHAR
STARTCHAR 040D
ENCODING 1037
SWIDTH 756 0
DWIDTH 21 0
BBX 16 26 3 0
BITMAP
0700
0700
0380
01C0
0000
0000
C007
C00F
C01F
C01F
C03F
C077
C067
C0E7
C1C7
C187
C387
C707
C607
CE07
DC07
DC07
F807
F007
F007
E007
ENDCHAR
STARTCHAR 040E
ENCODING 1038
SWIDTH 612 0
DWIDTH 17 0
BBX 17 26 0 0
BITMAP
0C0C00
0C1C00
0FF800
07F000
000000
000000
E00180
700380
300300
380700
180600
1C0E00
0C0E00
0E0C00
061C00
071800
033800
03B000
01F000
01E000
00E000
00C000
01C000
438000
7F8000
7E0000
ENDCHAR
STARTCHAR 040F
ENCODING 1039
SWIDTH 720 0
DWIDTH 20 0
BBX 15 25 3 -5
BITMAP
C00E
C00E
C00E
C00E
C00E
C00E
C00E
C00E
C00E
C00E
C00E
C00E
C00E
C00E
C00E
C00E
C00E
C00E
FFFE
FFFE
0300
0300
0300
0300
0300
ENDCHAR
STARTCHAR 0410
ENCODING 1040
SWIDTH 612 0
DWIDTH 17 0
BBX 18 20 0 0
BITMAP
00C000
01E000
01E000
03E000
037000
033000
073000
063800
0E1800
0E1C00
0C0C00
1C0C00
1FFE00
1FFE00
380700
300700
700300
700380
600180
E001C0
ENDCHAR
STARTCHAR 0411
ENCODING 1041
SWIDTH 612 0
DWIDTH 17 0
BBX 13 20 3 0
BITMAP
FFE0
FFE0
C000
C000
C000
C000
C000
C000
C000
FFC0
FFE0
C070
C030
C038
C038
C038
C070
C0F0
FFE0
FF80
ENDCHAR
STARTCHAR 0412
ENCODING 1042
SWIDTH 648 0
DWIDTH 18 0
BBX 14 20 3 0
BITMAP
FF80
FFE0
C0F0
C038
C038
C038
C038
C030
C1E0
FF80
FFF0
C038
C038
C01C
C01C
C018
C038
C078
FFF0
FFC0
ENDCHAR
STARTCHAR 0413
ENCODING 1043
SWIDTH 504 0
DWIDTH 14 0
BBX 11 20 3 0
BITMAP
FFE0
FFE0
C000
C000
C000
C000
C000
C000
C000
C000
C000
C000
C000
C000
C000
C000
C000
C000
C000
C000
ENDCHAR
STARTCHAR 0414
ENCODING 1044
SWIDTH 684 0
DWIDTH 19 0
BBX 19 25 0 -5
BITMAP
01FF00
01FF00
018300
018300
038300
038300
030300
030300
070300
070300
060300
060300
0E0300
0C0300
1C0300
1C0300
380300
300300
FFFFE0
FFFFE0
E000E0
E000E0
E000E0
E000E0
E000E0
ENDCHAR
STARTCHAR 0415
ENCODING 1045
SWIDTH 540 0
DWIDTH 15 0
BBX 11 20 3 0
BITMAP
FFE0
FFE0
C000
C000
C000
C000
C000
C000
C000
FFC0
FFC0
C000
C000
C000
C000
C000
C000
C000
FFE0
FFE0
ENDCHAR
STARTCHAR 0416
ENCODING 1046
SWIDTH 828 0
DWIDTH 23 0
BBX 23 20 0 0
BITMAP
60180E
70180C
38181C
1C1838
0E1870
0618E0
0718C0
0399C0
01DB80
00DF00
01FF00
019B80
0399C0
0718E0
0E1860
0C1870
1C1838
38181C
70180E
E0180E
ENDCHAR
STARTCHAR 0417
ENCODING 1047
SWIDTH 576 0
DWIDTH 16 0
BBX 14 20 1 0
BITMAP
1FC0
7FF0
7078
4038
0018
0018
0038
0038
01E0
3F80
3FF0
0078
0018
001C
001C
001C
0018
C078
FFF0
7FC0
ENDCHAR
STARTCHAR 0418
ENCODING 1048
SWIDTH 756 0
DWIDTH 21 0
BBX 16 20 3 0
BITMAP
C007
C00F
C01F
C01F
C03F
C077
C067
C0E7
C1C7
C187
C387
C707
C607
CE07
DC07
DC07
F807
F007
F007
E007
ENDCHAR
STARTCHAR 0419
ENCODING 1049
SWIDTH 756 0
DWIDTH 21 0
BBX 16 26 3 0
BITMAP
1818
1C38
0FF0
07E0
0000
0000
C007
C00F
C01F
C01F
C03F
C077
C067
C0E7
C1C7
C187
C387
C707
C607
CE07
DC07
DC07
F807
F007
F007
E007
ENDCHAR
STARTCHAR 041A
ENCODING 1050
SWIDTH 612 0
DWIDTH 17 0
BBX 14 20 3 0
BITMAP
C018
C038
C070
C0E0
C1C0
C380
C700
CE00
DC00
F800
DC00
CE00
CF00
C700
C380
C1C0
C0E0
C070
C038
C01C
ENDCHAR
STARTCHAR 041B
ENCODING 1051
SWIDTH 684 0
DWIDTH 19 0
BBX 17 20 0 0
BITMAP
03FF80
03FF80
030380
030380
030380
070380
070380
070380
060380
060380
060380
060380
0E0380
0E0380
0C0380
0C0380
1C0380
1C0380
F80380
F00380
ENDCHAR
STARTCHAR 041C
ENCODING 1052
SWIDTH 900 0
DWIDTH 25 0
BBX 20 20 3 0
BITMAP
F000F0
F001F0
F001F0
F801F0
D80370
D80370
DC0770
CC0670
CE0670
C60E70
C60C70
C71C70
C31870
C31870
C3B870
C1B070
C1F070
C0E070
C0E070
C0E070
ENDCHAR
STARTCHAR 041D
ENCODING 1053
SWIDTH 720 0
DWIDTH 20 0
BBX 15 20 3 0
BITMAP
C00E
C00E
C00E
C00E
C00E
C00E
C00E
C00E
C00E
FFFE
FFFE
C00E
C00E
C00E
C00E
C00E
C00E
C00E
C00E
C00E
ENDCHAR
STARTCHAR 041E
ENCODING 1054
SWIDTH 756 0
DWIDTH 21 0
BBX 18 20 2 0
BITMAP
07F800
1FFC00
3C0F00
780700
700380
E00180
E001C0
E001C0
C001C0
C001C0
C001C0
C001C0
E001C0
E001C0
E00180
700380
700700
3C0F00
1FFE00
07F800
ENDCHAR
STARTCHAR 041F
ENCODING 1055
SWIDTH 720 0
DWIDTH 20 0
BBX 15 20 3 0
BITMAP
FFFE
FFFE
C00E
C00E
C00E
C00E
C00E
C00E
C00E
C00E
C00E
C00E
C00E
C00E
C00E
C00E
C00E
C00E
C00E
C00E
ENDCHAR
STARTCHAR 0420
ENCODING 1056
SWIDTH 576 0
DWIDTH 16 0
BBX 12 20 3 0
BITMAP
FF00
FFC0
C1E0
C070
C030
C030
C030
C030
C070
C0E0
FFE0
FF80
C000
C000
C000
C000
C000
C000
C000
C000
ENDCHAR
STARTCHAR 0421
ENCODING 1057
SWIDTH 612 0
DWIDTH 17 0
BBX 14 20 2 0
BITMAP
07F8
0FFC
3E0C
3800
7000
E000
E000
E000
C000
C000
C000
C000
E000
E000
E000
7000
7800
3C04
1FFC
07FC
ENDCHAR
STARTCHAR 0422
ENCODING 1058
SWIDTH 540 0
DWIDTH 15 0
BBX 15 20 0 0
BITMAP
FFFE
FFFE
0380
0380
0380
0380
0380
0380
0380
0380
0380
0380
0380
0380
0380
0380
0380
0380
0380
0380
ENDCHAR
STARTCHAR 0423
ENCODING 1059
SWIDTH 612 0
DWIDTH 17 0
BBX 17 20 0 0
BITMAP
E00180
700380
300300
380700
180600
1C0E00
0C0E00
0E0C00
061C00
071800
033800
03B000
01F000
01E000
00E000
00C000
01C000
438000
7F8000
7E0000
ENDCHAR
STARTCHAR 0424
ENCODING 1060
SWIDTH 792 0
DWIDTH 22 0
BBX 20 20 1 0
BITMAP
006000
006000
01FC00
0FFF80
3F6FC0
3861E0
706060
606070
E06070
E06070
E06070
606070
706060
7060E0
3C61C0
1FFF80
07FF00
006000
006000
006000
ENDCHAR
STARTCHAR 0425
ENCODING 1061
SWIDTH 576 0
DWIDTH 16 0
BBX 16 20 0 0
BITMAP
7006
700E
380C
181C
1C38
0E30
0670
07E0
03C0
01C0
03C0
03E0
0660
0E70
0C38
1C18
381C
300E
700E
E007
ENDCHAR
STARTCHAR 0426
ENCODING 1062
SWIDTH 720 0
DWIDTH 20 0
BBX 17 25 3 -5
BITMAP
C00E00
C00E00
C00E00
C00E00
C00E00
C00E00
C00E00
C00E00
C00E00
C00E00
C00E00
C00E00
C00E00
C00E00
C00E00
C00E00
C00E00
C00E00
FFFF80
FFFF80
000180
000180
000180
000180
000180
ENDCHAR
STARTCHAR 0427
ENCODING 1063
SWIDTH 684 0
DWIDTH 19 0
BBX 15 20 2 0
BITMAP
E00E
E00E
E00E
E00E
E00E
E00E
E00E
E00E
E00E
E00E
703E
7FFE
1FCE
000E
000E
000E
000E
000E
000E
000E
ENDCHAR
STARTCHAR 0428
ENCODING 1064
SWIDTH 1008 0
DWIDTH 28 0
BBX 23 20 3 0
BITMAP
C03806
C03806
C03806
C03806
C03806
C03806
C03806
C03806
C03806
C03806
C03806
C03806
C03806
C03806
C03806
C03806
C03806
C03806
FFFFFE
FFFFFE
ENDCHAR
STARTCHAR 0429
ENCODING 1065
SWIDTH 1008 0
DWIDTH 28 0
BBX 25 25 3 -5
BITMAP
C0300E00
C0300E00
C0300E00
C0300E00
C0300E00
C0300E00
C0300E00
C0300E00
C0300E00
C0300E00
C0300E00
C0300E00
C0300E00
C0300E00
C0300E00
C0300E00
C0300E00
C0300E00
FFFFFF80
FFFFFF80
00000180
00000180
00000180
00000180
00000180
ENDCHAR
STARTCHAR 042A
ENCODING 1066
SWIDTH 684 0
DWIDTH 19 0
BBX 18 20 0 0
BITMAP
FE0000
FE0000
060000
060000
060000
060000
060000
060000
060000
07FE00
07FF80
060380
0601C0
0601C0
0601C0
0601C0
060180
060780
07FF00
07FC00
ENDCHAR
STARTCHAR 042B
ENCODING 1067
SWIDTH 828 0
DWIDTH 23 0
BBX 18 20 3 0
BITMAP
C000C0
C000C0
C000C0
C000C0
C000C0
C000C0
C000C0
C000C0
C000C0
FFC0C0
FFE0C0
C070C0
C030C0
C038C0
C038C0
C030C0
C070C0
C0F0C0
FFE0C0
FF80C0
ENDCHAR
STARTCHAR 042C
ENCODING 1068
SWIDTH 612 0
DWIDTH 17 0
BBX 13 20 3 0
BITMAP
C000
C000
C000
C000
C000
C000
C000
C000
C000
FFE0
FFF0
C078
C038
C018
C018
C018
C038
C0F0
FFF0
FFC0
ENDCHAR
STARTCHAR 042D
ENCODING 1069
SWIDTH 612 0
DWIDTH 17 0
BBX 15 20 1 0
BITMAP
7F80
FFE0
60F0
0038
001C
001C
000C
000E
000E
1FFE
1FFE
000E
000E
000C
001C
001C
0038
80F0
FFE0
FFC0
ENDCHAR
STARTCHAR 042E
ENCODING 1070
SWIDTH 1044 0
DWIDTH 29 0
BBX 24 20 3 0
BITMAP
C00FE0
C03FF8
C0783C
C0F00E
C0E006
C0C007
C1C007
C1C003
C1C003
FFC003
FFC003
C1C003
C1C003
C1C007
C1C007
C0E006
C0E00E
C0781C
C03FF8
C00FF0
ENDCHAR
STARTCHAR 042F
ENCODING 1071
SWIDTH 612 0
DWIDTH 17 0
BBX 14 20 1 0
BITMAP
07FC
1FFC
3E0C
780C
700C
700C
700C
700C
380C
3E0C
1FFC
07FC
0E0C
0E0C
1C0C
380C
380C
700C
600C
E00C
ENDCHAR
STARTCHAR 0430
ENCODING 1072
SWIDTH 540 0
DWIDTH 15 0
BBX 12 15 1 0
BITMAP
1FC0
3FE0
3070
0030
0030
0030
0FF0
3FF0
7030
E030
E030
E070
E0F0
7FB0
3F30
ENDCHAR
STARTCHAR 0431
ENCODING 1073
SWIDTH 576 0
DWIDTH 16 0
BBX 13 21 2 0
BITMAP
00F8
0FF8
1F80
3800
7000
6000
E000
C780
DFE0
F870
E038
E038
C038
C018
C018
C038
E038
6038
7070
3FE0
1FC0
ENDCHAR
STARTCHAR 0432
ENCODING 1074
SWIDTH 576 0
DWIDTH 16 0
BBX 13 15 2 0
BITMAP
FFC0
FFE0
E0F0
E030
E030
E070
FFE0
FFE0
E0F0
E038
E038
E038
E070
FFF0
FFC0
ENDCHAR
STARTCHAR 0433
ENCODING 1075
SWIDTH 432 0
DWIDTH 12 0
BBX 9 15 2 0
BITMAP
FF80
FF80
E000
E000
E000
E000
E000
E000
E000
E000
E000
E000
E000
E000
E000
ENDCHAR
STARTCHAR 0434
ENCODING 1076
SWIDTH 576 0
DWIDTH 16 0
BBX 15 20 1 -5
BITMAP
07F0
0FF0
0E30
0E30
0C30
0C30
0C30
1C30
1830
1830
3830
3030
7030
FFFE
FFFE
C00E
C00E
C00E
C00E
C00E
ENDCHAR
STARTCHAR 0435
ENCODING 1077
SWIDTH 540 0
DWIDTH 15 0
BBX 12 15 2 0
BITMAP
1F80
3FC0
70E0
E070
C070
C030
FFF0
FFF0
C000
C000
E000
E000
7010
3FF0
1FE0
ENDCHAR
STARTCHAR 0436
ENCODING 1078
SWIDTH 720 0
DWIDTH 20 0
BBX 20 15 0 0
BITMAP
707070
3070E0
1870C0
1C7180
0E7380
077700
03FE00
01FC00
037E00
077700
0E7380
1C71C0
3870E0
707060
E07030
ENDCHAR
STARTCHAR 0437
ENCODING 1079
SWIDTH 468 0
DWIDTH 13 0
BBX 11 15 1 0
BITMAP
7F80
FFC0
40E0
00E0
00E0
00C0
1F80
1F80
01C0
0060
0060
0060
80E0
FFC0
FF80
ENDCHAR
STARTCHAR 0438
ENCODING 1080
SWIDTH 612 0
DWIDTH 17 0
BBX 13 15 2 0
BITMAP
E038
E038
E078
E0F8
E0D8
E198
E398
E318
E718
EE18
EC18
FC18
F818
F018
F018
ENDCHAR
STARTCHAR 0439
ENCODING 1081
SWIDTH 612 0
DWIDTH 17 0
BBX 13 21 2 0
BITMAP
3030
3830
1FF0
0FC0
0000
0000
E038
E038
E078
E0F8
E0D8
E198
E398
E318
E718
EE18
EC18
FC18
F818
F018
F018
ENDCHAR
STARTCHAR 043A
ENCODING 1082
SWIDTH 504 0
DWIDTH 14 0
BBX 12 15 2 0
BITMAP
E060
E0E0
E1C0
E380
E700
EE00
EC00
FC00
EE00
E600
E300
E380
E1C0
E0E0
E070
ENDCHAR
STARTCHAR 043B
ENCODING 1083
SWIDTH 576 0
DWIDTH 16 0
BBX 14 15 0 0
BITMAP
07FC
07FC
061C
0E1C
0E1C
0E1C
0C1C
0C1C
0C1C
1C1C
1C1C
181C
381C
F01C
F01C
ENDCHAR
STARTCHAR 043C
ENCODING 1084
SWIDTH 720 0
DWIDTH 20 0
BBX 16 15 2 0
BITMAP
F007
F007
F80F
D80F
F81F
EC1B
EC1B
EE33
E633
E673
E363
E363
E3C3
E1C3
E1C3
ENDCHAR
STARTCHAR 043D
ENCODING 1085
SWIDTH 612 0
DWIDTH 17 0
BBX 13 15 2 0
BITMAP
E018
E018
E018
E018
E018
E018
FFF8
FFF8
E018
E018
E018
E018
E018
E018
E018
ENDCHAR
STARTCHAR 043E
ENCODING 1086
SWIDTH 576 0
DWIDTH 16 0
BBX 13 15 2 0
BITMAP
1FC0
3FE0
7070
E038
E038
C018
C018
C018
C018
C018
C038
E038
7070
3FE0
1FC0
ENDCHAR
STARTCHAR 043F
ENCODING 1087
SWIDTH 612 0
DWIDTH 17 0
BBX 13 15 2 0
BITMAP
FFF8
FFF8
E038
E038
E038
E038
E038
E038
E038
E038
E038
E038
E038
E038
E038
ENDCHAR
STARTCHAR 0440
ENCODING 1088
SWIDTH 612 0
DWIDTH 17 0
BBX 14 22 2 -7
BITMAP
C7C0
FFF0
F870
F038
E018
E018
E01C
E01C
E01C
E018
E018
F038
F070
FFF0
EFC0
E000
E000
E000
E000
E000
E000
E000
ENDCHAR
STARTCHAR 0441
ENCODING 1089
SWIDTH 468 0
DWIDTH 13 0
BBX 10 15 2 0
BITMAP
1FC0
3FC0
7040
E000
E000
C000
C000
C000
C000
C000
C000
E000
7000
7FC0
1FC0
ENDCHAR
STARTCHAR 0442
ENCODING 1090
SWIDTH 468 0
DWIDTH 13 0
BBX 12 15 1 0
BITMAP
FFF0
FFF0
0E00
0E00
0E00
0E00
0E00
0E00
0E00
0E00
0E00
0E00
0E00
0E00
0E00
ENDCHAR
STARTCHAR 0443
ENCODING 1091
SWIDTH 504 0
DWIDTH 14 0
BBX 14 22 0 -7
BITMAP
E01C
601C
7018
7038
3038
3830
1870
1860
1C60
0CE0
0EC0
06C0
07C0
0780
0380
0300
0700
0700
0E00
1C00
FC00
6000
ENDCHAR
STARTCHAR 0444
ENCODING 1092
SWIDTH 720 0
DWIDTH 20 0
BBX 18 28 1 -7
BITMAP
00C000
00C000
00C000
00C000
00C000
00C000
07F800
1FFE00
3CCF00
70C380
70C380
60C180
60C1C0
E0C1C0
60C1C0
60C180
70C380
70C380
38C700
1FFE00
07F800
00C000
00C000
00C000
00C000
00C000
00C000
00C000
ENDCHAR
STARTCHAR 0445
ENCODING 1093
SWIDTH 504 0
DWIDTH 14 0
BBX 13 15 1 0
BITMAP
E038
6070
7060
38E0
1DC0
0D80
0F00
0700
0F80
1D80
19C0
38E0
7060
6070
E038
ENDCHAR
STARTCHAR 0446
ENCODING 1094
SWIDTH 612 0
DWIDTH 17 0
BBX 15 20 2 -5
BITMAP
E038
E038
E038
E038
E038
E038
E038
E038
E038
E038
E038
E038
E038
FFFE
FFFE
0006
0006
0006
0006
0006
ENDCHAR
STARTCHAR 0447
ENCODING 1095
SWIDTH 612 0
DWIDTH 17 0
BBX 13 15 2 0
BITMAP
E038
E038
E038
E038
E038
E038
E038
E0F8
7FF8
3F38
0038
0038
0038
0038
0038
ENDCHAR
STARTCHAR 0448
ENCODING 1096
SWIDTH 864 0
DWIDTH 24 0
BBX 21 15 2 0
BITMAP
E07038
E07038
E07038
E07038
E07038
E07038
E07038
E07038
E07038
E07038
E07038
E07038
E07038
FFFFF8
FFFFF8
ENDCHAR
STARTCHAR 0449
ENCODING 1097
SWIDTH 900 0
DWIDTH 25 0
BBX 23 20 2 -5
BITMAP
E07038
E07038
E07038
E07038
E07038
E07038
E07038
E07038
E07038
E07038
E07038
E07038
E07038
FFFFFE
FFFFFE
00000E
00000E
00000E
00000E
00000E
ENDCHAR
STARTCHAR 044A
ENCODING 1098
SWIDTH 684 0
DWIDTH 19 0
BBX 18 15 0 0
BITMAP
FF0000
FF0000
070000
070000
070000
070000
07FE00
07FF80
070780
0701C0
0701C0
0701C0
070380
07FF80
07FE00
ENDCHAR
STARTCHAR 044B
ENCODING 1099
SWIDTH 756 0
DWIDTH 21 0
BBX 17 15 2 0
BITMAP
E00180
E00180
E00180
E00180
E00180
E00180
FF8180
FFE180
E0F180
E03180
E03180
E03180
E07180
FFE180
FFC180
ENDCHAR
STARTCHAR 044C
ENCODING 1100
SWIDTH 576 0
DWIDTH 16 0
BBX 13 15 2 0
BITMAP
E000
E000
E000
E000
E000
E000
FFC0
FFF0
E0F8
E038
E018
E038
E038
FFF0
FFC0
ENDCHAR
STARTCHAR 044D
ENCODING 1101
SWIDTH 468 0
DWIDTH 13 0
BBX 11 15 1 0
BITMAP
FF00
FF80
01C0
00C0
00E0
0060
7FE0
7FE0
0060
0060
00E0
00C0
01C0
FF80
FF00
ENDCHAR
STARTCHAR 044E
ENCODING 1102
SWIDTH 828 0
DWIDTH 23 0
BBX 20 15 2 0
BITMAP
E03F00
E07FC0
E0E1C0
E1C0E0
E18060
E18070
FF8070
FF8070
E18070
E18070
E18060
E1C0E0
E0E0C0
E07FC0
E03F00
ENDCHAR
STARTCHAR 044F
ENCODING 1103
SWIDTH 540 0
DWIDTH 15 0
BBX 12 15 1 0
BITMAP
1FF0
7FF0
7030
E030
E030
E030
7030
7FF0
1FF0
1C30
3830
3830
7030
E030
E030
ENDCHAR
STARTCHAR 0450
ENCODING 1104
SWIDTH 540 0
DWIDTH 15 0
BBX 12 21 2 0
BITMAP
1C00
1C00
0E00
0700
0000
0000
1F80
3FC0
70E0
E070
C070
C030
FFF0
FFF0
C000
C000
E000
E000
7010
3FF0
1FE0
ENDCHAR
STARTCHAR 0451
ENCODING 1105
SWIDTH 540 0
DWIDTH 15 0
BBX 12 20 2 0
BITMAP
39C0
39C0
0000
0000
0000
1F80
3FC0
70E0
E070
C070
C030
FFF0
FFF0
C000
C000
E000
E000
7010
3FF0
1FE0
ENDCHAR
STARTCHAR 0452
ENCODING 1106
SWIDTH 612 0
DWIDTH 17 0
BBX 15 28 0 -7
BITMAP
3800
3800
FFC0
FFC0
3800
3800
3840
3BF8
3FBC
3C0E
380E
380E
380E
380E
380E
380E
380E
380E
380E
380E
380E
000E
000E
000E
000E
005E
007C
0030
ENDCHAR
STARTCHAR 0453
ENCODING 1107
SWIDTH 432 0
DWIDTH 12 0
BBX 9 21 2 0
BITMAP
0700
0700
0E00
1C00
0000
0000
FF80
FF80
E000
E000
E000
E000
E000
E000
E000
E000
E000
E000
E000
E000
E000
ENDCHAR
STARTCHAR 0454
ENCODING 1108
SWIDTH 468 0
DWIDTH 13 0
BBX 11 15 2 0
BITMAP
1FC0
3FE0
7000
E000
C000
C000
FF80
FF80
C000
C000
C000
E000
7020
3FE0
1FE0
ENDCHAR
STARTCHAR 0455
ENCODING 1109
SWIDTH 468 0
DWIDTH 13 0
BBX 11 15 1 0
BITMAP
1FC0
7FC0
6040
E000
E000
7000
3E00
1F80
03C0
00E0
0060
0060
80E0
FFC0
7F80
ENDCHAR
STARTCHAR 0456
ENCODING 1110
SWIDTH 252 0
DWIDTH 7 0
BBX 3 20 2 0
BITMAP
E0
E0
40
00
00
E0
E0
E0
E0
E0
E0
E0
E0
E0
E0
E0
E0
E0
E0
E0
ENDCHAR
STARTCHAR 0457
ENCODING 1111
SWIDTH 252 0
DWIDTH 7 0
BBX 7 20 0 0
BITMAP
C6
C6
00
00
00
38
38
38
38
38
38
38
38
38
38
38
38
38
38
38
ENDCHAR
STARTCHAR 0458
ENCODING 1112
SWIDTH 252 0
DWIDTH 7 0
BBX 7 27 -2 -7
BITMAP
0E
0E
04
00
00
0E
0E
0E
0E
0E
0E
0E
0E
0E
0E
0E
0E
0E
0E
0E
0E
0E
0E
0E
9C
FC
70
ENDCHAR
STARTCHAR 0459
ENCODING 1113
SWIDTH 828 0
DWIDTH 23 0
BBX 22 15 0 0
BITMAP
07F800
07F800
063800
0E3800
0E3800
0C3800
0C3FE0
0C3FF8
0C387C
1C381C
1C381C
18381C
383838
F03FF8
F03FE0
ENDCHAR
STARTCHAR 045A
ENCODING 1114
SWIDTH 864 0
DWIDTH 24 0
BBX 21 15 2 0
BITMAP
E03000
E03000
E03000
E03000
E03000
E03000
FFFFC0
FFFFF0
E070F8
E07038
E07018
E07018
E07038
E07FF0
E07FC0
ENDCHAR
STARTCHAR 045B
ENCODING 1115
SWIDTH 612 0
DWIDTH 17 0
BBX 15 21 0 0
BITMAP
3800
3800
FFE0
FFE0
3800
3800
3840
3BF8
3FBC
3C0E
380E
380E
380E
380E
380E
380E
380E
380E
380E
380E
380E
ENDCHAR
STARTCHAR 045C
ENCODING 1116
SWIDTH 504 0
DWIDTH 14 0
BBX 12 21 2 0
BITMAP
0380
0300
0700
0E00
0000
0000
E060
E0E0
E1C0
E380
E700
EE00
EC00
FC00
EE00
E600
E300
E380
E1C0
E0E0
E070
ENDCHAR
STARTCHAR 045D
ENCODING 1117
SWIDTH 612 0
DWIDTH 17 0
BBX 13 21 2 0
BITMAP
0E00
0600
0300
0180
0000
0000
E038
E038
E078
E0F8
E0D8
E198
E398
E318
E718
EE18
EC18
FC18
F818
F018
F018
ENDCHAR
STARTCHAR 045E
ENCODING 1118
SWIDTH 504 0
DWIDTH 14 0
BBX 14 28 0 -7
BITMAP
3030
3830
1FE0
0FC0
0000
0000
E01C
601C
7018
7038
3038
3830
1870
1860
1C60
0CE0
0EC0
06C0
07C0
0780
0380
0300
0700
0700
0E00
1C00
FC00
6000
ENDCHAR
STARTCHAR 045F
ENCODING 1119
SWIDTH 612 0
DWIDTH 17 0
BBX 13 20 2 -5
BITMAP
E018
E018
E018
E018
E018
E018
E018
E018
E018
E018
E018
E018
E018
FFF8
FFF8
0300
0300
0300
0300
0300
ENDCHAR
STARTCHAR 0460
ENCODING 1120
SWIDTH 900 0
DWIDTH 25 0
BBX 24 20 1 0
BITMAP
C03807
C03807
C03807
E03807
E01807
E01806
E01C06
603C06
703C0E
707C0E
706E0E
306E0C
38E61C
38C71C
18C718
1DC338
0D83B0
0F81F0
0781E0
0700E0
ENDCHAR
STARTCHAR 0461
ENCODING 1121
SWIDTH 756 0
DWIDTH 21 0
BBX 20 15 1 0
BITMAP
C0E030
C0E030
C0E030
C06070
C06070
E06060
607060
60F060
70F0E0
31B8C0
3199C0
3B1980
1B0F80
1E0F00
0E0600
ENDCHAR
STARTCHAR 0462
ENCODING 1122
SWIDTH 648 0
DWIDTH 18 0
BBX 17 20 0 0
BITMAP
0E0000
0E0000
0E0000
FFF800
FFF800
0E0000
0E0000
0E0000
0E0000
0FFE00
0FFF00
0E0780
0E0380
0E0180
0E0180
0E0180
0E0380
0E0700
0FFF00
0FFC00
ENDCHAR
STARTCHAR 0463
ENCODING 1123
SWIDTH 612 0
DWIDTH 17 0
BBX 16 18 0 0
BITMAP
1C00
1C00
1C00
FFE0
FFE0
1C00
1C00
1C00
1C00
1FF8
1FFE
1C1F
1C07
1C03
1C03
1C07
1FFE
1FF8
ENDCHAR
STARTCHAR 0464
ENCODING 1124
SWIDTH 900 0
DWIDTH 25 0
BBX 22 20 3 0
BITMAP
C007F0
C01FFC
C07C18
C07000
C0E000
C0C000
C1C000
C1C000
C18000
FFFFE0
FFFFE0
C18000
C1C000
C1C000
C1C000
C0E000
C0F000
C07808
C03FF8
C00FF8
ENDCHAR
STARTCHAR 0465
ENCODING 1125
SWIDTH 720 0
DWIDTH 20 0
BBX 17 15 2 0
BITMAP
E03F80
E07F80
E0E000
E1C000
E1C000
E18000
FFFF00
FFFF00
E18000
E18000
E1C000
E1C000
E0E000
E07F80
E03F80
ENDCHAR
STARTCHAR 0466
ENCODING 1126
SWIDTH 648 0
DWIDTH 18 0
BBX 19 20 0 0
BITMAP
00E000
00E000
01F000
01B000
03B800
03B800
031800
071C00
060C00
0FFE00
0FFE00
0CE600
1CE700
18E300
38E380
30E380
70E1C0
70E1C0
60E0C0
E0E0E0
ENDCHAR
STARTCHAR 0467
ENCODING 1127
SWIDTH 540 0
DWIDTH 15 0
BBX 16 15 0 0
BITMAP
03C0
03C0
07C0
0660
0660
0C70
0FF0
1FF8
1998
3998
319C
318C
718E
6186
E187
ENDCHAR
STARTCHAR 0468
ENCODING 1128
SWIDTH 900 0
DWIDTH 25 0
BBX 23 20 3 0
BITMAP
C00E00
C00E00
C01F00
C01B00
C03B00
C03380
C07180
C071C0
C061C0
FFFFC0
FFFFE0
C1CC60
C1CC70
C18C70
C38C38
C30C38
C70C18
C70C1C
CE0C1C
CE0C0E
ENDCHAR
STARTCHAR 0469
ENCODING 1129
SWIDTH 756 0
DWIDTH 21 0
BBX 19 15 2 0
BITMAP
E03800
E03C00
E06C00
E06E00
E0E600
E0C600
FFFF00
FFFF00
E19B80
E39980
E319C0
E718C0
E618C0
EE18E0
EE1860
ENDCHAR
STARTCHAR 046A
ENCODING 1130
SWIDTH 720 0
DWIDTH 20 0
BBX 20 20 0 0
BITMAP
3FFFC0
3FFFC0
1801C0
1C0380
0E0700
070E00
038C00
019800
00F800
07FE00
0FFF80
1C6380
1861C0
3861C0
3860C0
3060E0
7060E0
706060
606060
E06070
ENDCHAR
STARTCHAR 046B
ENCODING 1131
SWIDTH 612 0
DWIDTH 17 0
BBX 17 15 0 0
BITMAP
3FFF00
3FFF00
180E00
0C1C00
063800
033000
07F000
0FFC00
1CCE00
38C600
30C700
70C300
70C380
60C180
E0C180
ENDCHAR
STARTCHAR 046C
ENCODING 1132
SWIDTH 972 0
DWIDTH 27 0
BBX 24 20 3 0
BITMAP
C3FFFC
C3FFFC
C1801C
C0C038
C0E030
C07060
C038E0
C01DC0
C00F80
FFFFF0
FFFFF8
C1C718
C1871C
C1870C
C3870E
C3870E
C30706
C70706
C70707
C60703
ENDCHAR
STARTCHAR 046D
ENCODING 1133
SWIDTH 828 0
DWIDTH 23 0
BBX 21 15 2 0
BITMAP
E3FFF0
E3FFF0
E180E0
E0C1C0
E06380
E03700
FFFF00
FFFFC0
E1CCE0
E38C60
E30C70
E70C30
E60C30
E60C38
EE0C18
ENDCHAR
STARTCHAR 046E
ENCODING 1134
SWIDTH 576 0
DWIDTH 16 0
BBX 14 30 1 -6
BITMAP
3030
18F0
0DC0
0780
1FC0
7FF0
F078
4038
0018
0018
0038
0030
01E0
3F80
3FE0
0078
0018
001C
001C
001C
0018
0078
1FF0
7FC0
F000
C000
E000
FFF8
7FF8
0008
ENDCHAR
STARTCHAR 046F
ENCODING 1135
SWIDTH 468 0
DWIDTH 13 0
BBX 12 23 0 -5
BITMAP
38F0
1DC0
0F80
3FC0
7FE0
2070
0070
0070
0060
0FC0
0FC0
00E0
0030
0030
0030
0070
1FE0
7FC0
7000
E000
E000
7FF0
3FF0
ENDCHAR
STARTCHAR 0470
ENCODING 1136
SWIDTH 792 0
DWIDTH 22 0
BBX 18 20 2 0
BITMAP
E0E0C0
E0E0C0
E0E0C0
E0E0C0
E0E0C0
E0E0C0
E0E0C0
60E0C0
60E0C0
60E1C0
70E1C0
38E380
3EEF00
0FFE00
03F800
00E000
00E000
00E000
00E000
00E000
ENDCHAR
STARTCHAR 0471
ENCODING 1137
SWIDTH 756 0
DWIDTH 21 0
BBX 17 28 2 -7
BITMAP
01C000
01C000
01C000
01C000
01C000
01C000
E1C300
E1C300
E1C300
E1C380
E1C380
E1C380
E1C380
E1C380
E1C380
E1C380
E1C300
61C700
79CE00
3FFC00
0FF800
01C000
01C000
01C000
01C000
01C000
01C000
01C000
ENDCHAR
STARTCHAR 0472
ENCODING 1138
SWIDTH 756 0
DWIDTH 21 0
BBX 18 20 2 0
BITMAP
07F800
1FFC00
3C0F00
780700
700380
E00180
E001C0
E001C0
C001C0
FFFFC0
FFFFC0
C001C0
E001C0
E001C0
E00180
700380
700700
3C0F00
1FFE00
07F800
ENDCHAR
STARTCHAR 0473
ENCODING 1139
SWIDTH 576 0
DWIDTH 16 0
BBX 13 15 2 0
BITMAP
1FC0
3FE0
7070
E038
C038
C018
FFF8
FFF8
C018
C018
C038
E038
7070
3FE0
1FC0
ENDCHAR
STARTCHAR 0474
ENCODING 1140
SWIDTH 612 0
DWIDTH 17 0
BBX 18 20 0 0
BITMAP
E001C0
E003C0
600700
700600
300E00
380E00
380C00
181C00
1C1C00
1C1800
0C3800
0E3800
0E3000
063000
077000
036000
036000
03E000
01C000
01C000
ENDCHAR
STARTCHAR 0475
ENCODING 1141
SWIDTH 504 0
DWIDTH 14 0
BBX 15 15 0 0
BITMAP
E00E
601E
6038
7030
3030
3070
3860
1860
1CE0
1CE0
0CC0
0EC0
07C0
0780
0780
ENDCHAR
STARTCHAR 0476
ENCODING 1142
SWIDTH 612 0
DWIDTH 17 0
BBX 18 26 0 0
BITMAP
18C000
1CE000
0E6000
063000
000000
000000
E001C0
E003C0
600700
700600
300E00
380E00
380C00
181C00
1C1C00
1C1800
0C3800
0E3800
0E3000
063000
077000
036000
036000
03E000
01C000
01C000
ENDCHAR
STARTCHAR 0477
ENCODING 1143
SWIDTH 504 0
DWIDTH 14 0
BBX 15 21 0 0
BITMAP
7380
3980
18C0
0C60
0000
0000
E00E
601E
6038
7030
3030
3070
3860
1860
1CE0
1CE0
0CC0
0EC0
07C0
0780
0780
ENDCHAR
STARTCHAR 0478
ENCODING 1144
SWIDTH 1188 0
DWIDTH 33 0
BBX 32 27 2 -7
BITMAP
07F00000
1FF80000
3C1C0000
700E0000
70070000
E0073007
E0033806
E003180E
C0039C0C
C0039C0C
C0038C1C
C0038E18
C0030618
E0030738
E0070730
60070330
700E03E0
381C01E0
1FF801E0
0FF001C0
000001C0
000001C0
00000180
00000380
00000700
00003E00
00003800
ENDCHAR
STARTCHAR 0479
ENCODING 1145
SWIDTH 1080 0
DWIDTH 30 0
BBX 28 22 2 -7
BITMAP
1FC38030
3FE18070
7071C070
E038C060
E038E0E0
C018E0C0
C01861C0
C01871C0
C0183180
C0183380
C0383B80
E0381B00
70701F00
3FE00E00
1FC00E00
00000E00
00000C00
00001C00
00001800
00007800
0001F000
0001C000
ENDCHAR
STARTCHAR 047A
ENCODING 1146
SWIDTH 792 0
DWIDTH 22 0
BBX 19 23 2 -2
BITMAP
00E000
03F800
0FFE00
3EEF00
380380
7001C0
E000C0
E000E0
E000E0
C000E0
C000E0
C000E0
C000E0
E000E0
E000E0
E000C0
7001C0
780380
3CE700
1FFE00
07FC00
00E000
00C000
ENDCHAR
STARTCHAR 047B
ENCODING 1147
SWIDTH 648 0
DWIDTH 18 0
BBX 15 17 2 -1
BITMAP
0380
0FE0
3FF0
73B8
E01C
E00C
C00E
C00E
C00E
C00E
C00E
E00C
E01C
73B8
3FF0
1FE0
0380
ENDCHAR
STARTCHAR 047C
ENCODING 1148
SWIDTH 1008 0
DWIDTH 28 0
BBX 25 29 2 0
BITMAP
00700000
00FE0000
01CF8000
01908000
00180000
000C0000
00180000
00300000
00000000
0FC1F000
1FE3FC00
38421E00
70000600
60000700
E0000300
E0000300
C0000380
C0000380
C0000380
C0000380
C0180380
C0180380
E0180300
E0180300
60180700
70180E00
383C1E00
1FFFFC00
0FE3F800
ENDCHAR
STARTCHAR 047D
ENCODING 1149
SWIDTH 900 0
DWIDTH 25 0
BBX 21 24 2 0
BITMAP
03F000
033F00
020700
007000
003000
003000
006000
000000
000000
1F07C0
7F07F0
700070
E00038
E00018
C00018
C00018
C07018
C07018
C07018
E07018
E07038
70F870
7FDFF0
1F8FC0
ENDCHAR
STARTCHAR 047E
ENCODING 1150
SWIDTH 900 0
DWIDTH 25 0
BBX 24 25 1 0
BITMAP
03FFC0
01FF80
011080
000000
000000
C03807
C03807
C03807
E03807
E01807
E01806
E01C06
603C06
703C0E
707C0E
706E0E
306E0C
38E61C
38C71C
18C718
1DC338
0D83B0
0F81F0
0781E0
0700E0
ENDCHAR
STARTCHAR 047F
ENCODING 1151
SWIDTH 756 0
DWIDTH 21 0
BBX 20 20 1 0
BITMAP
0FFE00
0FFE00
044600
000000
000000
C0E030
C0E030
C0E030
C06070
C06070
E06060
607060
60F060
70F0E0
31B8C0
3199C0
3B1980
1B0F80
1E0F00
0E0600
ENDCHAR
STARTCHAR 0480
ENCODING 1152
SWIDTH 612 0
DWIDTH 17 0
BBX 15 27 2 -7
BITMAP
03FC
0FFE
3E0C
3800
7000
E000
E000
E000
C000
C000
C000
C000
E000
E000
E000
7000
7800
3C00
1FF0
07F0
0070
0070
0070
0070
0070
0070
0070
ENDCHAR
STARTCHAR 0481
ENCODING 1153
SWIDTH 468 0
DWIDTH 13 0
BBX 10 22 2 -7
BITMAP
1FC0
3FC0
7040
E000
E000
C000
C000
C000
C000
C000
C000
E000
7000
7F80
1F80
0180
0180
0180
0180
0180
0180
0180
ENDCHAR
STARTCHAR 0482
ENCODING 1154
SWIDTH 576 0
DWIDTH 16 0
BBX 14 17 1 0
BITMAP
0018
0030
0E30
0760
03E0
00F0
01FC
018C
4304
F300
3E00
0E00
0F80
1DE0
1840
3000
3000
ENDCHAR
STARTCHAR 0483
ENCODING 1155
SWIDTH 0 0
DWIDTH 0 0
BBX 10 4 -13 16
BITMAP
00C0
7FC0
FFC0
E000
ENDCHAR
STARTCHAR 0484
ENCODING 1156
SWIDTH 0 0
DWIDTH 0 0
BBX 10 3 -13 17
BITMAP
0FC0
FFC0
F040
ENDCHAR
STARTCHAR 0485
ENCODING 1157
SWIDTH 0 0
DWIDTH 0 0
BBX 4 5 -10 17
BITMAP
20
70
C0
60
30
ENDCHAR
STARTCHAR 0486
ENCODING 1158
SWIDTH 0 0
DWIDTH 0 0
BBX 4 4 -10 18
BITMAP
70
30
20
C0
ENDCHAR
STARTCHAR 0487
ENCODING 1159
SWIDTH 0 0
DWIDTH 0 0
BBX 10 3 -5 22
BITMAP
FE00
EFC0
C1C0
ENDCHAR
STARTCHAR 0488
ENCODING 1160
SWIDTH 0 0
DWIDTH 0 0
BBX 32 29 -16 -7
BITMAP
00038000
0007E000
00042000
00000000
00000000
0F8001E0
1F8003F0
10C00218
00000000
00000000
00000000
00000000
00000000
7C00003E
7E00007E
C2000043
00000000
00000000
00000000
00000000
00000000
0F0001E0
1F8003F0
10C00218
00000000
00000000
0007C000
00046000
000C2000
ENDCHAR
STARTCHAR 0489
ENCODING 1161
SWIDTH 0 0
DWIDTH 0 0
BBX 30 31 -15 -8
BITMAP
00018000
00018000
00030000
00030000
04030000
06070040
060001E0
07000780
03800700
03000000
00000000
00000000
00000000
00000000
E0000060
F800007C
1800003C
00000000
00000000
00000000
00000000
00000000
01000300
03800300
0F800380
1C038180
000300C0
00030080
00030000
00060000
00060000
ENDCHAR
STARTCHAR 048A
ENCODING 1162
SWIDTH 756 0
DWIDTH 21 0
BBX 18 31 3 -5
BITMAP
181800
183800
1C7000
0FF000
010000
000000
C00700
C00F00
C01F00
C01F00
C03F00
C07700
C06700
C0E700
C1C700
C18700
C38700
C70700
C60700
CE0700
DC0700
D80700
F80700
F00700
E007C0
E007C0
0001C0
000180
000180
000380
000380
ENDCHAR
STARTCHAR 048B
ENCODING 1163
SWIDTH 648 0
DWIDTH 18 0
BBX 16 26 2 -5
BITMAP
3030
3830
1FF0
0FC0
0000
0000
E038
E038
E078
E0F8
E0D8
E198
E398
E318
E718
EE18
EC18
FC18
F818
F01F
F01F
0006
0006
0006
000E
000C
ENDCHAR
STARTCHAR 048C
ENCODING 1164
SWIDTH 612 0
DWIDTH 17 0
BBX 15 20 1 0
BITMAP
3000
3000
3000
FF80
FF80
3000
3000
3000
3000
3FF0
3FF8
301C
300C
300E
300E
300E
301C
303C
3FF8
3FE0
ENDCHAR
STARTCHAR 048D
ENCODING 1165
SWIDTH 576 0
DWIDTH 16 0
BBX 15 21 0 0
BITMAP
3800
3800
3800
FF80
FF80
3800
3800
3800
3800
3800
3800
3800
3FF0
3FFC
383E
380E
3806
380E
381E
3FFC
3FF0
ENDCHAR
STARTCHAR 048E
ENCODING 1166
SWIDTH 612 0
DWIDTH 17 0
BBX 13 20 3 0
BITMAP
FF00
FFE0
C1F0
C070
C030
C038
C038
C230
C770
C3F0
FFE0
FFC0
C0E0
C060
C000
C000
C000
C000
C000
C000
ENDCHAR
STARTCHAR 048F
ENCODING 1167
SWIDTH 612 0
DWIDTH 17 0
BBX 14 22 2 -7
BITMAP
C7C0
FFF0
F870
F038
E018
E018
E01C
E01C
E01C
E018
E198
F1B8
F0F0
FFF0
EFE0
E030
E010
E000
E000
E000
E000
E000
ENDCHAR
STARTCHAR 0490
ENCODING 1168
SWIDTH 504 0
DWIDTH 14 0
BBX 11 24 3 0
BITMAP
0060
0060
0060
0060
FFE0
FFE0
C000
C000
C000
C000
C000
C000
C000
C000
C000
C000
C000
C000
C000
C000
C000
C000
C000
C000
ENDCHAR
STARTCHAR 0491
ENCODING 1169
SWIDTH 432 0
DWIDTH 12 0
BBX 10 19 2 0
BITMAP
01C0
01C0
01C0
01C0
FFC0
FFC0
E000
E000
E000
E000
E000
E000
E000
E000
E000
E000
E000
E000
E000
ENDCHAR
STARTCHAR 0492
ENCODING 1170
SWIDTH 504 0
DWIDTH 14 0
BBX 13 20 1 0
BITMAP
3FF8
3FF8
3000
3000
3000
3000
3000
3000
3000
FFC0
FFC0
3000
3000
3000
3000
3000
3000
3000
3000
3000
ENDCHAR
STARTCHAR 0493
ENCODING 1171
SWIDTH 432 0
DWIDTH 12 0
BBX 11 15 0 0
BITMAP
3FE0
3FE0
3800
3800
3800
3800
3800
FF80
FF80
3800
3800
3800
3800
3800
3800
ENDCHAR
STARTCHAR 0494
ENCODING 1172
SWIDTH 648 0
DWIDTH 18 0
BBX 14 27 3 -7
BITMAP
FFE0
FFE0
C000
C000
C000
C000
C000
C000
C000
FF00
FFE0
C3F0
C078
C038
C01C
C01C
C01C
C01C
C01C
C01C
001C
001C
0038
0038
10F0
1FE0
0F80
ENDCHAR
STARTCHAR 0495
ENCODING 1173
SWIDTH 504 0
DWIDTH 14 0
BBX 12 22 2 -7
BITMAP
FFC0
FFC0
E000
E000
E000
E000
FE00
FF80
FFC0
E0E0
E060
E070
E070
E070
E070
0070
0070
0070
00E0
19E0
1FC0
0F00
ENDCHAR
STARTCHAR 0496
ENCODING 1174
SWIDTH 900 0
DWIDTH 25 0
BBX 25 25 0 -5
BITMAP
60180E00
70180C00
38181C00
1C183800
0E187000
0618E000
0718C000
0399C000
01DB8000
00DF0000
01FF0000
019B8000
0399C000
0718E000
0E186000
0C187000
1C183800
38181C00
70180F80
E0180F80
00000380
00000380
00000380
00000380
00000380
ENDCHAR
STARTCHAR 0497
ENCODING 1175
SWIDTH 792 0
DWIDTH 22 0
BBX 22 20 0 -5
BITMAP
707070
3070E0
1870C0
1C7180
0E7380
077700
03FE00
01FC00
037E00
077700
0E7380
1C71C0
3870E0
70707C
E0703C
00001C
00001C
00001C
00001C
00001C
ENDCHAR
STARTCHAR 0498
ENCODING 1176
SWIDTH 576 0
DWIDTH 16 0
BBX 14 26 1 -6
BITMAP
1FC0
7FF0
7078
4038
0018
0018
0038
0038
01E0
3F80
3FF0
0078
0018
001C
001C
001C
0018
C078
FFF0
7FC0
0600
0300
0180
0180
0F80
0F00
ENDCHAR
STARTCHAR 0499
ENCODING 1177
SWIDTH 468 0
DWIDTH 13 0
BBX 11 21 1 -6
BITMAP
7F80
FFC0
40E0
00E0
00E0
00C0
1F80
1F80
01C0
0060
0060
0060
80E0
FFC0
FF80
0C00
0600
0200
0300
1E00
1E00
ENDCHAR
STARTCHAR 049A
ENCODING 1178
SWIDTH 648 0
DWIDTH 18 0
BBX 15 25 3 -5
BITMAP
C018
C038
C070
C0E0
C1C0
C380
C700
CE00
DC00
F800
DC00
CE00
CF00
C700
C380
C1C0
C0E0
C070
C03E
C01E
0006
0006
0006
0006
0006
ENDCHAR
STARTCHAR 049B
ENCODING 1179
SWIDTH 540 0
DWIDTH 15 0
BBX 13 20 2 -5
BITMAP
E060
E0E0
E1C0
E380
E700
EE00
EC00
FC00
EE00
E600
E300
E380
E1C0
E0F8
E078
0018
0018
0018
0018
0018
ENDCHAR
STARTCHAR 049C
ENCODING 1180
SWIDTH 612 0
DWIDTH 17 0
BBX 14 20 3 0
BITMAP
C018
C038
C070
CCE0
CDC0
CF80
CF00
CE00
DC00
FC00
DC00
CE00
CF00
CF00
CF80
CDC0
C0E0
C070
C038
C01C
ENDCHAR
STARTCHAR 049D
ENCODING 1181
SWIDTH 504 0
DWIDTH 14 0
BBX 12 15 2 0
BITMAP
E060
ECE0
EDC0
EF80
EF00
EE00
EC00
FC00
EE00
EE00
EF00
EF80
EDC0
ECE0
E070
ENDCHAR
STARTCHAR 049E
ENCODING 1182
SWIDTH 612 0
DWIDTH 17 0
BBX 17 20 0 0
BITMAP
180300
180700
180E00
FF1C00
FF3800
187000
18E000
19C000
1B8000
1F0000
1B8000
19C000
19E000
18E000
187000
183800
181C00
180E00
180700
180380
ENDCHAR
STARTCHAR 049F
ENCODING 1183
SWIDTH 504 0
DWIDTH 14 0
BBX 14 21 0 0
BITMAP
3800
3800
FFC0
FFC0
3800
3800
3818
3838
3870
38E0
39C0
3B80
3B00
3F00
3B80
3980
38C0
38E0
3870
3838
381C
ENDCHAR
STARTCHAR 04A0
ENCODING 1184
SWIDTH 684 0
DWIDTH 19 0
BBX 19 20 0 0
BITMAP
FE00E0
FE01C0
060380
060700
060E00
061C00
063800
067000
06E000
07C000
06E000
067000
063800
063C00
061C00
060E00
060700
060380
0601C0
0600E0
ENDCHAR
STARTCHAR 04A1
ENCODING 1185
SWIDTH 612 0
DWIDTH 17 0
BBX 17 15 0 0
BITMAP
FF0300
FF0600
070E00
071C00
073800
077000
07E000
07E000
076000
077000
073800
071C00
070E00
070700
070380
ENDCHAR
STARTCHAR 04A2
ENCODING 1186
SWIDTH 720 0
DWIDTH 20 0
BBX 17 25 3 -5
BITMAP
C00E00
C00E00
C00E00
C00E00
C00E00
C00E00
C00E00
C00E00
C00E00
FFFE00
FFFE00
C00E00
C00E00
C00E00
C00E00
C00E00
C00E00
C00E00
C00F80
C00F80
000180
000180
000180
000180
000180
ENDCHAR
STARTCHAR 04A3
ENCODING 1187
SWIDTH 648 0
DWIDTH 18 0
BBX 16 20 2 -5
BITMAP
E018
E018
E018
E018
E018
E018
FFF8
FFF8
E018
E018
E018
E018
E018
E01F
E01F
0007
0007
0007
0007
0007
ENDCHAR
STARTCHAR 04A4
ENCODING 1188
SWIDTH 792 0
DWIDTH 22 0
BBX 19 20 3 0
BITMAP
C00FE0
C00FE0
C00E00
C00E00
C00E00
C00E00
C00E00
C00E00
C00E00
FFFE00
FFFE00
C00E00
C00E00
C00E00
C00E00
C00E00
C00E00
C00E00
C00E00
C00E00
ENDCHAR
STARTCHAR 04A5
ENCODING 1189
SWIDTH 720 0
DWIDTH 20 0
BBX 18 15 2 0
BITMAP
E01FC0
E01FC0
E01800
E01800
E01800
E01800
FFF800
FFF800
E01800
E01800
E01800
E01800
E01800
E01800
E01800
ENDCHAR
STARTCHAR 04A6
ENCODING 1190
SWIDTH 1044 0
DWIDTH 29 0
BBX 25 27 3 -7
BITMAP
FFFC0000
FFFC0000
C01C0000
C01C0000
C01C0000
C01C0000
C01C0000
C01C0000
C01C0000
C01FF000
C01FFC00
C01C3E00
C01C0700
C01C0300
C01C0380
C01C0380
C01C0180
C01C0180
C01C0180
C01C0180
00000380
00000380
00000380
00000700
00031E00
0003FC00
0001F800
ENDCHAR
STARTCHAR 04A7
ENCODING 1191
SWIDTH 828 0
DWIDTH 23 0
BBX 21 22 2 -7
BITMAP
FFF000
FFF000
E03000
E03000
E03000
E03000
E03700
E03FC0
E03FE0
E03070
E03038
E03038
E03018
E03018
E03018
000018
000038
000038
000030
000CF0
000FE0
0003C0
ENDCHAR
STARTCHAR 04A8
ENCODING 1192
SWIDTH 756 0
DWIDTH 21 0
BBX 18 21 2 -1
BITMAP
07E000
1FE000
3C0000
700000
703E00
E07F00
E0E380
E0E180
C0C1C0
C0C1C0
C0C1C0
C0C1C0
C0C1C0
E0E1C0
E0E180
706380
707700
3C3F00
1FFE00
07FFC0
0007C0
ENDCHAR
STARTCHAR 04A9
ENCODING 1193
SWIDTH 612 0
DWIDTH 17 0
BBX 15 16 2 -1
BITMAP
1F00
3F00
7000
E070
C1F8
C39C
C38C
C30C
C30C
C30C
C39C
E19C
71F8
3FF0
1FFE
001E
ENDCHAR
STARTCHAR 04AA
ENCODING 1194
SWIDTH 612 0
DWIDTH 17 0
BBX 14 26 2 -6
BITMAP
07F8
0FFC
3E0C
3800
7000
E000
E000
E000
C000
C000
C000
C000
E000
E000
E000
7000
7800
3C04
1FFC
07FC
0180
00C0
00C0
00C0
03C0
03C0
ENDCHAR
STARTCHAR 04AB
ENCODING 1195
SWIDTH 468 0
DWIDTH 13 0
BBX 10 21 2 -6
BITMAP
1FC0
3FC0
7040
E000
E000
C000
C000
C000
C000
C000
C000
E000
7000
3FC0
1FC0
0600
0300
0300
0300
0F00
0E00
ENDCHAR
STARTCHAR 04AC
ENCODING 1196
SWIDTH 540 0
DWIDTH 15 0
BBX 15 25 0 -5
BITMAP
FFFE
FFFE
0380
0380
0380
0380
0380
0380
0380
0380
0380
0380
0380
0380
0380
0380
0380
0380
03E0
03E0
0060
0060
0060
0060
0060
ENDCHAR
STARTCHAR 04AD
ENCODING 1197
SWIDTH 468 0
DWIDTH 13 0
BBX 12 20 1 -5
BITMAP
FFF0
FFF0
0E00
0E00
0E00
0E00
0E00
0E00
0E00
0E00
0E00
0E00
0E00
0F80
0F80
0180
0180
0180
0180
0180
ENDCHAR
STARTCHAR 04AE
ENCODING 1198
SWIDTH 540 0
DWIDTH 15 0
BBX 16 20 0 0
BITMAP
E007
600E
700C
301C
3818
1C38
1C30
0E70
0E60
07E0
03C0
03C0
0180
0180
0180
0180
0180
0180
0180
0180
ENDCHAR
STARTCHAR 04AF
ENCODING 1199
SWIDTH 504 0
DWIDTH 14 0
BBX 14 22 0 -7
BITMAP
E01C
601C
6018
7038
3030
3830
3870
1860
1CE0
0CC0
0CC0
0FC0
0780
0780
0380
0300
0300
0300
0300
0300
0300
0300
ENDCHAR
STARTCHAR 04B0
ENCODING 1200
SWIDTH 540 0
DWIDTH 15 0
BBX 16 20 0 0
BITMAP
E007
600E
700C
301C
3818
1C38
1C30
0E70
0E60
07E0
03C0
03C0
0180
3FF8
3FF8
0180
0180
0180
0180
0180
ENDCHAR
STARTCHAR 04B1
ENCODING 1201
SWIDTH 504 0
DWIDTH 14 0
BBX 14 22 0 -7
BITMAP
E01C
601C
6018
7038
3030
3830
1870
1860
1CE0
0CC0
0CC0
0FC0
0780
0780
0380
3FF0
3FF0
0300
0300
0300
0300
0300
ENDCHAR
STARTCHAR 04B2
ENCODING 1202
SWIDTH 612 0
DWIDTH 17 0
BBX 17 25 0 -5
BITMAP
700600
700E00
380C00
181C00
1C3800
0E3000
067000
07E000
03C000
01C000
03C000
03E000
066000
0E7000
0C3800
1C1800
381C00
300E00
700F80
E00780
000180
000180
000180
000180
000180
ENDCHAR
STARTCHAR 04B3
ENCODING 1203
SWIDTH 540 0
DWIDTH 15 0
BBX 14 20 1 -5
BITMAP
E038
6070
7060
38E0
1DC0
0D80
0F00
0700
0F80
1D80
19C0
38E0
7060
607C
E03C
000C
000C
000C
000C
000C
ENDCHAR
ENDFONT
